<svg id="Livello_1" data-name="Livello 1" xmlns="http://www.w3.org/2000/svg" viewBox="0 0 511.85 512"><title>meat</title><path d="M626.6,293.5c-47.5,47.5-185,118.2-256.3,100.3l-4.8,4.8c-10.5-10.5-.9-20.1-11.5-30.7s-20.1-1-30.7-11.5l4.8-4.8c-17.9-71.3,52.8-208.9,100.3-256.3A140.15,140.15,0,1,1,626.6,293.5Z" transform="translate(-167.05 -43)" style="fill:#f18631"/><path d="M365.5,398.7,299.2,465c.9.8,1.8,1.6,2.6,2.4a44.69,44.69,0,1,1-76.2,29,44.72,44.72,0,1,1,29-76.3c.8.9,1.7,1.7,2.4,2.6l66.3-66.3c10.5,10.5,20.1,1,30.7,11.5s1,20.2,11.5,30.8Z" transform="translate(-167.05 -43)" style="fill:#efefef"/><path d="M634.6,87.4a151.37,151.37,0,0,0-214.2,0c-25.5,25.5-55.8,73.7-77.1,122.7-14.1,32.5-35.8,92.3-27.6,138l-.5.5h0L256.8,407a56.06,56.06,0,1,0-42,100.2,56,56,0,1,0,100.1-42l58.5-58.5h0l.4-.4c45.6,8.2,105.5-13.5,138-27.6,49-21.3,97.2-51.5,122.7-77.1h0a151.49,151.49,0,0,0,.1-214.2ZM291.2,456.9a11.53,11.53,0,0,0-3.3,8.5,11.36,11.36,0,0,0,4,8.2c.7.6,1.4,1.2,2,1.8A33.38,33.38,0,1,1,237,497a11,11,0,0,0-3.3-8.6,11.36,11.36,0,0,0-8-3.3H225a33.93,33.93,0,0,1-25.6-9.7A33.45,33.45,0,0,1,246.6,428c.6.6,1.2,1.3,1.9,2a11.55,11.55,0,0,0,8.2,4,11.3,11.3,0,0,0,8.4-3.3l59.8-59.8h0a36.45,36.45,0,0,0,13.3,2.5c4.5.2,5.8.4,7.9,2.5s2.2,3.4,2.4,7.9c.2,3.6.4,8.3,2.5,13.3h0ZM618.6,285.5c-23.7,23.7-69.1,52-115.7,72.3-53.5,23.2-100.8,32.3-129.8,25a6.93,6.93,0,0,0-2-.3c-.3-5.7-.8-14.3-9-22.6s-16.8-8.8-22.6-9a6.93,6.93,0,0,0-.3-2c-7.3-29.1,1.8-76.4,25-129.9,20.3-46.7,48.6-92.1,72.3-115.7A128.8,128.8,0,1,1,618.6,285.5Z" transform="translate(-167.05 -43)" style="fill:#231f20"/><path d="M629.8,176.9a11.3,11.3,0,1,0-22.3,3.7,81.32,81.32,0,0,1-22.6,71.1c-9.2,9.2-26,21.6-44.8,33.1a11.29,11.29,0,0,0,6,20.9A10.86,10.86,0,0,0,552,304c20.6-12.6,38.5-25.9,49-36.4A103.88,103.88,0,0,0,629.8,176.9Z" transform="translate(-167.05 -43)" style="fill:#231f20"/><path d="M585.6,137.8a11.2,11.2,0,0,0,8.1,3.4,11.55,11.55,0,0,0,7.9-3.2,11.26,11.26,0,0,0,.2-16,9,9,0,0,1-.9-1,11.31,11.31,0,0,0-16,16C585.2,137.3,585.4,137.6,585.6,137.8Z" transform="translate(-167.05 -43)" style="fill:#231f20"/></svg>