<svg id="Layer_1" data-name="Layer 1" xmlns="http://www.w3.org/2000/svg" viewBox="0 0 511.97 512"><title>meatless</title><path d="M459.63,250.54C412.14,298,274.6,368.75,203.29,350.86l-4.8,4.79C188,345.11,197.54,335.52,187,325s-20.14-1-30.67-11.49l4.79-4.8C143.24,237.38,214,99.84,261.45,52.35A140.14,140.14,0,0,1,459.63,250.54Z" transform="translate(-0.01 0)" style="fill:#f7862d"/><path d="M198.49,355.66l-66.26,66.26c.9.77,1.78,1.57,2.64,2.42a44.72,44.72,0,1,1-76.27,29,44.72,44.72,0,1,1,29-76.27c.85.86,1.65,1.74,2.42,2.64l66.27-66.27c10.53,10.55,20.13.95,30.67,11.5s1,20.12,11.49,30.67Z" transform="translate(-0.01 0)" style="fill:#efefef"/><path d="M467.62,44.36a151.42,151.42,0,0,0-214.16,0C227.94,69.86,197.69,118,176.4,167.09c-14.12,32.5-35.78,92.32-27.61,138l-.46.45h0L89.8,364a56,56,0,1,0-42,100.13,56,56,0,1,0,100.12-42l58.54-58.53h0l0,0,.43-.43c45.63,8.17,105.45-13.49,138-27.6,49.05-21.3,97.22-51.54,122.73-77.06h0a151.41,151.41,0,0,0,0-214.17ZM124.23,413.93a11.3,11.3,0,0,0,.67,16.6c.73.62,1.39,1.23,2,1.8a33.42,33.42,0,1,1-57,21.69A11.28,11.28,0,0,0,58.6,442.08h-.66a33.42,33.42,0,1,1,21.66-57c.62.63,1.23,1.3,1.85,2a11.3,11.3,0,0,0,16.6.67L157.81,328h0a36.91,36.91,0,0,0,13.32,2.54c4.51.21,5.78.35,7.88,2.45s2.23,3.36,2.45,7.87A36.7,36.7,0,0,0,184,354.17h0ZM451.64,242.55c-23.67,23.66-69.1,52-115.75,72.3-53.46,23.21-100.78,32.34-129.85,25a11.65,11.65,0,0,0-2-.31c-.27-5.75-.77-14.33-9-22.59s-16.84-8.77-22.59-9a11.65,11.65,0,0,0-.31-2c-7.3-29.07,1.83-76.4,25-129.85C217.39,129.44,245.77,84,269.44,60.34a128.84,128.84,0,1,1,182.2,182.21Z" transform="translate(-0.01 0)" style="fill:#231f20"/><path d="M462.76,133.94a11.3,11.3,0,1,0-22.29,3.79,81.38,81.38,0,0,1-22.57,71.08c-9.18,9.19-25.95,21.57-44.84,33.12a11.3,11.3,0,1,0,11.79,19.29c20.63-12.61,38.51-25.89,49-36.42A104.05,104.05,0,0,0,462.76,133.94Z" transform="translate(-0.01 0)" style="fill:#231f20"/><path d="M418.64,94.82A11.3,11.3,0,1,0,434.83,79l-.94-1a11.31,11.31,0,0,0-16,16C418.15,94.32,418.4,94.57,418.64,94.82Z" transform="translate(-0.01 0)" style="fill:#231f20"/><path d="M277.11,301.44a10.71,10.71,0,0,1,0-15.1,11.11,11.11,0,0,1,15.33,0l92,90.8,92.17-90.8a10.92,10.92,0,0,1,15.18,0,10.47,10.47,0,0,1,0,15.1l-92,90.66,92,90.8a10.48,10.48,0,0,1,0,15.11,10.92,10.92,0,0,1-15.18,0l-92.17-90.8-92,90.8a11.11,11.11,0,0,1-15.33,0,10.73,10.73,0,0,1,0-15.11l92-90.8Z" transform="translate(-0.01 0)" style="fill:#e8461e;stroke:#1d1d1b;stroke-miterlimit:10;stroke-width:12.357728999980987px"/></svg>