<?xml version="1.0" encoding="utf-8"?>
<!-- Generator: Adobe Illustrator 23.0.3, SVG Export Plug-In . SVG Version: 6.00 Build 0)  -->
<svg version="1.1" id="Livello_1" xmlns="http://www.w3.org/2000/svg" xmlns:xlink="http://www.w3.org/1999/xlink" x="0px" y="0px"
	 viewBox="0 0 512 512" style="enable-background:new 0 0 512 512;" xml:space="preserve">
<style type="text/css">
	.st0{fill:#FF4500;}
</style>
<path class="st0" d="M335,122.2C294.5,43.4,244.7,0,194.6,0c-50,0-99.9,43.4-140.4,122.2C21.8,185.3,0,263.7,0,317.4
	C0,424.7,87.3,512,194.6,512c107.3,0,194.6-87.3,194.6-194.6C389.3,263.7,367.5,185.3,335,122.2z M194.6,481.6
	c-90.5,0-164.2-73.7-164.2-164.2c0-49.3,20.4-122.1,50.9-181.3C115.8,69,157.1,30.4,194.6,30.4c37.5,0,78.8,38.5,113.3,105.6
	c30.4,59.2,50.9,132,50.9,181.3C358.8,407.9,285.2,481.6,194.6,481.6z"/>
</svg>
