<?xml version="1.0" encoding="utf-8"?>
<!-- Generator: Adobe Illustrator 23.0.3, SVG Export Plug-In . SVG Version: 6.00 Build 0)  -->
<svg version="1.1" id="Livello_1" xmlns="http://www.w3.org/2000/svg" xmlns:xlink="http://www.w3.org/1999/xlink" x="0px" y="0px"
	 viewBox="0 0 512 512" style="enable-background:new 0 0 512 512;" xml:space="preserve">
<style type="text/css">
	.st0{fill:#FF0000;}
	.st1{fill:#FF4500;}
</style>
<path class="st0" d="M220,295.5c1.9,1.9,4.5,2.9,7,2.9c2.6,0,5.2-1,7.1-3c3.9-3.9,3.8-10.3-0.1-14.1l-0.3-0.3
	c-3.9-3.9-10.3-3.8-14.1,0.1c-3.9,3.9-3.8,10.3,0.1,14.1L220,295.5z"/>
<path class="st1" d="M391.1,338.1c-6.3-10.9-14.2-21.3-23.6-30.8c-19.8-19.8-44.1-33.3-70.2-39c-26.7-5.9-47.7-26.9-53.6-53.6
	c-5.7-26.1-19.2-50.4-39-70.2C153.6,93.4,75.5,88.3,30.6,133.2C-11.9,175.6-9.6,247.8,34,298.7c0,0,0,0,0,0c2.5,2.9,5.1,5.7,7.9,8.5
	c19.8,19.8,44.1,33.3,70.2,39c26.7,5.9,47.7,26.9,53.6,53.6c5.7,26.1,19.2,50.4,39,70.2c27.8,27.8,63.4,41.9,97.5,41.9
	c28.7,0,56.1-10.1,76.6-30.6c36.3-36.3,39.9-94.2,13-142.1C391.6,338.9,391.4,338.5,391.1,338.1z M370.1,342.2L341.3,371
	c-5.7-6.7-11.8-13.2-18.1-19.5c-6.2-6.2-12.5-12-18.8-17.5l29-29c7.1,4.7,13.8,10.2,20,16.4C359.8,327.9,365.4,334.9,370.1,342.2z
	 M224.2,219c7.5,34.3,34.5,61.3,68.8,68.8c7.6,1.7,15,4.1,22.1,7.3l-26.3,26.3c-8.1-6.2-16.3-11.6-24.2-16.3c-0.3-0.2-0.7-0.4-1-0.6
	c-4.7-2.9-10.9-1.3-13.7,3.4c-2.9,4.7-1.3,10.9,3.4,13.7c0.4,0.2,0.8,0.5,1.2,0.7c6.6,3.9,13.3,8.4,20.1,13.4l-13.4,13.4
	c-3.9,3.9-3.9,10.2,0,14.1c2,2,4.5,2.9,7.1,2.9c2.6,0,5.1-1,7.1-2.9l15-15c6.4,5.4,12.7,11.3,18.9,17.5c6.4,6.4,12.4,12.9,18,19.5
	l-44.5,44.5c-6.6-5.6-13.1-11.6-19.5-18c-17.9-17.9-32.9-36.8-43.4-54.7c-14.8-25.1-39.6-49.9-64.7-64.7
	c-17.9-10.5-36.8-25.5-54.7-43.4c-0.1-0.1-0.3-0.3-0.4-0.4l45.9-45.9c0.1,0.1,0.3,0.3,0.4,0.4c17.9,17.9,32.9,36.8,43.4,54.7
	c2.8,4.8,8.9,6.3,13.7,3.5c4.8-2.8,6.3-8.9,3.5-13.7c-11.4-19.3-27.5-39.6-46.5-58.7c-0.1-0.1-0.3-0.3-0.4-0.4l30.1-30.1
	c0.1,0.1,0.3,0.3,0.4,0.4C207.6,175.8,219.3,196.6,224.2,219z M364.7,467.3c-3.7,3.7-15.9,3.3-34.9-5.8c-10-4.8-20.6-11.3-31.3-19.3
	l41.2-41.2c7.9,10.8,14.5,21.4,19.3,31.3C368,451.3,368.4,463.6,364.7,467.3z M44.7,147.3c3.7-3.7,15.9-3.3,34.9,5.8
	c3.5,1.7,7.1,3.6,10.7,5.7l-12.5,12.5c-3.9,3.9-3.9,10.2,0,14.1c2,2,4.5,2.9,7.1,2.9s5.1-1,7.1-2.9l15.6-15.6
	c7.9,5.6,15.8,12,23.7,18.9l-45.1,45.1c-15.5-17.5-27.9-35.4-35.7-51.6C41.4,163.3,41,151,44.7,147.3z M174.8,145.3l-29.4,29.4
	c-7.7-6.9-15.6-13.3-23.6-19.1l25.3-25.3C156.7,133.9,166.1,138.9,174.8,145.3z M107.2,122.5c5.9,0,11.8,0.5,17.8,1.5l-20.1,20.1
	c-11.1-6.8-21.8-12.1-31.8-15.3C83.8,124.6,95.4,122.5,107.2,122.5z M26.2,175.7c7.3,22.2,24.4,48.3,45.8,72.3l-29.4,29.4
	C19.8,245.8,13.9,207,26.2,175.7z M302.2,492.1c-28.8,0-59.4-12.3-83.3-36.1c-17.1-17.1-28.7-38-33.6-60.3
	c-7.5-34.3-34.5-61.3-68.8-68.8c-22.4-4.9-43.3-16.5-60.3-33.6c-0.1-0.1-0.3-0.3-0.4-0.4l30.1-30.1c0.1,0.1,0.3,0.3,0.4,0.4
	c19,19,39.3,35.1,58.7,46.5c22,13,44.7,35.6,57.6,57.6c11.4,19.3,27.5,39.6,46.5,58.7c27.8,27.8,60.4,51.2,87.3,60
	C325.6,490,314,492.1,302.2,492.1z M383.2,438.9c-5.3-16.1-15.8-34.2-29.3-52.2l26.1-26.1C391.3,386.7,392.6,415,383.2,438.9z"/>
<path class="st1" d="M446.6,96c-36.1,0-65.4,33.6-65.4,75c0,41.4,29.3,75,65.4,75s65.4-33.7,65.4-75C512,129.7,482.7,96,446.6,96z
	 M446.6,226c-25,0-45.4-24.7-45.4-55s20.4-55,45.4-55s45.4,24.7,45.4,55S471.6,226,446.6,226z"/>
<path class="st1" d="M295.7,130.8c41.4,0,75-29.3,75-65.4S337.1,0,295.7,0s-75,29.3-75,65.4S254.3,130.8,295.7,130.8z M295.7,20
	c30.3,0,55,20.4,55,45.4s-24.7,45.4-55,45.4s-55-20.4-55-45.4S265.4,20,295.7,20z"/>
</svg>
