<?xml version="1.0" encoding="utf-8"?>
<!-- Generator: Adobe Illustrator 23.0.3, SVG Export Plug-In . SVG Version: 6.00 Build 0)  -->
<svg version="1.1" id="Layer_1" xmlns="http://www.w3.org/2000/svg" xmlns:xlink="http://www.w3.org/1999/xlink" x="0px" y="0px"
	 viewBox="0 0 512 512" style="enable-background:new 0 0 512 512;" xml:space="preserve">
<style type="text/css">
	.st0{fill:#FF4500;}
</style>
<g>
	<g>
		<path class="st0" d="M202.9,342.8c-16.6-19.9-33.3-28.3-34-28.7c-2.9-1.4-6.2-1.4-9.1,0c-0.7,0.4-17.5,8.8-34,28.7
			c-15.1,18.1-33.1,49.8-33.1,97.6c0,27.7,7.2,46.8,21.9,58.4c14.8,11.7,34.4,13.2,49.8,13.2s35-1.5,49.8-13.2
			c14.7-11.6,21.9-30.8,21.9-58.4C236,392.5,218,360.9,202.9,342.8z M201.4,482.8c-7.7,6.1-19.2,8.8-37.1,8.8s-29.4-2.7-37.1-8.8
			c-9.5-7.5-14.1-21.4-14.1-42.4c0-33.1,9.3-61.3,27.7-83.8c9.1-11.1,18.2-18,23.5-21.5c5.3,3.5,14.5,10.4,23.5,21.5
			c18.4,22.5,27.8,50.7,27.8,83.8C215.6,461.4,210.9,475.2,201.4,482.8z"/>
	</g>
</g>
<g>
	<g>
		<path class="st0" d="M244.2,176.1c-0.3-0.7-8.8-17.5-28.7-34C197.4,127,165.7,109,117.9,109c-27.7,0-46.8,7.2-58.4,21.9
			c-11.7,14.8-13.2,34.4-13.2,49.8s1.5,34.9,13.2,49.8c11.6,14.7,30.8,21.9,58.4,21.9c47.8,0,79.5-18,97.6-33.1
			c19.9-16.6,28.3-33.3,28.7-34C245.6,182.3,245.6,179,244.2,176.1z M201.7,204.1c-22.5,18.4-50.7,27.8-83.8,27.8
			c-21,0-34.9-4.6-42.4-14.1c-6.1-7.7-8.8-19.2-8.8-37.1c0-17.9,2.7-29.4,8.8-37.1c7.5-9.5,21.4-14.1,42.4-14.1
			c33.1,0,61.3,9.3,83.8,27.8c11.1,9.1,18,18.2,21.5,23.5C219.7,185.9,212.8,195.1,201.7,204.1z"/>
	</g>
</g>
<g>
	<g>
		<path class="st0" d="M465.2,118.6C463,95.1,453.4,60,419.6,26.2C400,6.6,381.4-1.8,362.8,0.3c-18.8,2.2-33.7,15-44.6,25.8
			c-10.9,10.9-23.6,25.8-25.8,44.6c-2.2,18.6,6.3,37.2,25.8,56.8c33.8,33.8,68.9,43.5,92.4,45.6c4.3,0.4,8.3,0.6,12.1,0.6
			c19.1,0,31.6-4.1,32.2-4.3c3-1,5.4-3.4,6.4-6.4C461.6,162.1,467.5,144.3,465.2,118.6z M443.3,151.2c-6.2,1.3-17.6,2.9-31.8,1.4
			c-28.9-2.9-55.5-16.2-78.9-39.6c-14.9-14.9-21.4-27.9-20-40c1.1-9.8,7.3-19.8,20-32.5c12.7-12.7,22.7-18.9,32.5-20
			c1.1-0.1,2.1-0.2,3.2-0.2c11.2,0,23.2,6.6,36.8,20.2c23.4,23.4,36.7,49.9,39.6,78.9C446.2,133.7,444.6,145,443.3,151.2z"/>
	</g>
</g>
<g>
	<g>
		<path class="st0" d="M423.1,289.6c-33.8-33.8-68.9-43.5-92.4-45.6c-25.8-2.3-43.6,3.5-44.3,3.8c-3,1-5.4,3.4-6.4,6.4
			c-0.3,0.7-6.1,18.6-3.8,44.3c2.1,23.5,11.8,58.6,45.6,92.4c17.6,17.6,34.3,26.2,51.1,26.2c1.9,0,3.8-0.1,5.7-0.3
			c18.8-2.2,33.7-15,44.6-25.8c10.9-10.9,23.6-25.8,25.8-44.6C451.1,327.8,442.7,309.2,423.1,289.6z M428.7,344
			c-1.1,9.8-7.3,19.8-20,32.5c-12.7,12.7-22.7,18.9-32.5,20c-12,1.4-25.1-5.1-40-20c-23.4-23.4-36.7-49.9-39.6-78.9
			c-1.4-14.2,0.2-25.6,1.4-31.8c15.6-3.2,64.1-8.3,110.6,38.2C423.6,318.9,430.1,332,428.7,344z"/>
	</g>
</g>
<g>
	<g>
		<path class="st0" d="M358.6,356.6c-0.6-0.5-1.1-1.1-1.7-1.7c-4-4-10.4-4-14.4,0c-4,4-4,10.4,0,14.4c0.8,0.8,1.5,1.5,2.3,2.2
			c2,1.8,4.4,2.7,6.9,2.7c2.7,0,5.5-1.1,7.5-3.3C363,366.9,362.8,360.4,358.6,356.6z"/>
	</g>
</g>
<g>
	<g>
		<path class="st0" d="M401.7,355c-4-4-10.4-4-14.4,0c-4.8,4.8-8.5,7.4-11.9,8.5c-5.4,1.7-8.4,7.4-6.7,12.7c1.4,4.4,5.4,7.2,9.7,7.2
			c1,0,2-0.1,3-0.5c8.8-2.7,15.8-9,20.3-13.6C405.7,365.4,405.7,358.9,401.7,355z"/>
	</g>
</g>
</svg>
