<?xml version="1.0" encoding="utf-8"?>
<!-- Generator: Adobe Illustrator 23.0.3, SVG Export Plug-In . SVG Version: 6.00 Build 0)  -->
<svg version="1.1" id="Livello_1" xmlns="http://www.w3.org/2000/svg" xmlns:xlink="http://www.w3.org/1999/xlink" x="0px" y="0px"
	 viewBox="0 0 511 511" style="enable-background:new 0 0 511 511;" xml:space="preserve">
<style type="text/css">
	.st0{fill:#FF4500;}
</style>
<path class="st0" d="M371.8,372.3l-0.2,0.2c-3.9,3.9-3.9,10.2,0,14.1c1.9,1.9,4.5,2.9,7.1,2.9s5.1-1,7.1-2.9l0.3-0.3
	c3.9-3.9,3.8-10.2-0.1-14.1C382,368.4,375.7,368.4,371.8,372.3z"/>
<path class="st0" d="M488.6,58c-2.3-2.4-5.6-3.5-8.9-3c-3.3,0.5-6.1,2.7-7.4,5.7c-6.9,15-21.2,19.7-44,26c-18.8,5.2-40,11.1-56,28
	c-20.2,21.4-27.1,43.3-32.8,61c-3.4,10.7-6.4,20-11.5,27.3c-4.8,6.9-11.3,9.2-23.4,12.9c-14.3,4.4-32,9.9-51.6,28.5c0,0,0,0,0,0
	c-0.4,0.4-0.8,0.8-1.2,1.2c-0.4,0.4-0.8,0.8-1.2,1.2c0,0,0,0,0,0c-18.3,19.3-25.9,38.6-32.1,54.3c-4.9,12.6-8.8,22.5-16.5,27.9
	c-7.3,5.1-16.6,8-27.3,11.5c-17.7,5.6-39.6,12.6-61,32.8c-16.9,16-22.8,37.2-28,56c-6.3,22.8-10.9,37.1-26,44
	c-3,1.4-5.1,4.2-5.7,7.4c-0.5,3.3,0.6,6.6,3,8.9c17.8,16.8,41.4,22.4,64.5,22.4c29.9,0,58.9-9.4,72.6-15.8
	c28.7-13.3,42.1-26,55-38.2c7.3-7,14.3-13.5,24.2-20.6c6.6-4.7,15.8-6.4,27.5-8.5c14.1-2.6,31.6-5.8,50.6-16.1
	c4.8-2.6,6.7-8.7,4-13.5c-2.6-4.8-8.7-6.6-13.5-4c-16.3,8.8-31.4,11.6-44.7,14c-13,2.4-25.2,4.6-35.4,11.9
	c-11.1,7.9-18.8,15.2-26.3,22.3c-12.3,11.7-24,22.7-49.7,34.6c-17.5,8.1-70.4,24.2-104.5,4.7c13.8-12.4,18.8-30.5,23.7-48.2
	c4.7-17,9.6-34.7,22.5-46.8c18.1-17,36-22.7,53.3-28.3c11.8-3.7,22.9-7.3,32.7-14.1c12.7-8.8,18.1-22.5,23.7-37
	c5.9-15,12.6-32,28.8-48.7c16.6-16.1,31.4-20.7,44.6-24.7c12.9-4,25-7.7,33.9-20.6c6.8-9.8,10.3-20.9,14.1-32.7
	c5.5-17.4,11.2-35.3,28.3-53.3c12.2-12.9,29.8-17.8,46.8-22.5c17.7-4.9,35.9-9.9,48.2-23.7c19.5,34.1,3.4,86.9-4.7,104.4
	c-11.9,25.7-22.9,37.4-34.6,49.7c-7.1,7.5-14.5,15.3-22.3,26.3c-7.3,10.3-9.5,22.5-11.9,35.5c-2.4,13.3-5.2,28.4-13.9,44.6
	c-2.6,4.9-0.8,10.9,4,13.5c1.5,0.8,3.1,1.2,4.7,1.2c3.5,0,7-1.9,8.8-5.2c10.3-19,13.5-36.5,16-50.5c2.1-11.6,3.8-20.8,8.5-27.5
	c7.1-9.9,13.6-16.9,20.6-24.2c12.2-12.9,24.9-26.3,38.2-55C506.5,170.7,527.3,98.8,488.6,58z"/>
<path class="st0" d="M282.7,293.7c-3.9-3.9-10.2-3.9-14.1,0c-19.7,19.7-19.7,51.8,0,71.5c1.9,1.9,4.5,2.9,7.1,2.9
	c2.6,0,5.1-1,7.1-2.9c3.9-3.9,3.9-10.2,0-14.1c-11.9-11.9-11.9-31.3,0-43.2C286.6,304,286.6,297.6,282.7,293.7z"/>
<path class="st0" d="M147.5,409.5c-3.9-3.9-10.2-3.9-14.1,0C126,416.8,122,426.6,122,437c0,10.4,4,20.1,11.4,27.5
	c1.9,1.9,4.5,2.9,7.1,2.9c2.6,0,5.1-1,7.1-2.9c3.9-3.9,3.9-10.2,0-14.1c-7.4-7.4-7.4-19.3,0-26.7
	C151.4,419.7,151.4,413.4,147.5,409.5z"/>
<path class="st0" d="M408,157.3c-3.9-3.9-10.2-3.9-14.1,0c-6.6,6.6-10.3,15.4-10.3,24.8c0,9.4,3.6,18.2,10.3,24.8
	c1.9,1.9,4.5,2.9,7.1,2.9c2.6,0,5.1-1,7.1-2.9c3.9-3.9,3.9-10.2,0-14.1c-2.9-2.8-4.4-6.6-4.4-10.7c0-4,1.6-7.8,4.4-10.7
	C411.9,167.5,411.9,161.2,408,157.3z"/>
<path class="st0" d="M118,255.4c0-30.6-26.5-55.4-59-55.4S0,224.8,0,255.4s26.5,55.4,59,55.4S118,285.9,118,255.4z M20,255.4
	c0-16.4,12.4-30.3,29.1-34.3v2.7c0,5.5,4.5,10,10,10c5.5,0,10-4.5,10-10v-2.7c16.7,4,29.1,17.9,29.1,34.3
	c0,19.6-17.5,35.5-39.1,35.5C37.5,290.8,20,274.9,20,255.4z"/>
<path class="st0" d="M204.6,174.3c15.2,0,30.8-6.1,42.8-18c23-23,24.2-59.3,2.5-80.9S192,54.9,169,77.9s-24.2,59.3-2.5,80.9
	C176.8,169.2,190.6,174.3,204.6,174.3z M235.8,89.4c13.8,13.8,12.7,37.5-2.5,52.7c-15.2,15.2-38.9,16.4-52.7,2.5
	c-11.6-11.6-12.7-30.1-3.7-44.8l1.9,1.9c1.9,1.9,4.5,2.9,7.1,2.9c2.6,0,5.1-1,7.1-2.9c3.9-3.9,3.9-10.2,0-14.1l-1.9-1.9
	c6.5-4,13.7-6,20.8-6C220.7,79.8,229.4,83,235.8,89.4z"/>
<path class="st0" d="M53.6,115.4c15.2,0,30.8-6.1,42.8-18c23-23,24.2-59.3,2.5-80.9C77.4-5.1,41.1-4,18.1,19
	c-23,23-24.2,59.3-2.5,80.9C25.9,110.3,39.6,115.4,53.6,115.4z M32.2,33.1c7.5-7.5,17.2-11.8,27.3-12.2c0.5,0,1,0,1.4,0
	c9.3,0,17.7,3.4,24,9.7c11.6,11.6,12.7,30.1,3.7,44.8l-1.9-1.9c-3.9-3.9-10.2-3.9-14.1,0c-3.9,3.9-3.9,10.2,0,14.1l1.9,1.9
	c-5.9,3.6-12.5,5.7-19.4,6c-9.8,0.4-18.8-3.1-25.4-9.6C15.8,72,17,48.4,32.2,33.1z"/>
</svg>
