<?xml version="1.0" encoding="utf-8"?>
<!-- Generator: Adobe Illustrator 23.0.3, SVG Export Plug-In . SVG Version: 6.00 Build 0)  -->
<svg version="1.1" id="Capa_1" xmlns="http://www.w3.org/2000/svg" xmlns:xlink="http://www.w3.org/1999/xlink" x="0px" y="0px"
	 viewBox="0 0 512 512" style="enable-background:new 0 0 512 512;" xml:space="preserve">
<style type="text/css">
	.st0{fill:#FF4500;}
</style>
<path class="st0" d="M468.7,141.7c-0.6-0.4-8.1-5.6-18.4-9.7c9.9-18.8,5-44.6,4.8-45.8c-0.8-4-4.6-6.7-8.6-6
	c-1.3,0.2-30.9,5.6-43.9,24.4c-2.4,3.6-4,7.5-4.6,11.7c-8.1-9.6-17.1-15.7-17.7-16.2c-3.4-2.3-8-1.4-10.3,1.9
	c-0.5,0.7-10,14.4-13.3,30.6c-3.3-1.6-7.3-0.6-9.4,2.4c-0.5,0.7-10,14.4-13.3,30.6c-3.3-1.6-7.3-0.6-9.4,2.4
	c-0.5,0.7-10,14.4-13.3,30.6c-3.3-1.6-7.3-0.6-9.4,2.4c-0.5,0.7-10,14.4-13.3,30.6c-3.3-1.6-7.3-0.6-9.4,2.4
	c-0.7,1-17.9,25.8-13.8,48.3c0.8,4.1,4.7,6.8,8.7,6c4.1-0.8,6.8-4.7,6-8.7c-1.8-9.9,3-22.1,7.2-30.2c6.8,6,15.6,15.6,17.5,25.6
	c0.7,3.6-0.3,7.1-2.5,10.1l-45.8,66.5c-5.2,7.5-9.5,15.4-13,23.7c-3.4-17.3-8.9-34.1-16.4-50l-49.7-104.1c-0.8-1.6-3.1-6.3-4.4-9.5
	c-1.5-3.6-2.6-7.3-1.3-10.9c3.4-9.5,13.6-17.7,21.3-22.6c2.9,8.6,5.7,21.4,2.4,30.9c-1.4,3.9,0.7,8.2,4.6,9.6
	c3.9,1.4,8.2-0.7,9.6-4.6c7.6-21.6-5.4-48.7-6-49.9c-1.6-3.4-5.5-4.9-8.9-3.9c-0.7-16.5-8-31.5-8.3-32.3c-1.6-3.4-5.5-4.9-8.9-3.9
	c-0.7-16.5-8-31.5-8.3-32.3c-1.6-3.4-5.5-4.9-8.9-3.9c-0.7-16.5-8-31.5-8.3-32.3c-1.6-3.4-5.5-4.9-8.9-3.9
	c-0.7-16.5-8-31.5-8.3-32.3c-1.8-3.7-6.2-5.2-9.9-3.5c-0.6,0.3-8.9,4.2-17.6,11.2c-11.3-18-36.2-26.6-37.3-27
	c-3.9-1.3-8.1,0.7-9.5,4.5c-0.4,1.2-10.6,29.6-0.7,50.2c1.9,4,4.6,7.3,7.9,9.8c-12.4,2.2-22.2,6.9-22.9,7.3
	c-3.7,1.8-5.2,6.2-3.5,9.9c0.4,0.8,7.5,15.9,19.9,26.8c-3,2-4.2,6-2.6,9.4c0.4,0.8,7.5,15.9,19.9,26.8c-3,2-4.2,6-2.6,9.4
	c0.4,0.8,7.5,15.9,19.9,26.8c-3,2-4.2,6-2.6,9.4c0.4,0.8,7.5,15.9,19.9,26.8c-3,2-4.2,6-2.6,9.4c0.5,1.2,13.4,28.4,35,36
	c3,1.1,6.1,1.6,9.2,1.6c8.5,0,16.7-4,21.9-10.8l37.4,78.4c12.2,25.5,18.7,54,18.8,82.3l0.2,90.3c0,4.1,3.4,7.5,7.5,7.5
	s7.5-3.4,7.5-7.5v-75.7c0-24.6,7.4-48.3,21.3-68.5l41.5-60.2c2,3.8,5,7.1,8.6,9.6c4.6,3.2,10,4.9,15.6,4.9c1.7,0,3.4-0.2,5-0.5
	c22.5-4.2,39.5-29,40.2-30.1c2.1-3.1,1.6-7.2-1.1-9.7c13.9-8.8,23.3-22.6,23.8-23.3c2.1-3.1,1.6-7.2-1.1-9.7
	c13.9-8.8,23.3-22.6,23.8-23.3c2.1-3.1,1.6-7.2-1.1-9.7c13.9-8.8,23.3-22.6,23.8-23.3c2.1-3.1,1.6-7.2-1.1-9.7
	c13.9-8.8,23.3-22.6,23.8-23.3C472.9,148.6,472.1,144,468.7,141.7L468.7,141.7z M158.2,106.1c2.4,7.1,5.2,18.1,3.3,27.6
	c-4.3,3.1-8.8,7.1-12.8,11.7c-1.4,0-2.8-0.2-4.1-0.7c-3.2-1.1-5.7-3.4-7.1-6.4c-1.4-3-1.6-6.4-0.5-9.6
	C140.3,119.1,150.5,110.9,158.2,106.1L158.2,106.1z M141,69.9c2.4,7.1,5.2,18.1,3.3,27.6c-4.3,3.1-8.8,7.1-12.8,11.7
	c-1.4,0-2.8-0.2-4.1-0.7c-6.5-2.3-9.9-9.5-7.6-16C123.1,82.9,133.3,74.7,141,69.9z M102.4,56.3c3.4-9.5,13.6-17.7,21.3-22.5
	c2.4,7.1,5.2,18.1,3.3,27.6c-4.3,3.1-8.8,7.1-12.8,11.7c-1.4,0-2.8-0.2-4.1-0.7c-3.2-1.1-5.7-3.4-7.1-6.4S101.3,59.4,102.4,56.3z
	 M71.9,17.7c8.1,4,19.3,11.6,23.8,20.6c-3.1,3.9-5.7,8.2-7.4,13c-0.5,1.4-0.9,2.8-1.1,4.2c-5.7,1.4-11.7-1.3-14.4-6.8
	C68.5,39.6,69.9,26.6,71.9,17.7z M58.3,82.7c8.6-2.9,21.3-5.7,30.9-2.4c6.5,2.3,9.9,9.5,7.6,16c-0.5,1.3-1.2,2.6-2,3.7
	c-6.1,0.2-12,1.3-17.1,2.6C69.1,98.2,62.2,89.1,58.3,82.7z M75.5,118.9c8.6-2.9,21.3-5.7,30.9-2.4c6.5,2.3,9.9,9.5,7.6,16
	c-0.5,1.3-1.2,2.6-2,3.7c-6.1,0.2-12,1.3-17.1,2.6C86.3,134.4,79.5,125.3,75.5,118.9z M92.8,155.1c8.6-2.9,21.3-5.7,30.9-2.4
	c6.5,2.3,9.9,9.5,7.6,16c-0.5,1.3-1.2,2.6-2,3.7c-6.1,0.2-12,1.3-17.1,2.6C103.6,170.5,96.8,161.4,92.8,155.1z M110.1,191.2
	c8.6-2.9,21.3-5.7,30.9-2.4c3.2,1.1,5.7,3.4,7.1,6.4c1.4,3,1.6,6.4,0.5,9.6c-0.5,1.3-1.2,2.6-2,3.7c-6.1,0.2-12,1.3-17.1,2.6
	C120.9,206.7,114.1,197.6,110.1,191.2L110.1,191.2z M165.9,241c-2.3,6.5-9.5,9.9-16,7.6c-9.5-3.4-17.7-13.6-22.6-21.3
	c8.6-2.9,21.4-5.7,30.9-2.4C164.8,227.3,168.2,234.5,165.9,241L165.9,241z M166,181.5c-1.4,0-2.8-0.2-4.1-0.7
	c-6.5-2.3-9.9-9.5-7.6-16c3.4-9.5,13.6-17.7,21.3-22.6c2.6,7.6,5.1,18.5,3.3,27.6C174.5,172.9,170,176.9,166,181.5z M414.9,113.2
	c5.7-8.3,17.7-13.6,26.4-16.2c0.6,9.1-0.3,22.6-6,30.9c-4.9-0.7-10-0.9-14.9,0c-1.4,0.3-2.8,0.6-4.2,1.1c-1.7-1.8-2.8-4-3.3-6.4
	C412.3,119.3,413,116,414.9,113.2L414.9,113.2z M378.2,117.6c6.8,6,15.6,15.7,17.5,25.6c1.3,6.8-3.3,13.4-10.1,14.6
	c-1.4,0.3-2.8,0.3-4.2,0.1c-3.2-5.2-7.1-9.8-10.8-13.6C370.2,134.7,374.6,124.2,378.2,117.6L378.2,117.6z M355.4,150.6
	c6.8,6,15.6,15.7,17.5,25.6c0.6,3.3-0.1,6.6-2,9.4s-4.8,4.6-8.1,5.2c-1.4,0.3-2.8,0.3-4.2,0.1c-0.7-1.1-1.4-2.2-2.2-3.3
	c-2.7-3.8-5.7-7.3-8.6-10.3C347.4,167.6,351.9,157.2,355.4,150.6L355.4,150.6z M332.7,183.6c3.5,3.1,8,7.4,11.5,12.5
	c3.2,4.5,5.2,8.9,5.9,13c0.6,3.3-0.1,6.6-2,9.4s-4.8,4.6-8.1,5.2c-1.4,0.3-2.8,0.3-4.2,0.1c-3.2-5.2-7.1-9.8-10.8-13.6
	C324.7,200.7,329.2,190.3,332.7,183.6L332.7,183.6z M317.4,256.8c-1.4,0.3-2.8,0.3-4.2,0.1c-3.2-5.2-7.1-9.8-10.8-13.6
	c-0.4-9.7,4-20.1,7.6-26.7c6.8,6,15.6,15.6,17.5,25.6c0.6,3.3-0.1,6.6-2,9.4C323.5,254.4,320.7,256.2,317.4,256.8L317.4,256.8z
	 M336.7,299.4c-3.3,0.6-6.6-0.1-9.4-2c-2.8-1.9-4.6-4.8-5.2-8.1c-1.3-6.8,3.3-13.4,10.1-14.6c9.9-1.8,22.1,2.9,30.2,7.2
	C356.3,288.7,346.7,297.5,336.7,299.4z M362.8,265.5c-4.8-2.1-10.5-4.1-16.5-5.2c-0.7-1.2-1.2-2.5-1.4-3.9c-0.6-3.3,0.1-6.6,2-9.4
	s4.8-4.6,8.1-5.2c9.9-1.8,22.1,2.9,30.1,7.2C380.1,254.5,372,262.4,362.8,265.5L362.8,265.5z M385.5,232.5
	c-4.8-2.1-10.5-4.1-16.5-5.2c-0.7-1.2-1.2-2.5-1.4-3.9c-0.6-3.3,0.1-6.6,2-9.4s4.8-4.6,8.1-5.2c9.9-1.8,22.1,2.9,30.1,7.2
	C402.9,221.5,394.7,229.4,385.5,232.5L385.5,232.5z M408.3,199.5c-4.8-2.1-10.5-4.1-16.5-5.2c-0.7-1.2-1.2-2.5-1.4-3.9
	c-0.6-3.3,0.1-6.6,2-9.4s4.8-4.6,8.1-5.2c9.9-1.8,22.1,2.9,30.1,7.2C425.6,188.5,417.5,196.4,408.3,199.5L408.3,199.5z M431,166.5
	c-4.8-2.1-10.5-4.1-16.5-5.2c-0.7-1.2-1.2-2.5-1.4-3.9c-0.6-3.3,0.1-6.6,2-9.4c1.9-2.8,4.8-4.6,8.1-5.2c9.9-1.8,22.1,2.9,30.2,7.2
	C448,155.9,439.8,163.5,431,166.5L431,166.5z"/>
</svg>
