<svg id="apple" height="512" viewBox="0 0 512 512" width="512" >
<path d="m391.874 132.286c-23.088 23.088-57.899 27.353-85.301 12.764-14.579-27.392-10.314-62.203 12.774-85.291 22.258-22.258 55.41-27.022 82.307-14.274 1.966.932 3.553 2.519 4.485 4.484 12.757 26.906 7.993 60.059-14.265 82.317z" fill="#27e19d"/><path id="XMLID_2668_" d="m391.88 132.287c-21.851 21.851-54.213 26.838-80.839 14.94 22.728 3.926 45.336-1.733 61.131-17.529 22.756-22.756 24.475-59.66 6.812-90.692 7.784.901 15.453 3.062 22.672 6.483 1.963.93 3.547 2.517 4.478 4.48 12.762 26.901 8.004 60.06-14.254 82.318z" fill="#1ec186"/><path id="XMLID_1168_" d="m292.453 152.222h24.884c-2.056-50.389-37.398-84.003-47.676-92.745-1.645-1.399-3.956-1.686-5.893-.734l-24.452 12.011c-3.629 1.782-4.099 6.763-.863 9.187 14.023 10.508 44.084 36.482 54 72.281z" fill="#fcc16d"/><path id="XMLID_1170_" d="m504.5 306.475c0 92.25-56.28 167.03-125.72 167.03-14.46 0-28.36-3.25-41.28-9.22-6.87-3.17-14.22-4.75-21.57-4.75s-14.71 1.58-21.57 4.75c-12.92 5.97-26.82 9.22-41.28 9.22-10.95 0-21.57-1.86-31.69-5.35-52.81-18.22-92.12-80.88-93.96-156.14-.05-1.84-.07-3.69-.07-5.54 0-92.25 56.28-167.02 125.72-167.02 11.44 0 37.14 6 62.85 6 25.7 0 51.41-6 62.85-6 69.44 0 125.72 74.77 125.72 167.02z" fill="#fb6672"/><path id="XMLID_1171_" d="m281.23 376.515c0 31.05-15.67 59.95-44.12 81.37-4.96 3.73-10.22 7.16-15.72 10.27-52.81-18.22-92.12-80.88-93.96-156.14h125.66c12.63 0 23.04 9.91 23.69 22.55.12 2.26.29 4.66.52 7.14.58 6.18 1.41 12.15 2.15 17.43 1 7.11 1.78 12.73 1.78 17.38z" fill="#fb4a59"/><path id="XMLID_1172_" d="m504.5 306.474c0 92.255-56.281 167.033-125.717 167.033-14.465 0-28.361-3.251-41.286-9.223-6.863-3.171-14.215-4.752-21.568-4.752s-14.706 1.581-21.568 4.752c-3.241 1.501-6.532 2.821-9.884 3.971 6.402-47.638 10.114-104.099 10.114-164.612 0-58.752-3.491-113.683-9.564-160.431 9.624 1.21 20.268 2.241 30.902 2.241 25.7 0 51.409-6.002 62.854-6.002 69.436 0 125.717 74.778 125.717 167.023z" fill="#fb4a59"/><path id="XMLID_1173_" d="m504.5 306.474c0 92.255-56.281 167.033-125.717 167.033-14.465 0-28.361-3.251-41.286-9.223-.63-.29-1.26-.57-1.891-.83-6.312-2.621-12.995-3.921-19.677-3.921v-314.08c6.643 0 13.285-.4 19.677-1 18.357-1.701 34.693-5.002 43.176-5.002 69.437 0 125.718 74.778 125.718 167.023z" fill="#ffeed3"/><path id="XMLID_1174_" d="m504.5 306.474c0 92.255-56.281 167.033-125.717 167.033-5.422 0-10.754-.45-15.996-1.34 61.883-10.434 109.721-80.64 109.721-165.693 0-84.672-47.418-154.628-108.901-165.542 6.242-.85 11.464-1.481 15.176-1.481 69.436 0 125.717 74.778 125.717 167.023z" fill="#fddaa9"/><path id="XMLID_1175_" d="m335.606 144.453v319c-6.312-2.621-12.995-3.921-19.677-3.921v-314.079c6.642 0 13.285-.4 19.677-1z" fill="#fddaa9"/><path id="XMLID_1176_" d="m379.143 306.894c0 28.031-18.257 51.81-43.536 60.073-6.192 2.031-12.805 3.131-19.677 3.131v-126.418c6.873 0 13.485 1.1 19.677 3.131 25.279 8.264 43.536 32.043 43.536 60.083z" fill="#fccd8a"/><path id="XMLID_1177_" d="m335.606 246.811v120.155c-6.192 2.031-12.805 3.131-19.677 3.131v-126.417c6.872 0 13.485 1.101 19.677 3.131z" fill="#fcb44d"/><path id="XMLID_2655_" d="m136.371 473.507c-71.177 0-128.871-43.423-128.871-96.995 0-11.161 2.508-21.881 7.116-31.853.224-.486.44-.973.641-1.459 1.187-2.859 2.023-5.816 2.511-8.814.601-3.693 3.854-6.368 7.596-6.368h227.728c4.127 0 7.496 3.249 7.708 7.37.136 2.638.334 5.251.575 7.811 1.312 14.163 3.859 26.767 3.859 33.312 0 53.573-57.694 96.996-128.863 96.996z" fill="#ffeed3"/><path id="XMLID_1184_" d="m265.234 376.516c0 53.57-57.692 96.987-128.869 96.987-4.892 0-9.714-.2-14.465-.61 64.354-5.412 114.383-46.488 114.383-96.376 0-6.552-2.541-19.157-3.861-33.313-.24-2.561-.43-5.172-.57-7.813-.21-4.122-3.581-7.373-7.713-7.373h28.951c4.132 0 7.503 3.251 7.713 7.373.13 2.641.33 5.252.57 7.813 1.311 14.155 3.861 26.76 3.861 33.312z" fill="#fddaa9"/><path id="XMLID_2653_" d="m136.047 376.79c-21.626 0-39.973-14.086-46.348-33.59-1.567-4.778-2.416-9.879-2.416-15.182h97.535c0 5.302-.849 10.404-2.416 15.182-6.375 19.504-24.721 33.59-46.355 33.59z" fill="#fccd8a"/><path id="XMLID_638_" d="m479.671 192.39c-2.279-3.459-6.93-4.415-10.389-2.136-3.458 2.279-4.416 6.93-2.136 10.389 19.251 29.221 29.854 66.806 29.854 105.834 0 87.964-53.03 159.529-118.214 159.529-13.059 0-25.894-2.871-38.148-8.532-5.517-2.549-11.322-4.182-17.209-4.94v-75.338c35.478-3.758 63.214-33.849 63.214-70.302 0-36.458-27.736-66.554-63.214-70.312v-83.789c13.297-.528 26.099-2.315 36.711-3.801 7.827-1.096 14.586-2.043 18.646-2.043 23.99 0 47.115 9.709 66.875 28.079 3.033 2.82 7.779 2.647 10.6-.387 2.82-3.034 2.647-7.779-.387-10.6-16.677-15.503-35.575-25.602-55.531-29.828 21.219-23.834 26.355-58.387 12.573-87.458-1.67-3.521-4.529-6.38-8.05-8.048-18.492-8.765-39.432-10.109-58.96-3.785-3.941 1.276-6.101 5.505-4.825 9.446s5.506 6.102 9.446 4.825c15.875-5.142 32.892-4.052 47.916 3.069.402.19.729.518.92.919 11.737 24.755 6.596 54.414-12.791 73.801-1.772 1.771-3.656 3.441-5.609 4.993-.725-.015-1.449-.027-2.176-.027-5.105 0-11.999.965-20.727 2.188-9.809 1.374-21.558 3.018-33.565 3.598l52.436-52.436c2.929-2.929 2.929-7.678 0-10.606-2.929-2.929-7.678-2.929-10.606 0l-46.729 46.729c-3.064-10.019-7.209-19.092-11.788-27.141 2.812-10.565 8.277-20.286 15.889-28.222 2.867-2.989 2.769-7.737-.221-10.604s-7.737-2.769-10.604.221c-6.436 6.711-11.618 14.464-15.36 22.878-9.298-12.466-18.472-20.947-22.99-24.79-3.918-3.333-9.437-4.021-14.06-1.753l-24.452 12.011c-4.066 1.997-6.746 5.88-7.167 10.389-.421 4.506 1.489 8.817 5.112 11.532 9.296 6.966 30.403 24.515 43.327 48.68-1.183-.164-2.351-.327-3.484-.486-8.727-1.222-15.62-2.188-20.726-2.188-35.993 0-69.69 18.436-94.886 51.912-24.717 32.839-38.329 76.385-38.329 122.617 0 4.679.154 9.377.437 14.042h-94.931c-7.495 0-13.803 5.325-14.999 12.663-.398 2.446-1.083 4.849-2.041 7.158-.163.396-.34.791-.516 1.174-5.18 11.211-7.807 22.987-7.807 34.998 0 28.323 14.466 54.809 40.734 74.579 25.631 19.292 59.596 29.916 95.637 29.916 23.491 0 46.098-4.517 66.092-13.004 16.051 8.621 33.064 13.003 50.609 13.003 15.247 0 30.198-3.336 44.439-9.915 11.706-5.407 25.132-5.407 36.836 0 14.241 6.579 29.192 9.915 44.439 9.915 35.992 0 69.69-18.436 94.885-51.912 24.717-32.839 38.329-76.385 38.329-122.617 0-41.927-11.481-82.444-32.329-114.087zm-108.028 114.504c0 28.171-21.029 51.509-48.214 55.185v-110.379c27.184 3.676 48.214 27.018 48.214 55.194zm-125.996-230.895 20.19-9.917c9.603 8.397 35.39 34.012 42.336 71.688-4.466-.198-8.897-.545-13.215-.977-12.201-28.595-34.983-49.643-49.311-60.794zm-69.025 259.52c-3.539 19.187-20.381 33.771-40.576 33.771-20.192 0-37.03-14.584-40.568-33.771zm114.598 121.955c-12.254 5.661-25.089 8.532-38.148 8.532-11.489 0-22.738-2.21-33.586-6.565 4.357-2.57 8.537-5.355 12.515-8.349 26.267-19.771 40.732-46.257 40.732-74.579 0-4.05-.75-9.412-1.7-16.2-.751-5.366-1.602-11.449-2.191-17.814-.244-2.596-.43-5.118-.552-7.494-.417-8.123-7.093-14.485-15.198-14.485h-14.894c-4.142 0-7.5 3.358-7.5 7.5s3.358 7.5 7.5 7.5h14.894c.117 0 .21.11.218.256.133 2.587.334 5.322.598 8.118.621 6.703 1.498 12.97 2.271 18.499.834 5.964 1.555 11.115 1.555 14.121 0 49.348-54.443 89.495-121.363 89.495-66.924-.002-121.371-40.149-121.371-89.497 0-9.823 2.162-19.482 6.43-28.72.266-.577.521-1.154.753-1.716 1.397-3.366 2.402-6.894 2.981-10.471 0-.001.064-.086.199-.086h54.935c3.68 27.493 27.269 48.771 55.749 48.771 28.484 0 52.076-21.278 55.756-48.771h10.999c4.142 0 7.5-3.358 7.5-7.5s-3.358-7.5-7.5-7.5h-67.486c-.302-4.659-.459-9.361-.459-14.042 0-87.964 53.031-159.529 118.214-159.529 4.061 0 10.819.947 18.645 2.042 10.612 1.486 23.411 3.274 36.712 3.802v299.742c-5.886.759-11.691 2.392-17.208 4.94z"/><path id="XMLID_554_" d="m342.102 317.235c4.142 0 7.5-3.358 7.5-7.5v-12.186c0-4.142-3.358-7.5-7.5-7.5s-7.5 3.358-7.5 7.5v12.186c0 4.142 3.357 7.5 7.5 7.5z"/><path id="XMLID_549_" d="m133.855 355.712h9.402c4.142 0 7.5-3.358 7.5-7.5s-3.358-7.5-7.5-7.5h-9.402c-4.142 0-7.5 3.358-7.5 7.5s3.358 7.5 7.5 7.5z"/>
</svg>