<svg id="Capa_1" enable-background="new 0 0 512.046 512.046" height="512" viewBox="0 0 512.046 512.046" width="512" xmlns="http://www.w3.org/2000/svg"><path id="XMLID_1129_" d="m430.38 250.686c-38.181-17.804-80.789-14.487-114.67 5.146-38.574 6.739-73.346 31.586-91.151 69.767-28.943 62.067-2.09 135.845 59.978 164.787 38.181 17.804 80.789 14.487 114.671-5.146 38.574-6.738 73.346-31.586 91.15-69.767 28.942-62.068 2.089-135.845-59.978-164.787z" fill="#f5737f"/><path id="XMLID_1170_" d="m265.354 290.348c-29.789-29.789-70.962-41.245-109.515-34.384-38.553-6.861-79.726 4.595-109.515 34.384-48.425 48.425-48.425 126.938 0 175.362 29.789 29.789 70.962 41.245 109.515 34.384 38.552 6.861 79.726-4.595 109.515-34.384 48.425-48.424 48.425-126.937 0-175.362z" fill="#f6838d"/><ellipse id="XMLID_1076_" cx="189.777" cy="66.06" fill="#cbe558" rx="115.843" ry="37.969" transform="matrix(.966 -.259 .259 .966 -10.631 51.369)"/><path id="XMLID_156_" d="m503.895 317.237c-12.242-33.634-36.849-60.488-69.288-75.614-36.514-17.026-78.67-16.611-114.723.706-32.272-61.487-36.264-133.146-10.677-198.138l1.771-4.498c.46-1.167.695-2.409.695-3.663v-26c0-5.523-4.478-10-10-10s-10 4.477-10 10v11.952c-37.107-11.61-76.334-12.43-114.311-2.256-42.662 11.431-79.762 35.661-107.289 70.07-1.986 2.483-2.674 5.764-1.851 8.835s3.058 5.569 6.021 6.726c24.059 9.399 49.211 14.125 74.507 14.125 13.683 0 27.407-1.396 41.018-4.171-26.347 38.055-41.536 82.787-43.668 129.285-39.399-3.547-78.643 10.477-106.847 38.68-13.476 13.476-23.724 29.269-30.46 46.94-1.968 5.161.621 10.939 5.781 12.906 5.162 1.966 10.939-.621 12.906-5.782 5.727-15.021 14.445-28.453 25.915-39.922 26.328-26.328 63.972-38.145 100.691-31.61 1.158.206 2.346.206 3.504 0 36.728-6.536 74.364 5.283 100.691 31.61 21.532 21.531 33.391 50.159 33.391 80.61s-11.858 59.079-33.391 80.61c-26.329 26.329-63.968 38.146-100.691 31.61-1.158-.206-2.346-.206-3.504 0-36.719 6.534-74.363-5.281-100.691-31.61-11.463-11.462-20.179-24.886-25.906-39.899-1.968-5.16-7.746-7.748-12.907-5.779-5.16 1.969-7.747 7.748-5.778 12.908 6.737 17.662 16.982 33.445 30.449 46.913 30.528 30.527 73.991 44.458 116.586 37.458 7.253 1.192 14.526 1.778 21.761 1.777 28.655-.002 56.64-9.187 79.714-26.227 7.165 5.281 14.869 9.868 22.997 13.658 17.964 8.376 37.292 12.534 56.588 12.534 22.733 0 45.424-5.771 65.778-17.209 42.42-7.99 78.499-35.946 96.744-75.074 15.126-32.439 16.715-68.827 4.474-102.461zm-408.825-225.8c23.633-25.32 53.608-43.32 87.468-52.393 33.86-9.074 68.82-8.474 101.946 1.64-23.631 25.32-53.607 43.32-87.468 52.393-33.862 9.071-68.82 8.471-101.946-1.64zm71.064 153.111c2.568-51.227 22.363-100.074 56.415-138.742 20.754-7.908 39.893-19.027 56.893-33.009-5.931 25.491-8.045 51.908-6.112 77.946 2.527 34.067 11.988 67.758 27.484 98.242-15.674 4.396-30.448 11.597-43.539 21.255-26.139-19.287-58.569-28.485-91.141-25.692zm315.16 166.698c-15.735 33.745-47.065 57.724-83.808 64.142-1.16.203-2.274.608-3.293 1.199-32.272 18.701-71.686 20.471-105.431 4.735-5.544-2.585-10.857-5.599-15.885-9.003 25.02-25.256 38.795-58.712 38.795-94.289 0-35.59-13.786-69.058-38.823-94.317 13.359-9.057 28.572-15.233 44.581-18.03 1.16-.203 2.274-.608 3.293-1.199 32.273-18.701 71.686-20.472 105.43-4.735 27.598 12.869 48.532 35.715 58.947 64.329s9.063 59.571-3.806 87.168z"/><path id="XMLID_159_" d="m155.839 305.298c5.522 0 10-4.477 10-10s-4.478-10-10-10c-7.104 0-13.957-2.571-19.298-7.241-4.157-3.635-10.474-3.212-14.11.946-3.635 4.158-3.212 10.475.946 14.11 8.986 7.858 20.515 12.185 32.462 12.185z"/><path id="XMLID_160_" d="m333.113 273.233c-4.617 4.617-10.755 7.177-17.283 7.208-5.522.027-9.978 4.526-9.951 10.049.027 5.506 4.499 9.951 9.999 9.951h.05c11.833-.058 22.958-4.698 31.326-13.065 3.905-3.905 3.906-10.237.001-14.143-3.902-3.903-10.235-3.905-14.142 0z"/><path id="XMLID_161_" d="m17.08 385.11c1.859-1.86 2.92-4.43 2.92-7.07 0-2.63-1.061-5.21-2.92-7.07-1.86-1.86-4.44-2.93-7.08-2.93-2.63 0-5.21 1.07-7.07 2.93-1.859 1.86-2.93 4.44-2.93 7.07s1.07 5.21 2.93 7.07c1.87 1.87 4.44 2.93 7.07 2.93 2.64-.001 5.21-1.061 7.08-2.93z"/></svg>