<?xml version="1.0"?>
<svg xmlns="http://www.w3.org/2000/svg" id="filled_outline" data-name="filled outline" viewBox="0 0 64 64" width="512" height="512"><path d="M57,27V25.48528a6,6,0,0,0-1.75736-4.24264L53,19H50V31h7Z" style="fill:#4bbf6b"/><path d="M7,27V25.48528a6,6,0,0,1,1.75736-4.24264L11,19h3V31H7Z" style="fill:#4bbf6b"/><path d="M14,41l-3.85643-2.14246A10,10,0,0,1,5,30.116V29a2,2,0,0,1,2-2h.52786a2,2,0,0,1,.89443.21115L12,29h5V41Z" style="fill:#4ec66f"/><path d="M52,29l3.57771-1.78885A2,2,0,0,1,56.47214,27H57a2,2,0,0,1,2,2v1.116a10,10,0,0,1-5.14357,8.74157L50,41H47V29Z" style="fill:#4ec66f"/><path d="M39,20H25V10l2.84832-4.98456A4,4,0,0,1,31.32129,3h1.35742a4,4,0,0,1,3.473,2.01544L39,10Z" style="fill:#49b968"/><rect x="25" y="47" width="14" height="15" style="fill:#49b968"/><path d="M39,31V19.20465a10,10,0,0,0-1.86267-5.81238l-2.5391-3.55475A2,2,0,0,0,32.97076,9H31.02924a2,2,0,0,0-1.62747.83752l-2.5391,3.55475A10,10,0,0,0,25,19.20465V31Z" style="fill:#52d276"/><path d="M17,25V16.68375a10,10,0,0,1,3.59816-7.68221l2.12371-1.76976A1,1,0,0,1,23.36205,7H24a1,1,0,0,1,1,1V25Z" style="fill:#4ec66f"/><path d="M40,62V60.82843a2,2,0,0,1,.58579-1.41422l.82842-.82842A2,2,0,0,0,42,57.17157V57a2,2,0,0,0-2-2H36.82843a2,2,0,0,0-1.41422.58579L34,57v5Z" style="fill:#4ec66f"/><path d="M24,62V57.82843a2,2,0,0,0-.58579-1.41422l-.82842-.82842A2,2,0,0,1,22,54.17157V54a2,2,0,0,1,2-2h3.17157a2,2,0,0,1,1.41422.58579L30,54v8Z" style="fill:#50cc73"/><path d="M47,25V16.68375a10,10,0,0,0-3.59816-7.68221L41.27813,7.23178A1,1,0,0,0,40.63795,7H40a1,1,0,0,0-1,1V25Z" style="fill:#4ec66f"/><path d="M15,33l-1.07093-1.07075a10,10,0,0,1-2.92954-7.07219l.00036-6.85717a2,2,0,0,1,2-1.99989H14a2,2,0,0,1,1.6.8L21,24V37H15Z" style="fill:#52d276"/><path d="M43,24l5.4-7.2A2,2,0,0,1,50,16h1.00011a2,2,0,0,1,2,1.99989l.00036,6.85717a10,10,0,0,1-2.92954,7.07219L49,33v4H43Z" style="fill:#52d276"/><path d="M32,42V31.20465a10,10,0,0,0-1.86267-5.81238l-2.5391-3.55475A2,2,0,0,0,25.97076,21H24.02924a2,2,0,0,0-1.62747.83752l-2.5391,3.55475A10,10,0,0,0,18,31.20465V42Z" style="fill:#55d97a"/><path d="M32,42V31.20465a10,10,0,0,1,1.86267-5.81238l2.5391-3.55475A2,2,0,0,1,38.02924,21h1.94152a2,2,0,0,1,1.62747.83752l2.5391,3.55475A10,10,0,0,1,46,31.20465V42Z" style="fill:#55d97a"/><path d="M23.97052,45H18a4,4,0,0,1-4-4V35a2,2,0,0,1,2-2h.86762a2,2,0,0,1,1.715.971L24,43Z" style="fill:#52d276"/><path d="M40,45h6a4,4,0,0,0,4-4V35a2,2,0,0,0-2-2h-.86762a2,2,0,0,0-1.715.971L40,43Z" style="fill:#52d276"/><path d="M23,44v-.34315a4,4,0,0,1,1.17157-2.82842l5.24264-5.24264A2,2,0,0,1,30.82843,35h2.34314a2,2,0,0,1,1.41422.58579l5.24264,5.24264A4,4,0,0,1,41,43.65685V44a4,4,0,0,1-4,4H27A4,4,0,0,1,23,44Z" style="fill:#5ae581"/><path d="M58,26.18427v-.69892a6.95405,6.95405,0,0,0-2.05029-4.94971L54.00006,18.586,54,18a3.00328,3.00328,0,0,0-3-3H50a3.00223,3.00223,0,0,0-2.04694.82947A10.95528,10.95528,0,0,0,44.042,8.2334L41.919,6.46387A2.00533,2.00533,0,0,0,40.63818,6H40a1.997,1.997,0,0,0-1.64136.86224L37.02,4.51953A5.01128,5.01128,0,0,0,32.67871,2H31.32129A5.01128,5.01128,0,0,0,26.98,4.51953L25.64136,6.86224A1.997,1.997,0,0,0,24,6h-.63818a2.003,2.003,0,0,0-1.28028.46387L19.958,8.2334a10.95543,10.95543,0,0,0-3.91107,7.5957A3.00319,3.00319,0,0,0,14,15H13a3.00328,3.00328,0,0,0-3,3l-.00006.586L8.05029,20.53564A6.95405,6.95405,0,0,0,6,25.48535v.69892A2.99507,2.99507,0,0,0,4,29v1.11572a11.00527,11.00527,0,0,0,5.65771,9.61573l3.40534,1.8919A4.9904,4.9904,0,0,0,18,46h4.42383A5.01132,5.01132,0,0,0,24,47.97443V51a3.00328,3.00328,0,0,0-3,3v.17139a2.97977,2.97977,0,0,0,.87891,2.12158l.82812.82812a.99428.99428,0,0,1,.293.70752V62h2V57.82861a2.97977,2.97977,0,0,0-.87891-2.12158l-.82812-.82812A.99428.99428,0,0,1,23,54.17139V54a1.0013,1.0013,0,0,1,1-1h3.17139a.99428.99428,0,0,1,.70752.293L29.293,54.707,30.707,53.293,29.293,51.87891A2.97977,2.97977,0,0,0,27.17139,51H26V48.89893A5.00068,5.00068,0,0,0,27,49H37a5.00068,5.00068,0,0,0,1-.10107V54H36.82861a2.97977,2.97977,0,0,0-2.12158.87891L33.293,56.293,34.707,57.707,36.12109,56.293A.99428.99428,0,0,1,36.82861,56H40a1.0013,1.0013,0,0,1,1,1v.17139a.99428.99428,0,0,1-.293.70752l-.82812.82812A2.97977,2.97977,0,0,0,39,60.82861V62h2V60.82861a.99428.99428,0,0,1,.293-.70752l.82812-.82812A2.97977,2.97977,0,0,0,43,57.17139V57a3.00328,3.00328,0,0,0-3-3V47.97443A5.01132,5.01132,0,0,0,41.57617,46H46a4.9904,4.9904,0,0,0,4.937-4.37665l3.40534-1.8919A11.00527,11.00527,0,0,0,60,30.11572V29A2.99507,2.99507,0,0,0,58,26.18427Zm-3.46436-4.23456A4.96765,4.96765,0,0,1,56,25.48535v.56989a3.00324,3.00324,0,0,0-.86963.26117l-1.33594.668a11.113,11.113,0,0,0,.20606-2.12751l-.00025-3.44262Zm-5.33593-4.54932A1.00457,1.00457,0,0,1,50,17h1a1.0013,1.0013,0,0,1,1,1l.00049,6.85693a8.94256,8.94256,0,0,1-2.63672,6.36524l-.8316.8316A2.98715,2.98715,0,0,0,48,32h-.82617c-.05951,0-.11487.02-.17383.02344v-.81885A10.941,10.941,0,0,0,44.95117,24.811l-.63885-.89429L48,19h0v-.00006ZM40.53564,40.12158,35.293,34.87891A2.97977,2.97977,0,0,0,33.17139,34H33V31.20459a8.94986,8.94986,0,0,1,1.67676-5.23145L37.21533,22.419A1.00283,1.00283,0,0,1,38.0293,22h1.9414a1.00211,1.00211,0,0,1,.81348.41846l2.53906,3.55468A8.94986,8.94986,0,0,1,45,31.20459v1.73865a2.98993,2.98993,0,0,0-.44531.59338L40.73822,40.368C40.66754,40.28784,40.61188,40.19781,40.53564,40.12158ZM23.26178,40.368l-3.81647-6.83142A2.98993,2.98993,0,0,0,19,32.94324V31.20459a8.94986,8.94986,0,0,1,1.67676-5.23145L23.21533,22.419A1.00283,1.00283,0,0,1,24.0293,22h1.9414a1.00211,1.00211,0,0,1,.81348.41846l2.53906,3.55468A8.94986,8.94986,0,0,1,31,31.20459V34h-.17139a2.97977,2.97977,0,0,0-2.12158.87891l-5.24267,5.24267C23.38812,40.19781,23.33246,40.28784,23.26178,40.368ZM38,20.00354a3.0056,3.0056,0,0,0-2.41211,1.25281L33.04883,24.811A11.05213,11.05213,0,0,0,32,26.6366,11.05213,11.05213,0,0,0,30.95117,24.811l-2.53955-3.55518A3.00486,3.00486,0,0,0,26,20.00354v-.799a8.94986,8.94986,0,0,1,1.67676-5.23145L30.21533,10.419a1.00283,1.00283,0,0,1,.814-.419h1.9414a1.00211,1.00211,0,0,1,.81348.41846l2.53906,3.55468A8.94986,8.94986,0,0,1,38,19.20459ZM40,8h.63818l2.12354,1.76953A8.97655,8.97655,0,0,1,46,16.68359v1.64966l-2.9071,3.87634-.68128-.95373A3.00486,3.00486,0,0,0,40,20.00354ZM28.71631,5.51172A3.00723,3.00723,0,0,1,31.32129,4h1.35742a3.00723,3.00723,0,0,1,2.605,1.51172L38,10.26538v2.61993c-.01709-.02435-.03156-.05-.04883-.07427L35.41162,9.25586A3.0071,3.0071,0,0,0,32.9707,8H31.0293a3.00783,3.00783,0,0,0-2.44141,1.25635L26.04883,12.811c-.01727.02423-.03174.04992-.04883.07427V10.26538Zm-7.478,4.25781L23.36182,8H24V20.00354a3.0056,3.0056,0,0,0-2.41211,1.25281l-.68079.95312L18,18.333V16.68359A8.97655,8.97655,0,0,1,21.23828,9.76953ZM12,18a1.0013,1.0013,0,0,1,1-1h1a1.00551,1.00551,0,0,1,.80029.3999L16,18.99957V19h.00031l3.68737,4.91669-.63885.89435A10.941,10.941,0,0,0,17,31.20459v.81885C16.941,32.02,16.88568,32,16.82617,32H16a2.98715,2.98715,0,0,0-.53217.05377l-.8316-.8316a8.94256,8.94256,0,0,1-2.63672-6.36524ZM9.46436,21.94971l.5354-.5354-.00025,3.44262a11.11008,11.11008,0,0,0,.20606,2.12769l-1.33643-.66821A2.99839,2.99839,0,0,0,8,26.05524v-.56989A4.96765,4.96765,0,0,1,9.46436,21.94971ZM6,30.11572V29a1.0013,1.0013,0,0,1,1-1h.52783a1.0072,1.0072,0,0,1,.44727.10547l3.14435,1.57239a10.99951,10.99951,0,0,0,2.10272,2.95837l.47021.47022A2.97065,2.97065,0,0,0,13,35v4.30048L10.62939,37.9834A9.00526,9.00526,0,0,1,6,30.11572ZM18,44a3.00328,3.00328,0,0,1-3-3V35a1.0013,1.0013,0,0,1,1-1h.82617a1.00086,1.00086,0,0,1,.873.51221l4.454,7.97259A5.00557,5.00557,0,0,0,22,43.65674V44Zm22,0a3.00328,3.00328,0,0,1-3,3H27a3.00328,3.00328,0,0,1-3-3v-.34326a3.022,3.022,0,0,1,.87842-2.1211L30.12109,36.293A.99428.99428,0,0,1,30.82861,36h2.34278a.99428.99428,0,0,1,.70752.293l5.24267,5.24267A3.022,3.022,0,0,1,40,43.65674Zm9-3a3.00328,3.00328,0,0,1-3,3H42v-.34326a5.00557,5.00557,0,0,0-.15326-1.17194l4.454-7.97259A1.00086,1.00086,0,0,1,47.17383,34H48a1.0013,1.0013,0,0,1,1,1Zm9-10.88428a9.00526,9.00526,0,0,1-4.62939,7.86768L51,39.30048V35a2.97065,2.97065,0,0,0-.69238-1.89355l.47021-.47022a11.00027,11.00027,0,0,0,2.10279-2.95843l3.14379-1.57233A1.01083,1.01083,0,0,1,56.47217,28H57a1.0013,1.0013,0,0,1,1,1Z" style="fill:#231f20"/><path d="M58,26.18427v-.69892a6.95405,6.95405,0,0,0-2.05029-4.94971L54.00006,18.586,54,18a3.00328,3.00328,0,0,0-3-3H50a3.00223,3.00223,0,0,0-2.04694.82947A10.95528,10.95528,0,0,0,44.042,8.2334L41.919,6.46387A2.00533,2.00533,0,0,0,40.63818,6H40a1.997,1.997,0,0,0-1.64136.86224L37.02,4.51953A5.01128,5.01128,0,0,0,32.67871,2H31.32129A5.01128,5.01128,0,0,0,26.98,4.51953L25.64136,6.86224A1.997,1.997,0,0,0,24,6h-.63818a2.003,2.003,0,0,0-1.28028.46387L19.958,8.2334a10.95543,10.95543,0,0,0-3.91107,7.5957A3.00319,3.00319,0,0,0,14,15H13a3.00328,3.00328,0,0,0-3,3l-.00006.586L8.05029,20.53564A6.95405,6.95405,0,0,0,6,25.48535v.69892A2.99507,2.99507,0,0,0,4,29v1.11572a11.00527,11.00527,0,0,0,5.65771,9.61573l3.40534,1.8919A4.9904,4.9904,0,0,0,18,46h4.42383A5.01132,5.01132,0,0,0,24,47.97443V51a3.00328,3.00328,0,0,0-3,3v.17139a2.97977,2.97977,0,0,0,.87891,2.12158l.82812.82812a.99428.99428,0,0,1,.293.70752V62h2V57.82861a2.97977,2.97977,0,0,0-.87891-2.12158l-.82812-.82812A.99428.99428,0,0,1,23,54.17139V54a1.0013,1.0013,0,0,1,1-1h3.17139a.99428.99428,0,0,1,.70752.293L29.293,54.707,30.707,53.293,29.293,51.87891A2.97977,2.97977,0,0,0,27.17139,51H26V48.89893A5.00068,5.00068,0,0,0,27,49H37a5.00068,5.00068,0,0,0,1-.10107V54H36.82861a2.97977,2.97977,0,0,0-2.12158.87891L33.293,56.293,34.707,57.707,36.12109,56.293A.99428.99428,0,0,1,36.82861,56H40a1.0013,1.0013,0,0,1,1,1v.17139a.99428.99428,0,0,1-.293.70752l-.82812.82812A2.97977,2.97977,0,0,0,39,60.82861V62h2V60.82861a.99428.99428,0,0,1,.293-.70752l.82812-.82812A2.97977,2.97977,0,0,0,43,57.17139V57a3.00328,3.00328,0,0,0-3-3V47.97443A5.01132,5.01132,0,0,0,41.57617,46H46a4.9904,4.9904,0,0,0,4.937-4.37665l3.40534-1.8919A11.00527,11.00527,0,0,0,60,30.11572V29A2.99507,2.99507,0,0,0,58,26.18427Zm-3.46436-4.23456A4.96765,4.96765,0,0,1,56,25.48535v.56989a3.00324,3.00324,0,0,0-.86963.26117l-1.33594.668a11.113,11.113,0,0,0,.20606-2.12751l-.00025-3.44262Zm-5.33593-4.54932A1.00457,1.00457,0,0,1,50,17h1a1.0013,1.0013,0,0,1,1,1l.00049,6.85693a8.94256,8.94256,0,0,1-2.63672,6.36524l-.8316.8316A2.98715,2.98715,0,0,0,48,32h-.82617c-.05951,0-.11487.02-.17383.02344v-.81885A10.941,10.941,0,0,0,44.95117,24.811l-.63885-.89429L48,19h0v-.00006ZM40.53564,40.12158,35.293,34.87891A2.97977,2.97977,0,0,0,33.17139,34H33V31.20459a8.94986,8.94986,0,0,1,1.67676-5.23145L37.21533,22.419A1.00283,1.00283,0,0,1,38.0293,22h1.9414a1.00211,1.00211,0,0,1,.81348.41846l2.53906,3.55468A8.94986,8.94986,0,0,1,45,31.20459v1.73865a2.98993,2.98993,0,0,0-.44531.59338L40.73822,40.368C40.66754,40.28784,40.61188,40.19781,40.53564,40.12158ZM23.26178,40.368l-3.81647-6.83142A2.98993,2.98993,0,0,0,19,32.94324V31.20459a8.94986,8.94986,0,0,1,1.67676-5.23145L23.21533,22.419A1.00283,1.00283,0,0,1,24.0293,22h1.9414a1.00211,1.00211,0,0,1,.81348.41846l2.53906,3.55468A8.94986,8.94986,0,0,1,31,31.20459V34h-.17139a2.97977,2.97977,0,0,0-2.12158.87891l-5.24267,5.24267C23.38812,40.19781,23.33246,40.28784,23.26178,40.368ZM38,20.00354a3.0056,3.0056,0,0,0-2.41211,1.25281L33.04883,24.811A11.05213,11.05213,0,0,0,32,26.6366,11.05213,11.05213,0,0,0,30.95117,24.811l-2.53955-3.55518A3.00486,3.00486,0,0,0,26,20.00354v-.799a8.94986,8.94986,0,0,1,1.67676-5.23145L30.21533,10.419a1.00283,1.00283,0,0,1,.814-.419h1.9414a1.00211,1.00211,0,0,1,.81348.41846l2.53906,3.55468A8.94986,8.94986,0,0,1,38,19.20459ZM40,8h.63818l2.12354,1.76953A8.97655,8.97655,0,0,1,46,16.68359v1.64966l-2.9071,3.87634-.68128-.95373A3.00486,3.00486,0,0,0,40,20.00354ZM28.71631,5.51172A3.00723,3.00723,0,0,1,31.32129,4h1.35742a3.00723,3.00723,0,0,1,2.605,1.51172L38,10.26538v2.61993c-.01709-.02435-.03156-.05-.04883-.07427L35.41162,9.25586A3.0071,3.0071,0,0,0,32.9707,8H31.0293a3.00783,3.00783,0,0,0-2.44141,1.25635L26.04883,12.811c-.01727.02423-.03174.04992-.04883.07427V10.26538Zm-7.478,4.25781L23.36182,8H24V20.00354a3.0056,3.0056,0,0,0-2.41211,1.25281l-.68079.95312L18,18.333V16.68359A8.97655,8.97655,0,0,1,21.23828,9.76953ZM12,18a1.0013,1.0013,0,0,1,1-1h1a1.00551,1.00551,0,0,1,.80029.3999L16,18.99957V19h.00031l3.68737,4.91669-.63885.89435A10.941,10.941,0,0,0,17,31.20459v.81885C16.941,32.02,16.88568,32,16.82617,32H16a2.98715,2.98715,0,0,0-.53217.05377l-.8316-.8316a8.94256,8.94256,0,0,1-2.63672-6.36524ZM9.46436,21.94971l.5354-.5354-.00025,3.44262a11.11008,11.11008,0,0,0,.20606,2.12769l-1.33643-.66821A2.99839,2.99839,0,0,0,8,26.05524v-.56989A4.96765,4.96765,0,0,1,9.46436,21.94971ZM6,30.11572V29a1.0013,1.0013,0,0,1,1-1h.52783a1.0072,1.0072,0,0,1,.44727.10547l3.14435,1.57239a10.99951,10.99951,0,0,0,2.10272,2.95837l.47021.47022A2.97065,2.97065,0,0,0,13,35v4.30048L10.62939,37.9834A9.00526,9.00526,0,0,1,6,30.11572ZM18,44a3.00328,3.00328,0,0,1-3-3V35a1.0013,1.0013,0,0,1,1-1h.82617a1.00086,1.00086,0,0,1,.873.51221l4.454,7.97259A5.00557,5.00557,0,0,0,22,43.65674V44Zm22,0a3.00328,3.00328,0,0,1-3,3H27a3.00328,3.00328,0,0,1-3-3v-.34326a3.022,3.022,0,0,1,.87842-2.1211L30.12109,36.293A.99428.99428,0,0,1,30.82861,36h2.34278a.99428.99428,0,0,1,.70752.293l5.24267,5.24267A3.022,3.022,0,0,1,40,43.65674Zm9-3a3.00328,3.00328,0,0,1-3,3H42v-.34326a5.00557,5.00557,0,0,0-.15326-1.17194l4.454-7.97259A1.00086,1.00086,0,0,1,47.17383,34H48a1.0013,1.0013,0,0,1,1,1Zm9-10.88428a9.00526,9.00526,0,0,1-4.62939,7.86768L51,39.30048V35a2.97065,2.97065,0,0,0-.69238-1.89355l.47021-.47022a11.00027,11.00027,0,0,0,2.10279-2.95843l3.14379-1.57233A1.01083,1.01083,0,0,1,56.47217,28H57a1.0013,1.0013,0,0,1,1,1Z" style="fill:#231f20"/></svg>
