<svg height="512" viewBox="0 0 60 60" width="512" xmlns="http://www.w3.org/2000/svg"><g id="027---Beat" fill="none"><g id="InlineIcons" transform="translate(1 1)"><path id="Shape" d="m29 50.15c1.1545813.6378654 2.3707846 1.1571808 3.63 1.55 2.1250322.630435 3.9037834 2.0952889 4.93 4.06l1 2c.0886349.1661904.2616509.27.45.27s.3613651-.1038096.45-.27l1-2c1.0262166-1.9647111 2.8049678-3.429565 4.93-4.06 7.34-2.32 12.61-8.55 12.61-15.87 0-13.25-16.51-21.2-29-14.31z" fill="#9d27b0"/><path id="Shape" d="m58 35.83c0 7.32-5.27 13.55-12.63 15.87-2.1250322.630435-3.9037834 2.0952889-4.93 4.06l-1 2c-.0886349.1661904-.2616509.27-.45.27s-.3613651-.1038096-.45-.27c-.4431311-1.0119845-.957766-1.9911276-1.54-2.93 1.0713072-1.4970304 2.607815-2.5975497 4.37-3.13 7.36-2.32 12.63-8.55 12.63-15.87 0-8.69-7.45-15.83-17-16.73 10.64-1.1 21 6.37 21 16.73z" fill="#6a1b9a"/><path id="Shape" d="m32.71 47.48c2.3540857.6385787 4.5144752 1.8475724 6.29 3.52 1.4462038-1.4420992 3.2200727-2.5125965 5.17-3.12 5.88-1.88 9.83-6.69 9.83-12.05 0-9.41-11.52-15.58-21.29-11.64z" fill="#ffe0b2"/><path id="Shape" d="m35.47 27.47c6.8-1.92 14.53 2.13 14.53 8.36 0 3.6-2.83 6.91-7 8.24-1.4095025.4319977-2.7547956 1.0508325-4 1.84-1.1027308-.7062836-2.2883429-1.2738996-3.53-1.69z" fill="#dfc49c"/><path id="Shape" d="m37.24 31.17c4.6-.9 8.76 1.75 8.76 4.66 0 1.82-1.74 3.64-4.23 4.42-.9467508.3007516-1.8721772.6649085-2.77 1.09-.58-.27-1.16-.52-1.76-.74z" fill="#ffe0b2"/><path id="Shape" d="m11.28 20.45-3.11-12.15c-.26616288-1.0414292.04348834-2.14574567.81231105-2.89696409.76882271-.75121841 1.88001445-1.0352108 2.91500005-.745s1.836526 1.11053488 2.1026889 2.15196409l3.48 13.58z" fill="#008a00"/><path id="Shape" d="m20.42 20.88 3.58-14.07c.2661629-1.04142919 1.0677034-1.86175326 2.1026889-2.15196405 1.0349856-.2902108 2.1461773-.0062184 2.915.745s1.078474 1.85553486.8123111 2.89696405l-3.22 12.58z" fill="#008a00"/><path id="Shape" d="m38 35.83c0 7.32-5.27 13.55-12.63 15.87-2.1250322.630435-3.9037834 2.0952889-4.93 4.06l-1 2c-.0886349.1661904-.2616509.27-.45.27s-.3613651-.1038096-.45-.27l-1-2c-1.0262166-1.9647111-2.8049678-3.429565-4.93-4.06-7.34-2.32-12.61-8.55-12.61-15.87 0-9.29 8.51-16.83 19-16.83s19 7.53 19 16.83z" fill="#9d27b0"/><path id="Shape" d="m38 35.83c0 7.32-5.27 13.55-12.63 15.87-2.1250322.630435-3.9037834 2.0952889-4.93 4.06l-1 2c-.0886349.1661904-.2616509.27-.45.27s-.3613651-.1038096-.45-.27l-1.04-2.11c1.0367778-1.9091472 2.7879883-3.3295336 4.87-3.95 7.36-2.32 12.63-8.55 12.63-15.87 0-8.84-7.71-16.1-17.5-16.77 10.5-.86 20.5 6.61 20.5 16.77z" fill="#6a1b9a"/><path id="Shape" d="m18 24c-.5522847.0165685-1.0134315-.4177153-1.03-.97s.4177153-1.0134315.97-1.03h1.06c.5522847 0 1 .4477153 1 1s-.4477153 1-1 1c-.5 0-1 0-1 0z" fill="#f5f5f5"/><path id="Shape" d="m4 36.83c-.55228475 0-1-.4477153-1-1 0-5.51 3.79-10.5 9.65-12.69.2479752-.0941865.523212-.0859902.7651432.022785.2419312.1087753.4307323.3092163.5248568.557215.1885312.5163058-.0749785 1.087988-.59 1.28-5.07 1.91-8.35 6.16-8.35 10.83 0 .5522847-.44771525 1-1 1z" fill="#f5f5f5"/><path id="Shape" d="m22 19.21v-16.21c0-1.65685425-1.3431458-3-3-3s-3 1.34314575-3 3v16.21z" fill="#60a917"/></g><path id="Shape" d="m30 21.41c-.36-.19-.72-.36-1.09-.52l2.89-11.34c.3572656-1.38440417-.0511782-2.85424531-1.0714746-3.85584848-1.0202963-1.00160318-2.497438-1.38280103-3.875-1.00000001-1.377562.38280101-2.4462598 1.47144431-2.8035254 2.85584849-.05.36-.05.78-.05-3.55 0-2.209139-1.790861-4-4-4s-4 1.790861-4 4v3.76c-.4942949-2.15391052-2.6410895-3.49929485-4.795-3.005-2.15391052.49429485-3.49929485 2.64108948-3.005 4.795l2.9 11.34c-6.57 2.92-11.1 8.96-11.1 15.94 0 7.55 5.36 14.31 13.33 16.82 1.8687181.5506446 3.4345375 1.8350495 4.34 3.56l1 2c.2597817.500111.7764421.8139397 1.34.8139397s1.0802183-.3138287 1.34-.8139397l1-2c.9054625-1.7249505 2.4712819-3.0093554 4.34-3.56 1.1405125-.3651899 2.247848-.8268585 3.31-1.38 1.0642455.5560661 2.1751587 1.0178312 3.32 1.38 1.8687181.5506446 3.4345375 1.8350495 4.34 3.56l1 2c.2615344.4948231.7753125.8043974 1.335.8043974s1.0734656-.3095743 1.335-.8043974l1-2c.9054625-1.7249505 2.4712819-3.0093554 4.34-3.56 7.97-2.51 13.33-9.27 13.33-16.82 0-13.74-16.78-22.29-30-15.42zm-4-13.35c.156213-.71581955.6913273-1.28892724 1.3947678-1.49379701.7034404-.20486978 1.4625973-.0087052 1.9787316.51130015.5161342.52000536.7066208 1.28060683.4965006 1.98249686l-2.87 11.1c-.979535-.3382195-1.9821196-.6055754-3-.8v-3.53zm-6-6.06c1.1045695 0 2 .8954305 2 2v15.09c-1.330634-.119985-2.669366-.119985-4 0v-15.09c0-1.1045695.8954305-2 2-2zm-9.86 7.05c-.21012023-.70189003-.0196336-1.4624915.4965006-1.98249686.5161343-.52000535 1.2752912-.71616993 1.9787316-.51130015.7034405.20486977 1.2385548.77797746 1.3947678 1.49379701l2 7.77v3.53c-1.0178804.1944246-2.020465.4617805-3 .8zm15.93 42.69c-2.3837064.7115403-4.3760437 2.3609935-5.52 4.57l-.55 1.09-.55-1.09c-1.1439563-2.2090065-3.1362936-3.8584597-5.52-4.57-7.14-2.24-11.93-8.23-11.93-14.91 0-8.73 8.08-15.83 18-15.83s18 7.1 18 15.83c0 6.6-4.73 12.65-11.93 14.91zm13.46-18.74h.47c3.2 0 6 1.79 6 3.83 0 1.37-1.48 2.83-3.53 3.47-.8414979.2633467-1.6663313.577251-2.47.94-.19-.09-.37-.15-.56-.23.7193795-2.6176854.7503809-5.3768117.09-8.01zm-.74 9.88c2 .83.7.44 4.28-.7 2.93-.89 4.93-3.1 4.93-5.35 0-3.32-4.08-6.31-9.09-5.77-.2663351-.6471541-.5701842-1.2782255-.91-1.89 6.51-1 12 3 12 7.66 0 3.16-2.54 6.09-6.33 7.29-1.2823026.3950868-2.5140016.9387796-3.67 1.62-.6670375-.3789127-1.3585674-.7129851-2.07-1 .325636-.5943538.61289-1.2089439.86-1.84zm-2 3.54c2.5 1 2.54 1.47 3.17 1.47s1.3-1 4.27-1.89c4.66-1.44 7.77-5.13 7.77-9.17 0-6.57-7.66-11.15-15.1-9.49-.4195347-.6019513-.8771352-1.176457-1.37-1.72 8.95-2.62 18.47 3.08 18.47 11.21 0 4.92-3.67 9.38-9.13 11.1-1.790489.5584371-3.4478016 1.4772757-4.87 2.7-1.32061-1.1252618-2.8400802-1.9935305-4.48-2.56.4667603-.5184461.904112-1.0626319 1.31-1.63zm9.24 5.31c-2.3863514.7008229-4.3813188 2.3488395-5.52 4.56l-.51 1.11-.55-1.09c-1.1386812-2.2111605-3.1336486-3.8591771-5.52-4.56-.6280775-.2019839-1.2455334-.4356158-1.85-.7.6442847-.4398254 1.2620271-.9173237 1.85-1.43 2.0193955.5544409 3.864136 1.6144784 5.36 3.08.1877666.1893127.4433625.2957983.71.2957983s.5222334-.1064856.71-.2957983c1.3306343-1.3282826 2.9641934-2.3132227 4.76-2.87 6.3-2 10.53-7.2 10.53-13 0-9.83-11.64-16.54-22.08-12.77-.5911601-.5142708-1.2158724-.9886512-1.87-1.42 12-5.2 26 2.51 26 14.19-.05 6.67-4.84 12.67-11.98 14.92z" fill="#000"/></g></svg>
