<svg height="451pt" viewBox="-59 0 451 451.63687" width="451pt" xmlns="http://www.w3.org/2000/svg"><path d="m170.996094 319.886719-.320313.242187c-10.871093 35.160156-31.316406 66.597656-59.039062 90.800782l-25.039063 21.839843c-12.347656 10.738281-29.617187 13.789063-44.894531 7.925781-15.28125-5.863281-26.074219-19.683593-28.066406-35.925781l-3.761719-31.121093c-1.019531-8.175782-1.527344-16.402344-1.519531-24.640626.03125-44.523437 14.734375-87.796874 41.839843-123.121093 4.082032 1.28125 63.039063-86.238281 67.441407-86.238281 1.917969 0 136 56 136 56 1.117187 8.480468-88.082031 117.839843-82.640625 124.238281zm0 0" fill="#7ed39c"/><path d="m61.636719 412.265625-16-1.234375.558593-7.289062c4.859376-64.589844 29.8125-126.042969 71.359376-175.734376l17.90625-21.488281 22.488281-2.398437-28.074219 34.136718c-39.421875 47.136719-63.097656 105.433594-67.703125 166.710938zm0 0" fill="#2e8059"/><path d="m118.203125 358.617188c-10.96875-27.363282-16.59375-56.570313-16.566406-86.050782v-1.597656l-1.050781 1.046875c-17.355469 17.371094-37.40625 31.824219-59.375 42.800781l-7.152344-14.320312c20.421875-10.207032 39.0625-23.644532 55.199218-39.792969l14.707032-14.703125c2.285156-2.296875 5.730468-2.988281 8.726562-1.753906 2.992188 1.238281 4.945313 4.160156 4.945313 7.402344v20.917968c-.027344 27.445313 5.210937 54.640625 15.429687 80.113282zm0 0" fill="#2e8059"/><path d="m87.980469 409.304688c-14.671875-14.585938-23.820313-33.816407-25.871094-54.402344-8.308594 10.675781-17.265625 20.828125-26.816406 30.402344l-11.3125-11.3125c10.371093-10.386719 19.992187-21.496094 28.800781-33.238282l10.453125-13.90625c2.066406-2.753906 5.664063-3.878906 8.929687-2.789062 3.269532 1.089844 5.472657 4.144531 5.472657 7.589844v14.0625c-.054688 19.621093 7.742187 38.445312 21.65625 52.28125zm0 0" fill="#2e8059"/><path d="m261.636719 19.648438 48-4.082032 5.199219 1.042969-8.160157 42.078125 11.679688 42.160156c20.34375 73.039063-2.726563 151.285156-59.441407 201.601563l-24.878906 22c-14.121094 12.492187-34.601562 14.675781-51.039062 5.4375-4.578125-2.566407-8.648438-5.957031-12-10-5.503906-6.464844-9.03125-14.382813-10.160156-22.796875l-4-31.042969c-2.5625-19.648437-2.242188-39.5625.960937-59.117187 15.519531-7.042969 83.519531-166.882813 103.839844-187.28125zm0 0" fill="#77c974"/><path d="m220.539062 303.648438-13.808593-8 11.050781-18.929688c29.199219-49.949219 48.230469-105.183594 56-162.519531l16-106.597657 15.855469 2.160157-16 106.597656c-8.050781 59.417969-27.769531 116.65625-58.023438 168.425781zm0 0" fill="#2e8059"/><path d="m277.636719 267.648438h-16c-.011719-9.28125-2.171875-18.433594-6.3125-26.738282l-4.976563-9.957031-5.160156 3.09375c-19.199219 11.519531-41.164062 17.601563-63.550781 17.601563v-16c19.488281 0 38.609375-5.292969 55.320312-15.320313l12.558594-7.535156c1.910156-1.15625 4.21875-1.445313 6.351563-.800781 2.144531.621093 3.929687 2.109374 4.929687 4.105468l8.839844 17.664063c5.246093 10.527343 7.984375 22.125 8 33.886719zm0 0" fill="#2e8059"/><path d="m311.78125 219.464844c-7.554688-18.960938-20.707031-35.171875-37.707031-46.472656-2.183594-1.472657-4.957031-1.769532-7.40625-.800782-25.46875 10.230469-52.664063 15.476563-80.113281 15.457032h-4.917969v16h4.917969c28.015624.027343 55.800781-5.054688 81.992187-14.992188 12.707031 9.355469 22.53125 22.085938 28.367187 36.742188l7.097657 18.402343c3.457031-6.753906 6.527343-13.699219 9.191406-20.800781zm0 0" fill="#2e8059"/><path d="m325.636719 154.046875c0-1.3125-.105469-2.632813-.136719-3.941406-7.082031-16.109375-20.644531-28.476563-37.335938-34.042969-2.339843-.789062-4.917968-.445312-6.96875.929688l-4 2.6875c-11.710937 7.820312-25.480468 11.984374-39.558593 11.96875v16c17.230469.011718 34.078125-5.085938 48.40625-14.65625l.617187-.40625c11.386719 4.839843 20.363282 14.03125 24.945313 25.527343l11.316406 28c1.773437-10.597656 2.679687-21.320312 2.714844-32.066406zm0 0" fill="#2e8059"/><path d="m286.4375 12.6875 15.199219-5.121094 13.679687 6.722656-.480468 2.320313-5.199219-1.042969-1.039063 1.042969c-20.34375 20.394531-35.679687 45.234375-44.800781 72.558594-11.886719 35.554687-33.570313 67.03125-62.5625 90.800781-13.246094 10.835938-27.847656 19.898438-43.4375 26.960938-17.777344 8.074218-36.648437 13.492187-56 16.078124l-32.882813 4.398438c-1.933593.253906-3.886718.386719-5.839843.402344-4.363281.011718-8.707031-.636719-12.878907-1.921875-12.441406-3.8125-22.574218-12.90625-27.707031-24.863281-5.132812-11.960938-4.742187-25.570313 1.066407-37.214844l14-28c34.371093-68.769532 104.640624-112.21875 181.519531-112.242188 22.890625-.003906 45.632812-3.679687 67.363281-10.878906zm0 0" fill="#58af7a"/><g fill="#2e8059"><path d="m60.453125 199.839844-13.601563-8.382813c42.488282-69.195312 104.714844-124.082031 178.671876-157.601562l67.480468-30.847657 18.328125 9.335938-79.199219 36.082031c-71.0625 32.195313-130.859374 84.929688-171.679687 151.414063zm0 0"/><path d="m66.074219 138.304688-8.878907-13.3125c16.957032-11.324219 36.890626-17.359376 57.28125-17.34375h3.160157v16h-3.160157c-17.230468-.015626-34.074218 5.085937-48.402343 14.65625zm0 0"/><path d="m165.746094 164.96875-1.292969-7.769531c-4.078125-24.335938-4.199219-49.171875-.371094-73.550781-20.402343.199218-40.710937 2.800781-60.511719 7.742187l-3.871093-15.519531c21.886719-5.460938 44.363281-8.222656 66.921875-8.222656h7.015625c2.402343 0 4.675781 1.078124 6.195312 2.9375 1.519531 1.863281 2.125 4.308593 1.644531 6.660156-5.113281 25.496094-5.535156 51.707031-1.25 77.355468l1.296876 7.757813zm0 0"/><path d="m133.996094 199.257812-2.351563-4.648437c-12.046875-23.722656-19.203125-49.621094-21.046875-76.160156l-.160156-2.25 16-1.101563.148438 2.230469c1.699218 24.414063 8.285156 48.238281 19.371093 70.054687l2.351563 4.65625zm0 0"/><path d="m214.4375 135.222656c-11.160156-22.273437-15.394531-47.378906-12.152344-72.078125l1.949219-15.039062 15.855469 2.054687-1.949219 15.039063c-2.796875 21.554687.929687 43.453125 10.695313 62.871093zm0 0"/></g><path d="m314.859375 58.359375 8.296875-42.566406-15.695312-3.066407-.113282.570313-3.367187-3.367187-1.175781 1.175781-3.695313-11.105469-15.203125 5.078125c-20.890625 6.96875-42.773438 10.515625-64.796875 10.507813-79.925781 0-152.992187 45.152343-188.738281 116.636718l-14 28c-12.574219 25.027344-3.070313 55.515625 21.496094 68.960938-29.441407 42.421875-42.253907 94.191406-36 145.449218l3.777343 31.09375c2.335938 19.191407 15.082031 35.519532 33.132813 42.445313 18.046875 6.925781 38.445312 3.3125 53.019531-9.386719l25.039063-21.816406c25.804687-22.496094 45.601562-51.066406 57.601562-83.128906 1.488281 1.082031 3.039062 2.082031 4.636719 2.992187 19.414062 10.953125 43.640625 8.382813 60.320312-6.398437l24.800781-22.027344c58.992188-52.328125 83.011719-133.695312 61.894532-209.671875zm-5.296875 150.472656c-.328125 1.105469-.75 2.160157-1.09375 3.257813-7.214844-14.554688-17.859375-27.132813-31.015625-36.65625 3.839844-14.023438 7.011719-28.25 9.519531-42.679688 11.234375 4.871094 20.089844 13.984375 24.632813 25.359375l5.214843 13.03125c-1.140624 12.773438-3.574218 25.402344-7.257812 37.6875zm-35.796875-94.664062c-.378906 2.742187-.898437 5.449219-1.320313 8.183593-5.6875 3.203126-11.789062 5.601563-18.128906 7.136719 6.941406-12.007812 12.65625-24.6875 17.054688-37.839843 2.320312-6.914063 5.0625-13.679688 8.214844-20.257813zm-31.160156 33.296875c9.035156-.484375 17.941406-2.371094 26.398437-5.601563-2.199218 10.929688-4.785156 21.734375-7.769531 32.417969-17.964844 6.660156-36.742187 10.882812-55.832031 12.550781.296875-.230469.601562-.441406.890625-.671875 13.71875-11.28125 25.925781-24.285156 36.3125-38.695312zm60.628906-112.9375-4.40625 22.625c-.242187 1.214844-.195313 2.46875.136719 3.664062l11.734375 42.199219c2.9375 10.6875 4.933593 21.613281 5.96875 32.648437-7.140625-8.675781-16.496094-15.257812-27.070313-19.046874l.046875-.289063 10.648438-78.28125c.941406-1.199219 1.941406-2.351563 2.941406-3.519531zm-6.796875-16.726563v-.046875h.085938zm-265.753906 181.984375c-5.078125-10.199218-5.078125-22.195312 0-32.394531l14-28c33.027344-66.058594 100.542968-107.792969 174.398437-107.796875 4.160157 0 8.296875-.265625 12.433594-.496094l-6.046875 2.742188c-21.007812 9.570312-41.167969 20.898437-60.273438 33.855468-22.089843.105469-44.085937 2.855469-65.519531 8.199219l3.871094 15.519531c12.5-3.066406 25.210937-5.207031 38.023437-6.398437-9.09375 7.164063-17.871093 14.707031-26.335937 22.632813h-.71875c-20.390625-.015626-40.324219 6.019531-57.28125 17.34375l8.882813 13.3125c9.515624-6.339844 20.191406-10.738282 31.414062-12.945313-19.09375 20.25-36.074219 42.398437-50.671875 66.097656l13.601563 8.382813c14.804687-24.058594 32.164062-46.449219 51.773437-66.785156 3.070313 21.441406 9.628906 42.234374 19.417969 61.554687l2.351562 4.648437 14.28125-7.203124-2.351562-4.65625c-10.84375-21.382813-17.367188-44.691407-19.203125-68.597657 11.636719-10.863281 23.925781-21.003906 36.800781-30.359375-3.152344 22.847656-2.84375 46.042969.921875 68.796875l1.292969 7.769531 15.777344-2.640624-1.296876-7.757813c-4.289062-25.648437-3.863281-51.863281 1.25-77.363281.03125-.382813.03125-.765625 0-1.148438 6.792969-4.378906 13.75-8.523437 20.800782-12.488281-3.148438 24.546875 1.085937 49.480469 12.160156 71.613281l14.316406-7.152344c-9.734375-19.425781-13.433594-41.324218-10.613281-62.871093l1.40625-10.824219c4.140625-2.050781 8.316406-4.042969 12.535156-5.976562l62.402344-28.367188c-1.996094 2.273438-3.9375 4.585938-5.824219 6.945312l-2.984375-.410156-.703125 5.1875c-12.46875 16.625-22.191406 35.140625-28.800781 54.847656-18.890625 56.796876-63.460937 101.363282-120.265625 120.246094l-.421875-.351562-.542969.664062c-11.125 3.679688-22.5625 6.328125-34.167968 7.910156l-32.914063 4.386719c-15.320313 2.046875-30.25-5.855469-37.175781-19.671875zm75.65625 205.117188-25.023438 21.824218c-10.105468 8.8125-24.253906 11.320313-36.773437 6.519532-12.519531-4.804688-21.359375-16.128906-22.980469-29.4375l-3.765625-31.097656c-6.019531-48.828126 6.769531-98.117188 35.765625-137.863282 3.132812.617188 6.3125.949219 9.503906.984375 2.308594-.003906 4.617188-.160156 6.90625-.464843l32.902344-4.390626c4.800781-.640624 9.5625-1.441406 14.28125-2.402343-5.015625 6.019531-9.777344 12.195312-14.289062 18.53125l-13.597657 13.597656c-16.140625 16.148437-34.78125 29.585937-55.203125 39.792969l7.152344 14.320312c12.078125-6.085937 23.589844-13.234375 34.402344-21.359375-5.636719 11.796875-10.519532 23.941407-14.617188 36.359375l-8.167968 10.9375c-8.804688 11.742188-18.429688 22.851563-28.800782 33.238282l11.3125 11.3125c5.433594-5.433594 10.632813-11.121094 15.679688-16.945313-2.25 11.695313-3.835938 23.511719-4.75 35.382813l-.5625 7.289062 15.921875 1.234375.558593-7.296875c.859376-10.292969 2.246094-20.53125 4.160157-30.679688 4.394531 13.195313 11.808593 25.183594 21.648437 35.015626l11.3125-11.3125c-13.921875-13.832032-21.730468-32.65625-21.679687-52.28125v-14.0625c0-.144532-.058594-.273438-.066407-.410157 6.296876-18.359375 14.402344-36.042969 24.203126-52.796875.648437 27.5 6.214843 54.664063 16.429687 80.207032l14.863281-5.9375c-10.222656-25.480469-15.460937-52.6875-15.429687-80.144532v-18.398437c3.917969-5.390625 7.941406-10.726563 12.238281-15.886719l14.402344-17.242188c1.320312-.464843 2.597656-1.03125 3.910156-1.527343-1.550781 15.832031-1.304688 31.785156.734375 47.558593l4 31.058594c1.105469 8.28125 4.175781 16.179688 8.960937 23.03125-10.671874 32.386719-29.859374 61.3125-55.542968 83.742188zm147.246094-108.453125-24.796876 22.023437c-10.03125 8.890625-24.152343 11.515625-36.707031 6.824219-12.558593-4.691406-21.496093-15.933594-23.238281-29.226563l-4.039062-31.054687c-2.25-17.539063-2.101563-35.300781.445312-52.800781 5.601562-2.695313 11.089844-5.597656 16.425781-8.800782v.234376h4.921875c23.351563.003906 46.566406-3.539063 68.855469-10.511719-2.289063 6.902343-4.746094 13.746093-7.371094 20.535156l-11.085937 6.65625c-16.722656 10.03125-35.859375 15.328125-55.359375 15.320313v16c19.527343 0 38.777343-4.628907 56.167969-13.511719-6.015626 13.121093-12.683594 25.96875-20 38.550781l-11.074219 18.960938 13.808593 8 11.058594-18.929688c8.5-14.644531 16.191406-29.746094 23.03125-45.238281l.695313 1.398437c4.144531 8.316406 6.308593 17.476563 6.3125 26.769532h16c-.015625-11.761719-2.753907-23.359376-8-33.886719l-6.882813-13.761719c3.585938-9.207031 6.816406-18.535156 9.785156-27.953125 10.769532 8.921875 19.144532 20.382813 24.375 33.351563l3.28125 8.203124c-11.011718 23.953126-26.882812 45.355469-46.609374 62.847657zm0 0"/></svg>