<svg height="512" viewBox="0 0 64 64" width="512" xmlns="http://www.w3.org/2000/svg"><g id="Fill_Outline" data-name="Fill Outline"><circle cx="37" cy="37" fill="#fcbc04" r="24"/><path d="m37.14 17h-.28a2 2 0 0 1 -2-1.86l-.86-12.14h6l-.87 12.14a2 2 0 0 1 -1.99 1.86z" fill="#a1d51c"/><path d="m19 3h8a8 8 0 0 1 8 8 0 0 0 0 1 0 0h-8a8 8 0 0 1 -8-8 0 0 0 0 1 0 0z" fill="#c4f236" transform="matrix(-1 0 0 -1 54 14)"/><path d="m47 5h8a0 0 0 0 1 0 0 8 8 0 0 1 -8 8h-8a0 0 0 0 1 0 0 8 8 0 0 1 8-8z" fill="#c4f236"/><path d="m52.74 5a8 8 0 0 1 -7.74 6h-5.74a8.24 8.24 0 0 0 -.26 2h8a8 8 0 0 0 8-8z" fill="#a1d51c"/><path d="m30.9 4a5 5 0 0 1 -4.9 4h-5.24a8 8 0 0 0 6.24 3h8a8 8 0 0 0 -4.1-7z" fill="#a1d51c"/><path d="m37 3v4a5 5 0 0 1 -2.41 4.26l.28 3.88a2 2 0 0 0 2 1.86h.28a2 2 0 0 0 2-1.86l.85-12.14z" fill="#7ab92d"/><path d="m55.82 22.12a24.74 24.74 0 0 1 .18 2.88 24 24 0 0 1 -42.82 14.88 24 24 0 1 0 42.64-17.76z" fill="#e59730"/><circle cx="23" cy="41" fill="#f9ed86" r="20"/><path d="m33.25 23.85a19.79 19.79 0 0 1 1.75 8.15 20 20 0 0 1 -30.25 17.15 20 20 0 1 0 28.5-25.3z" fill="#f9e109"/><path d="m38.12 35.76a15.1 15.1 0 0 0 -.66-1.61 4 4 0 0 0 -6.46-1.15l-4.93 4.93a1.72 1.72 0 0 0 -.31 1.9v.06a1.69 1.69 0 0 0 1.58 1.11h7a4 4 0 0 0 3.78-5.24z" fill="#fcbc04"/><path d="m34.32 41h-7a1.69 1.69 0 0 0 -1.55 1.11v.06a1.72 1.72 0 0 0 .31 1.9l4.92 4.93a4 4 0 0 0 6.46-1.15 15.1 15.1 0 0 0 .66-1.61 4 4 0 0 0 -3.8-5.24z" fill="#fcbc04"/><path d="m31 49-4.93-4.93a1.72 1.72 0 0 0 -1.9-.31h-.06a1.69 1.69 0 0 0 -1.11 1.58v7a4 4 0 0 0 5.24 3.8 15.1 15.1 0 0 0 1.61-.66 4 4 0 0 0 1.15-6.48z" fill="#fcbc04"/><path d="m15 49a4 4 0 0 0 1.15 6.46 15.1 15.1 0 0 0 1.61.66 4 4 0 0 0 5.24-3.8v-7a1.69 1.69 0 0 0 -1.11-1.55h-.06a1.72 1.72 0 0 0 -1.9.31z" fill="#fcbc04"/><path d="m34.32 41a4 4 0 0 0 3.8-5.24 15.1 15.1 0 0 0 -.66-1.61 4 4 0 0 0 -2.46-2.15 19.81 19.81 0 0 1 -2.16 9z" fill="#e59730"/><path d="m34.32 41h-1.48a19.94 19.94 0 0 1 -4.22 5.62l2.38 2.38a4 4 0 0 0 6.46-1.15 15.1 15.1 0 0 0 .66-1.61 4 4 0 0 0 -3.8-5.24z" fill="#e59730"/><path d="m23 50.32v2a4 4 0 0 0 5.24 3.8 15.1 15.1 0 0 0 1.61-.66 4 4 0 0 0 1.15-6.46l-2.38-2.38a19.86 19.86 0 0 1 -5.62 3.7z" fill="#e59730"/><path d="m15 52c-.39 0-.77 0-1.16-.06a4 4 0 0 0 2.31 3.52 15.1 15.1 0 0 0 1.61.66 4 4 0 0 0 5.24-3.8v-2a19.76 19.76 0 0 1 -8 1.68z" fill="#e59730"/><path d="m11.68 41a4 4 0 0 0 -3.8 5.24 15.1 15.1 0 0 0 .66 1.61 4 4 0 0 0 6.46 1.15l4.93-4.93a1.72 1.72 0 0 0 .31-1.9v-.06a1.69 1.69 0 0 0 -1.58-1.11z" fill="#fcbc04"/><path d="m15 33a4 4 0 0 0 -6.46 1.15 15.1 15.1 0 0 0 -.66 1.61 4 4 0 0 0 3.8 5.24h7a1.69 1.69 0 0 0 1.55-1.11v-.06a1.72 1.72 0 0 0 -.31-1.9z" fill="#fcbc04"/><path d="m23 36.66v-7a4 4 0 0 0 -5.24-3.8 15.1 15.1 0 0 0 -1.61.66 4 4 0 0 0 -1.15 6.48l4.93 4.93a1.72 1.72 0 0 0 1.9.31h.06a1.69 1.69 0 0 0 1.11-1.58z" fill="#fcbc04"/><path d="m29.85 26.54a15.1 15.1 0 0 0 -1.61-.66 4 4 0 0 0 -5.24 3.8v7a1.69 1.69 0 0 0 1.11 1.55h.06a1.72 1.72 0 0 0 1.9-.31l4.93-4.92a4 4 0 0 0 -1.15-6.46z" fill="#fcbc04"/><path d="m32.66 39a2 2 0 0 1 -1.42-3.41l1.17-1.17a1.92 1.92 0 0 1 1.4-.59 2 2 0 0 1 1.85 1.17 14.15 14.15 0 0 1 .57 1.4 1.88 1.88 0 0 1 -.23 1.74 2 2 0 0 1 -1.65.86z" fill="#f9e109"/><path d="m33.81 48.17a1.92 1.92 0 0 1 -1.4-.59l-1.17-1.17a2 2 0 0 1 1.42-3.41h1.66a2 2 0 0 1 1.65.86 1.88 1.88 0 0 1 .26 1.73 14.15 14.15 0 0 1 -.57 1.4 2 2 0 0 1 -1.85 1.18z" fill="#fcbc04"/><path d="m27 54.34a2 2 0 0 1 -2-2v-1.68a2 2 0 0 1 3.41-1.42l1.08 1.08a2.15 2.15 0 0 1 .65 1.83 2 2 0 0 1 -1.14 1.51 14.15 14.15 0 0 1 -1.4.57 1.88 1.88 0 0 1 -.6.11z" fill="#fcbc04"/><path d="m19 54.34a1.88 1.88 0 0 1 -.62-.11 14.15 14.15 0 0 1 -1.4-.57 2 2 0 0 1 -1.15-1.51 2.15 2.15 0 0 1 .65-1.83l1.08-1.08a2 2 0 0 1 3.44 1.42v1.66a2 2 0 0 1 -.6 1.44 2 2 0 0 1 -1.37.58z" fill="#f9e109"/><path d="m12.19 48.17a2 2 0 0 1 -1.85-1.17 14.15 14.15 0 0 1 -.57-1.4 1.88 1.88 0 0 1 .23-1.74 2 2 0 0 1 1.68-.86h1.66a2 2 0 0 1 1.42 3.41l-1.17 1.17a1.92 1.92 0 0 1 -1.4.59z" fill="#f9e109"/><path d="m11.68 39a2 2 0 0 1 -1.68-.86 1.88 1.88 0 0 1 -.26-1.73 14.15 14.15 0 0 1 .57-1.4 2 2 0 0 1 1.85-1.18 1.92 1.92 0 0 1 1.4.59l1.17 1.17a2 2 0 0 1 -1.39 3.41z" fill="#f9e109"/><path d="m16.51 31.68a2.15 2.15 0 0 1 -.65-1.83 2 2 0 0 1 1.14-1.51 14.15 14.15 0 0 1 1.4-.57 1.88 1.88 0 0 1 .62-.11 2 2 0 0 1 2 2v1.66a2 2 0 0 1 -3.41 1.42z" fill="#f9e109"/><path d="m25 29.68a2 2 0 0 1 2-2 1.88 1.88 0 0 1 .62.11 14.15 14.15 0 0 1 1.4.57 2 2 0 0 1 1.15 1.51 2.15 2.15 0 0 1 -.65 1.83l-1.08 1.08a2 2 0 0 1 -3.44-1.44z" fill="#f9e109"/><path d="m36 38.14a1.88 1.88 0 0 0 .26-1.73 14.15 14.15 0 0 0 -.57-1.4 1.94 1.94 0 0 0 -.78-.86 20.09 20.09 0 0 1 -1.19 4.85h.6a2 2 0 0 0 1.68-.86z" fill="#fcbc04"/><path d="m17 53.66a14.15 14.15 0 0 0 1.4.57 1.88 1.88 0 0 0 .62.11 2 2 0 0 0 1.37-.58 2 2 0 0 0 .6-1.44v-1.25a19.42 19.42 0 0 1 -5.14.88 1.33 1.33 0 0 0 0 .2 2 2 0 0 0 1.15 1.51z" fill="#fcbc04"/><g fill="#39519d"><path d="m42.66 19.66a1 1 0 1 0 -1.42-1.42 6 6 0 0 1 -8.48 0 1 1 0 1 0 -1.42 1.42 8 8 0 0 0 11.32 0z"/><path d="m41.71 12.45a7 7 0 0 1 5.29-2.45 1 1 0 0 0 0-2 9 9 0 0 0 -6.56 2.87v-.34a7 7 0 0 1 6.56-4.53h6.93a7.06 7.06 0 0 1 -5 5.72 1 1 0 0 0 .28 2 1.45 1.45 0 0 0 .28 0 9.06 9.06 0 0 0 6.51-8.72 1 1 0 0 0 -1-1h-8a9 9 0 0 0 -6.25 2.54l.25-3.47a1 1 0 0 0 -.27-.75 1 1 0 0 0 -.73-.32h-6a1 1 0 0 0 -.73.32 1 1 0 0 0 -.27.75l.1 1.33a9 9 0 0 0 -6.1-2.4h-8a1 1 0 0 0 -1 1 9 9 0 0 0 9 9h6.64v.24a24.92 24.92 0 0 0 -10.5 4 1 1 0 0 0 -.28 1.38 1 1 0 0 0 1.39.28 23 23 0 0 1 9.53-3.62l.07 1a3 3 0 0 0 3 2.79h.28a3 3 0 0 0 3-2.79l.07-1a23 23 0 0 1 -3.2 45.72h-.36-.3a1 1 0 0 0 0 2h.25.41a25 25 0 0 0 4.71-49.55zm-21.64-8.45h6.93a7 7 0 0 1 6.1 3.61 9 9 0 0 0 -5.1-1.61 1 1 0 0 0 0 2 7 7 0 0 1 4.85 2h-5.85a7 7 0 0 1 -6.93-6zm17.07 12h-.28a1 1 0 0 1 -1-.93l-.14-2.07-.65-9h3.86l-.65 9-.14 2.05a1 1 0 0 1 -1 .95z"/><path d="m44 41a21 21 0 0 0 -34.29-16.26 1 1 0 1 0 1.29 1.55 19 19 0 1 1 -2.71 2.71 1 1 0 0 0 -1.55-1.27 21 21 0 1 0 37.26 13.27z"/><path d="m11.33 30.91a5.08 5.08 0 0 0 -3.7 2.81 18 18 0 0 0 -.7 1.71 4.92 4.92 0 0 0 1.76 5.57 4.92 4.92 0 0 0 -1.76 5.57 18 18 0 0 0 .7 1.71 5.08 5.08 0 0 0 3.7 2.81 5.33 5.33 0 0 0 .88.08 5.23 5.23 0 0 0 .68-.07 4.87 4.87 0 0 0 0 1.57 5.05 5.05 0 0 0 2.81 3.7 18 18 0 0 0 1.71.7 5 5 0 0 0 1.61.27 4.94 4.94 0 0 0 4-2 4.94 4.94 0 0 0 4 2 5 5 0 0 0 1.61-.27 18 18 0 0 0 1.71-.7 5.05 5.05 0 0 0 2.81-3.7 4.87 4.87 0 0 0 0-1.57 4.06 4.06 0 0 0 1.56 0 5.05 5.05 0 0 0 3.7-2.81 18 18 0 0 0 .7-1.71 4.86 4.86 0 0 0 0-3.32 1 1 0 1 0 -1.87.71 2.87 2.87 0 0 1 0 2c-.18.51-.39 1-.62 1.5a3 3 0 0 1 -2.23 1.7 3 3 0 0 1 -2.63-.83l-4.92-4.92a.78.78 0 0 1 -.06-.89.69.69 0 0 1 .62-.48h7a5 5 0 0 0 4.1-2.12 4.88 4.88 0 0 0 .65-4.45 18 18 0 0 0 -.7-1.71 5 5 0 0 0 -5.26-2.83 5 5 0 0 0 -2.83-5.26 18 18 0 0 0 -1.71-.7 4.92 4.92 0 0 0 -5.65 1.71 4.92 4.92 0 0 0 -5.57-1.76 18 18 0 0 0 -1.71.7 5 5 0 0 0 -2.83 5.26 5.11 5.11 0 0 0 -1.56.02zm.34 18.21a3 3 0 0 1 -2.23-1.7c-.23-.49-.44-1-.62-1.5a2.9 2.9 0 0 1 .39-2.64 3 3 0 0 1 2.47-1.28h7a.71.71 0 0 1 .62.46s0 .09 0 .1a.72.72 0 0 1 -.09.81l-4.91 4.92a3 3 0 0 1 -2.63.83zm11.33-10.41a3.31 3.31 0 0 0 .78.45 3.19 3.19 0 0 0 .85.2 3 3 0 0 0 .23.9 2.59 2.59 0 0 0 .44.74 3 3 0 0 0 -.46.78 3.3 3.3 0 0 0 -.21.85 3.16 3.16 0 0 0 -.89.23 2.82 2.82 0 0 0 -.74.43 3.31 3.31 0 0 0 -.78-.45 2.65 2.65 0 0 0 -.85-.21 3.16 3.16 0 0 0 -.23-.89 2.59 2.59 0 0 0 -.44-.74 3 3 0 0 0 .46-.78 2.64 2.64 0 0 0 .21-.86 3.14 3.14 0 0 0 .89-.22 2.82 2.82 0 0 0 .74-.43zm-2.28 16.08a2.9 2.9 0 0 1 -2.64.39c-.51-.18-1-.39-1.5-.62a3 3 0 0 1 -1.7-2.23 3 3 0 0 1 .83-2.63l4.93-4.92a.76.76 0 0 1 .88-.06.69.69 0 0 1 .48.62v7a3 3 0 0 1 -1.28 2.45zm9.57-5.09a3 3 0 0 1 .83 2.63 3 3 0 0 1 -1.7 2.23c-.49.23-1 .44-1.5.62a2.9 2.9 0 0 1 -2.64-.39 3 3 0 0 1 -1.28-2.47v-7a.74.74 0 0 1 .56-.65.9.9 0 0 1 .36-.08.61.61 0 0 1 .44.17zm3.51-16.87a3.17 3.17 0 0 1 .53.05 3 3 0 0 1 2.23 1.7c.23.49.44 1 .62 1.5a2.9 2.9 0 0 1 -.39 2.64 3 3 0 0 1 -2.47 1.28h-7a.71.71 0 0 1 -.62-.46s0-.09 0-.1a.72.72 0 0 1 .09-.81l4.92-4.92a3 3 0 0 1 2.09-.88zm-8.52-5.62a2.94 2.94 0 0 1 1.72-.55 3.1 3.1 0 0 1 1 .16c.51.18 1 .39 1.5.62a3 3 0 0 1 1.7 2.23 3 3 0 0 1 -.83 2.63l-4.93 4.92a.76.76 0 0 1 -.88.06.69.69 0 0 1 -.48-.62v-7a3 3 0 0 1 1.2-2.45zm-10.4 2.46a3 3 0 0 1 1.7-2.23c.49-.23 1-.44 1.5-.62a3.16 3.16 0 0 1 1-.16 2.94 2.94 0 0 1 1.69.55 3 3 0 0 1 1.23 2.47v7a.74.74 0 0 1 -.56.65.7.7 0 0 1 -.8-.09l-4.93-4.94a3 3 0 0 1 -.83-2.63zm-.58 4 4.92 4.92a.78.78 0 0 1 .06.89.69.69 0 0 1 -.62.48h-7a3 3 0 0 1 -2.47-1.28 2.9 2.9 0 0 1 -.39-2.64c.18-.51.39-1 .62-1.5a3 3 0 0 1 2.23-1.7 3.17 3.17 0 0 1 .53-.05 3 3 0 0 1 2.12.92z"/><circle cx="52" cy="46" r="1"/><circle cx="49" cy="51" r="1"/><circle cx="47" cy="47" r="1"/></g></g></svg>