<svg height="511pt" viewBox="0 -25 511.99952 511" width="511pt" xmlns="http://www.w3.org/2000/svg"><path d="m345.863281 345.929688c69.222657-69.222657 83.378907-171.292969 40.167969-246.832032-5.164062-9.023437-3.785156-20.363281 3.566406-27.714844l.316406-.3125c11.839844-11.839843 11.839844-31.039062 0-42.878906-11.839843-11.84375-31.039062-11.84375-42.878906 0l-.316406.3125c-7.351562 7.351563-18.6875 8.730469-27.710938 3.570313-75.539062-43.214844-177.609374-29.054688-246.832031 40.164062-69.21875 69.222657-83.378906 171.292969-40.164062 246.832031 5.160156 9.023438 3.78125 20.359376-3.570313 27.710938l-.316406.316406c-11.839844 11.84375-11.839844 31.039063 0 42.878906 11.84375 11.84375 31.039062 11.84375 42.882812 0l.316407-.3125c7.351562-7.351562 18.6875-8.730468 27.710937-3.570312 75.535156 43.214844 177.609375 29.054688 246.828125-40.164062zm0 0" fill="#ffe671"/><path d="m105.046875 72.238281c-69.214844 69.21875-83.371094 171.296875-40.15625 246.832031 5.15625 9.027344 3.78125 20.363282-3.578125 27.710938l-.3125.316406c-11.839844 11.835938-11.839844 31.042969 0 42.878906 1.550781 1.554688 3.230469 2.898438 5.007812 4.039063-4.988281 3.230469-10.714843 4.84375-16.445312 4.84375-7.757812 0-15.511719-2.96875-21.433594-8.882813-11.847656-11.835937-11.847656-31.042968 0-42.878906l.3125-.316406c7.351563-7.347656 8.734375-18.683594 3.566406-27.710938-43.214843-75.535156-29.058593-177.613281 40.167969-246.832031 47.292969-47.289062 109.929688-68.882812 168.949219-64.027343-48.707031 3.964843-97.488281 25.449218-136.078125 64.027343zm0 0" fill="#ffcb6f"/><path d="m494.789062 262.988281c5.589844 0 9.992188 4.703125 9.695313 10.285157-5.339844 100.351562-88.402344 180.078124-190.085937 180.078124-101.683594 0-184.746094-79.726562-190.085938-180.078124-.296875-5.578126 4.109375-10.285157 9.695312-10.285157zm0 0" fill="#fff0d0"/><path d="m465.738281 288.578125c-3.75 22.292969-12.4375 43.917969-26.0625 63.113281-7.933593 11.175782-23.988281 12.585938-33.679687 2.894532l-91.597656-91.597657h129.527343c13.59375 0 24.066407 12.183594 21.8125 25.589844zm0 0" fill="#ffae4d"/><path d="m403.320312 388.09375c-18.414062 13.117188-39.851562 22.261719-63.058593 26.199219-13.515625 2.296875-25.863281-8.058594-25.863281-21.765625v-129.539063l91.589843 91.589844c9.613281 9.613281 8.402344 25.628906-2.667969 33.515625zm0 0" fill="#ffcb6f"/><path d="m314.398438 262.988281v129.539063c0 13.707031-12.347657 24.0625-25.859376 21.769531-23.210937-3.9375-44.644531-13.085937-63.058593-26.199219-11.074219-7.886718-12.285157-23.90625-2.671875-33.515625zm0 0" fill="#ffae4d"/><path d="m314.398438 262.988281-91.59375 91.597657c-9.691407 9.691406-25.746094 8.28125-33.679688-2.894532-13.628906-19.195312-22.316406-40.820312-26.0625-63.113281-2.253906-13.40625 8.214844-25.589844 21.808594-25.589844zm0 0" fill="#ffcb6f"/><path d="m357.347656 262.988281c0 23.722657-19.230468 42.949219-42.949218 42.949219s-42.945313-19.226562-42.945313-42.949219zm0 0" fill="#fff0d0"/><path d="m507.261719 260.851562c-3.230469-3.40625-7.777344-5.363281-12.472657-5.363281h-85.992187c16.5625-54.9375 10.789063-112.839843-16.257813-160.113281-3.496093-6.113281-2.523437-13.796875 2.363282-18.6875l.3125-.3125c14.746094-14.746094 14.746094-38.742188 0-53.488281-7.144532-7.140625-16.640625-11.078125-26.742188-11.078125-10.101562 0-19.601562 3.9375-26.742187 11.078125l-.316407.316406c-4.886718 4.886719-12.570312 5.859375-18.683593 2.359375-23.199219-13.269531-48.820313-21.46875-76.15625-24.371094-4.121094-.441406-7.8125 2.546875-8.25 6.664063-.4375 4.121093 2.546875 7.816406 6.667969 8.253906 25.253906 2.679687 48.902343 10.242187 70.289062 22.476563 11.972656 6.847656 27.078125 4.886718 36.742188-4.773438l.3125-.316406c4.3125-4.3125 10.039062-6.683594 16.136718-6.683594 6.09375 0 11.824219 2.371094 16.136719 6.683594 8.898437 8.898437 8.898437 23.375 0 32.273437l-.316406.3125c-9.660157 9.660157-11.621094 24.769531-4.773438 36.742188 25.703125 44.933593 30.578125 100.382812 13.5625 152.667969h-153.296875c-4.144531 0-7.5 3.355468-7.5 7.5 0 4.140624 3.355469 7.5 7.5 7.5h24.726563c1.242187 8.316406 4.527343 15.976562 9.324219 22.453124l-56.332032 56.332032c0 .003906-.003906.003906-.007812.007812-3.035156 3.035156-7.222656 4.570313-11.511719 4.210938-4.316406-.363282-8.230469-2.601563-10.746094-6.144532-12.59375-17.742187-21.164062-38.496093-24.78125-60.015624-.699219-4.15625.472657-8.402344 3.21875-11.648438 2.792969-3.300781 6.875-5.195312 11.195313-5.195312h20.386718c4.144532 0 7.5-3.359376 7.5-7.5 0-4.140626-3.355468-7.5-7.5-7.5h-71.25c-4.695312 0-9.242187 1.953124-12.472656 5.359374-3.246094 3.425782-4.964844 8.101563-4.714844 12.824219 2.671876 50.179688 23.914063 95.15625 56.847657 128.441407-25.265625-2.617188-49.484375-10.273438-70.910157-22.53125-11.972656-6.847657-27.082031-4.882813-36.742187 4.773437l-.3125.316406c-8.898437 8.898438-23.375 8.898438-32.273437 0-8.898438-8.898437-8.898438-23.375 0-32.273437l.316406-.3125c9.660156-9.664063 11.621094-24.769532 4.773437-36.742188-20.277343-35.445312-27.800781-78.386718-21.179687-120.90625 6.847656-43.980468 27.644531-84.398437 60.140625-116.894531 36.6875-36.691406 84.375-58.730469 134.277343-62.0625 4.132813-.277344 7.261719-3.851563 6.984376-7.984375-.277344-4.132812-3.882813-7.257812-7.984376-6.984375-53.527343 3.574219-104.628906 27.164063-143.886718 66.421875-34.757813 34.757812-57.011719 78.050781-64.351563 125.195312-7.140625 45.871094 1.019531 92.273438 22.980469 130.660157 3.496094 6.113281 2.523438 13.796875-2.363281 18.6875l-.3125.3125c-14.746094 14.746093-14.746094 38.742187 0 53.488281 7.144531 7.144531 16.640625 11.078125 26.742187 11.078125 10.101563 0 19.601563-3.933594 26.742188-11.078125l.316406-.316406c4.886719-4.886719 12.574219-5.859375 18.683594-2.359375 28.695312 16.414062 61.957031 25.226562 96.21875 25.511719 33.820312 26.792968 76.558594 42.730468 122.871094 42.730468 41.769531 0 81.710937-12.863281 115.503906-37.199218 3.359375-2.421876 4.125-7.109376 1.703125-10.46875-2.421875-3.363282-7.105469-4.125-10.46875-1.703126-31.226563 22.484376-68.136719 34.371094-106.738281 34.371094-97.226563 0-177.433594-75.976562-182.597657-172.972656-.042969-.863281.371094-1.4375.621094-1.703125.296875-.308594.808594-.679687 1.585937-.679687h25.089844c-3.308594 5.820312-4.5625 12.621093-3.433594 19.328124 3.988282 23.738282 13.445313 46.636719 27.34375 66.214844 5.074219 7.148438 12.992188 11.671875 21.71875 12.410156.832032.070313 1.667969.105469 2.496094.105469.554688 0 1.105469-.023437 1.65625-.050781-.082031 1.394531-.074218 2.808594.042969 4.222656.722656 8.640625 5.167969 16.472656 12.207031 21.480469 19.609375 13.964844 42.484375 23.46875 66.152344 27.484375 1.667969.285156 3.339844.421875 5 .421875 6.957031 0 13.730469-2.441406 19.132812-7 1.074219-.90625 2.0625-1.886719 2.984376-2.917969.921874 1.03125 1.914062 2.011719 2.984374 2.917969 5.398438 4.5625 12.171876 7.003906 19.132813 7.003906 1.660156 0 3.335937-.140625 5-.421875 23.667969-4.015625 46.542969-13.523437 66.152344-27.484375 7.035156-5.011719 11.484375-12.839843 12.207031-21.484375.117188-1.414062.125-2.824218.042969-4.222656.550781.03125 1.101562.050781 1.65625.050781.828125 0 1.664062-.035156 2.496093-.105469 8.726563-.734374 16.644532-5.257812 21.71875-12.410156 13.898438-19.578125 23.355469-42.472656 27.34375-66.210937 1.128907-6.707031-.121093-13.507813-3.433593-19.332031h25.089843c.777344 0 1.292969.371093 1.585938.679687.253906.265625.667969.839844.621094 1.703125-2.324219 43.699219-20.347656 85.183594-50.742188 116.808594-2.871094 2.984375-2.777344 7.734375.210938 10.605468 1.453125 1.398438 3.324218 2.09375 5.195312 2.09375 1.96875 0 3.9375-.773437 5.40625-2.304687 32.890625-34.222656 52.390625-79.113281 54.910156-126.40625.25-4.722656-1.46875-9.398437-4.714843-12.820313zm-158.222657 9.640626c-3.449218 15.953124-17.667968 27.945312-34.640624 27.945312-16.972657 0-31.1875-11.992188-34.640626-27.945312zm-47.304687 133.15625c-3.308594 2.792968-7.65625 3.980468-11.941406 3.25-21.453125-3.636719-42.1875-12.253907-59.960938-24.914063-3.433593-2.445313-5.605469-6.277344-5.960937-10.511719-.359375-4.308594 1.1875-8.535156 4.242187-11.589844l56.332031-56.332031c6.476563 4.796875 14.132813 8.082031 22.453126 9.324219v79.652344c0 4.296875-1.882813 8.347656-5.164063 11.121094zm103.195313-32.171876c-.355469 4.234376-2.527344 8.0625-5.960938 10.507813-17.777344 12.660156-38.511719 21.277344-59.960938 24.917969-4.285156.726562-8.636718-.460938-11.945312-3.253906-3.28125-2.769532-5.164062-6.824219-5.164062-11.121094v-79.648438c8.320312-1.246094 15.980468-4.527344 22.457031-9.324218l56.328125 56.328124c3.058594 3.054688 4.601562 7.28125 4.246094 11.59375zm50.191406-95.789062c2.746094 3.242188 3.917968 7.488281 3.21875 11.644531-3.617188 21.523438-12.1875 42.277344-24.78125 60.019531-2.515625 3.539063-6.429688 5.78125-10.746094 6.144532-4.28125.359375-8.476562-1.175782-11.511719-4.214844-.003906 0-.003906-.003906-.007812-.003906l-56.332031-56.332032c4.796874-6.476562 8.082031-14.136718 9.324218-22.453124h79.640625c4.320313 0 8.402344 1.890624 11.195313 5.195312zm0 0"/><path d="m183.050781 73.152344h-.105469c-4.144531.019531-7.484374 3.390625-7.46875 7.535156.019532 4.128906 3.375 7.464844 7.5 7.464844h.035157.109375c4.140625-.019532 7.484375-3.390625 7.464844-7.535156-.019532-4.128907-3.371094-7.464844-7.5-7.464844-.011719 0-.023438 0-.035157 0zm0 0"/><path d="m216.230469 54.714844c-4.140625.019531-7.484375 3.394531-7.464844 7.535156.019531 4.132812 3.371094 7.46875 7.5 7.46875h.035156.105469c4.140625-.019531 7.484375-3.394531 7.464844-7.535156-.019532-4.144532-3.414063-7.519532-7.53125-7.46875zm0 0"/><path d="m222.824219 81.96875h-.109375c-4.140625.019531-7.484375 3.390625-7.464844 7.53125.019531 4.132812 3.371094 7.46875 7.5 7.46875h.035156.105469c4.140625-.019531 7.484375-3.394531 7.464844-7.535156-.019531-4.132813-3.371094-7.464844-7.5-7.464844-.007813 0-.019531 0-.03125 0zm0 0"/></svg>