<svg id="Capa_1" enable-background="new 0 0 512 512" height="512" viewBox="0 0 512 512" width="512" xmlns="http://www.w3.org/2000/svg"><ellipse id="XMLID_1224_" cx="358.732" cy="64.725" fill="#d8ec84" rx="73.343" ry="42.337" transform="matrix(.707 -.707 .707 .707 59.303 272.619)"/><ellipse id="XMLID_1221_" cx="249.268" cy="64.725" fill="#e2f1a1" rx="42.337" ry="73.343" transform="matrix(.707 -.707 .707 .707 27.242 195.216)"/><path id="XMLID_1929_" d="m304 105.989c109.352 0 198 88.648 198 198s-88.648 198-198 198-198-88.648-198-198 88.648-198 198-198z" fill="#ff9d6c"/><path id="XMLID_1217_" d="m10 303.609c-.111 109.451 88.401 198.492 197.699 198.38 109.126-.112 197.708-89.166 198.096-198.381h.007c0-.086-.003.086-.003 0s.004.086.004 0h-.007-395.796z" fill="#ffcb7c"/><path id="XMLID_1913_" d="m59.131 303.609c-.084 82.279 66.454 149.214 148.618 149.131s148.838-66.852 148.922-149.131z" fill="#ffe6c0"/><path id="XMLID_1912_" d="m206.934 303.609v149.121c.272.001.543.01.815.009 82.163-.084 148.838-66.852 148.922-149.131h-149.737z" fill="#ffe6c0"/><path id="XMLID_1910_" d="m103.298 408.511 104.645-104.902 104.646 104.902c-57.794 57.794-151.497 57.794-209.291 0z" fill="#ffd89e"/><path id="XMLID_1909_" d="m312.589 408.511-104.646-104.902v148.248c37.875-.001 75.749-14.449 104.646-43.346z" fill="#ffedd1"/><path id="XMLID_859_" d="m383.732 111.889c4.242-3.031 8.26-6.408 12.008-10.156 23.822-23.823 33.216-58.864 24.515-91.449-.923-3.458-3.624-6.159-7.082-7.082-32.586-8.7-67.626.692-91.45 24.516-7.253 7.253-13.197 15.572-17.7 24.576-4.496-8.968-10.446-17.273-17.749-24.576-23.823-23.822-58.865-33.216-91.45-24.515-3.458.923-6.158 3.624-7.082 7.082-8.701 32.585.693 67.626 24.516 91.449 3.732 3.732 7.74 7.096 11.971 10.122-10.662 4.427-20.979 9.748-30.834 15.948-4.675 2.941-6.081 9.114-3.14 13.79 2.941 4.674 9.115 6.08 13.79 3.14 29.893-18.804 64.456-28.743 99.954-28.743 103.664 0 188 84.336 188 188s-84.336 188-188 188c-2.48 0-4.958-.066-7.433-.163 70.043-33.468 118.784-105.068 119.226-187.798.003-.081.006-.163.007-.244v-.001c0-.005 0-.01 0-.014 0-.001 0-.001 0-.001 0-.005 0-.01 0-.015 0 0 0-.001 0-.002 0-.004 0-.009 0-.014 0-.001 0-.003 0-.004 0-.004 0-.008 0-.011 0-.002 0-.004 0-.006 0-.003 0-.007 0-.011 0-.001 0-.003 0-.004 0-.004 0-.007 0-.011 0-.001 0-.003 0-.004 0-.004 0-.008 0-.012 0-.002 0-.005 0-.008 0-.002 0-.005 0-.008s0-.006 0-.008 0-.006 0-.008c0-.01 0-.021 0-.032s0-.021 0-.032c0-.002 0-.004 0-.006 0-.003 0-.007 0-.01 0-.001 0-.002 0-.002 0-.004 0-.009 0-.014 0-.002 0-.004 0-.006 0-.003 0-.007 0-.01 0-.001 0-.004 0-.006 0-.003 0-.007 0-.01 0-.002 0-.003 0-.005 0-.004 0-.008 0-.011 0-.001 0-.002 0-.003 0-.004 0-.009 0-.013 0-.001 0-.003 0-.004 0-.004 0-.008 0-.012 0-.001 0-.002 0-.003 0-.004 0-.008 0-.013 0-.001 0-.002 0-.003 0-.004 0-.008 0-.013 0-.001 0-.001 0-.001 0-.005 0-.01 0-.015v-.002c0-.005 0-.009 0-.014s0-.011 0-.016c0-.011 0-.021-.001-.032-.127-5.046-3.996-9.196-8.955-9.712-.408-.042-.825-.061-1.244-.052-.027 0-.055.001-.082.002-.004 0-.01 0-.015 0-.09.002-.18.006-.269.011-.004 0-.009 0-.014.001-.006 0-.012-.002-.015.001-.037.002-.073.004-.109.007h-288.793c1.725-31.438 11.277-61.936 27.861-88.645 2.913-4.692 1.471-10.857-3.221-13.771-4.69-2.912-10.857-1.472-13.771 3.221-18.549 29.874-29.167 64.022-30.911 99.194h-86.26c-5.519 0-9.995 4.471-10 9.99-.057 55.793 21.624 108.232 61.047 147.656 39.172 39.172 91.171 60.735 146.446 60.735h.216c16.491-.017 32.541-1.987 47.943-5.671.132.037.258.082.393.114 15.625 3.688 31.759 5.558 47.956 5.558 114.691 0 208-93.309 208-208-.001-86.465-53.031-160.762-128.269-192.106zm-47.865-70.03c17.39-17.39 42.363-25.031 66.365-20.634 4.398 24.005-3.244 48.976-20.634 66.365-6.699 6.7-14.443 11.953-23.026 15.678-6.504-1.77-13.133-3.232-19.872-4.368l17.9-17.9c3.905-3.905 3.905-10.237 0-14.143-3.905-3.905-10.237-3.905-14.143 0l-28.445 28.445c-.001-.132-.011-.265-.011-.397 0-.101.002-.202.003-.303.024-19.714 7.861-38.741 21.863-52.743zm-109.465 45.731c-17.39-17.39-25.032-42.36-20.634-66.365 24.002-4.396 48.976 3.245 66.365 20.634 14.026 14.025 21.764 32.728 21.873 52.306-.001.264-.007.527-.006.791 0 .118-.002.237-.003.355l-28.454-28.454c-3.905-3.905-10.237-3.905-14.143 0-3.905 3.905-3.905 10.237 0 14.143l17.894 17.894c-6.718 1.131-13.367 2.586-19.924 4.366-8.564-3.728-16.293-8.995-22.968-15.67zm-28.459 354.812c-30.009-2.064-58.161-13.726-80.894-33.517l80.894-81.093zm20-114.609 80.663 80.861c-21.972 19.094-49.949 31.427-80.663 33.703zm94.788 66.701-80.687-80.885h114.261c-2.228 30.793-14.519 58.847-33.574 80.885zm-128.888-80.885-80.914 81.113c-19.729-22.797-31.372-51.009-33.458-81.113zm23.846 178.38c-.067 0-.128 0-.195 0-49.929-.001-96.912-19.486-132.304-54.878-33.278-33.278-52.571-76.814-54.941-123.503h29.191c2.351 38.838 18.574 75.011 46.31 102.747 29.916 29.916 69.628 46.384 111.844 46.384h.166c.048 0 .096-.002.145-.002.013 0 .026.002.039.002.023 0 .046-.003.069-.003 84.068-.218 153.079-66.192 158.326-149.127h29.158c-5.561 99.149-87.805 178.278-187.808 178.38z"/><path id="XMLID_1046_" d="m384 195.489c2.63 0 5.21-1.07 7.07-2.93s2.93-4.44 2.93-7.07-1.07-5.21-2.93-7.07-4.44-2.93-7.07-2.93-5.21 1.07-7.07 2.93-2.93 4.44-2.93 7.07 1.07 5.21 2.93 7.07 4.44 2.93 7.07 2.93z"/><path id="XMLID_1054_" d="m365 222.489c-2.63 0-5.21 1.07-7.07 2.93s-2.93 4.44-2.93 7.07 1.07 5.21 2.93 7.07 4.44 2.93 7.07 2.93 5.21-1.07 7.07-2.93 2.93-4.44 2.93-7.07-1.07-5.21-2.93-7.07-4.44-2.93-7.07-2.93z"/><path id="XMLID_1059_" d="m423 242.489c2.63 0 5.21-1.07 7.07-2.93s2.93-4.44 2.93-7.07-1.07-5.21-2.93-7.07-4.44-2.93-7.07-2.93-5.21 1.07-7.07 2.93-2.93 4.44-2.93 7.07 1.07 5.21 2.93 7.07 4.44 2.93 7.07 2.93z"/><path id="XMLID_1069_" d="m163.5 174.469c2.64 0 5.21-1.06 7.07-2.92 1.87-1.87 2.93-4.44 2.93-7.08 0-2.63-1.06-5.2-2.93-7.07-1.86-1.86-4.44-2.92-7.07-2.92s-5.21 1.06-7.07 2.92-2.93 4.44-2.93 7.07c0 2.64 1.07 5.21 2.93 7.08 1.86 1.86 4.44 2.92 7.07 2.92z"/></svg>