<?xml version="1.0" encoding="iso-8859-1"?>
<!-- Generator: Adobe Illustrator 19.0.0, SVG Export Plug-In . SVG Version: 6.00 Build 0)  -->
<svg version="1.1" id="Capa_1" xmlns="http://www.w3.org/2000/svg" xmlns:xlink="http://www.w3.org/1999/xlink" x="0px" y="0px"
	 viewBox="0 0 511.999 511.999" style="enable-background:new 0 0 511.999 511.999;" xml:space="preserve">
<path style="fill:#303C42;" d="M469.333,255.999c0-30.958-16.802-59.25-43.448-74.271c2.563-17.427,0.448-39.563-22.25-65.573
	c-15.896-18.219-35.844-29.083-57.125-30.656c-25.88-1.641-47.473-14.885-58.51-35.309V10.666c0-4.177-2.448-7.979-6.25-9.708
	c-3.813-1.729-8.271-1.083-11.427,1.667c-16.052,14-43.042,36.583-52.594,42.01c-4.615,2.635-10.24,3.052-15.875,1.281
	c-32.417-10.417-67.365,4.979-84.458,35.823c-9.063,16.365-21.229,30.281-35.198,40.24c-24.75,17.646-39.531,47.813-39.531,80.688
	c0,6.219,0.542,12.438,1.615,18.5c3.74,21.24,4.052,39.438,0.938,55.656c-1.688,8.844-2.552,17.99-2.552,27.177
	c0,38.5,14.802,73.792,39.594,94.396c1.99,1.656,3.083,4.073,3.073,6.938c0,49.083,36.927,88.448,79.979,85.125
	c15.344-1.281,29.198,0.635,41.177,5.594c24.813,10.281,49.969,15.948,70.844,15.948c5.896,0,10.667-4.771,10.667-10.667v-32h21.333
	c41.448,0,76.219-29.583,83.552-69.885C425.666,386.979,448,355.26,448,319.999c0-2.365-0.188-4.667-0.479-7.104
	C461.625,297.208,469.333,277.208,469.333,255.999z"/>
<path style="fill:#C38355;" d="M266.666,490.135c-15.854-1.531-33.927-6.292-52.01-13.792c-12.198-5.052-25.719-7.604-40.302-7.604
	c-3.521,0-7.104,0.156-10.74,0.448c-1.188,0.094-2.396,0.146-3.615,0.146c-29.406,0-53.333-28.708-53.333-64.052
	c0.031-9.094-3.896-17.583-10.781-23.302C76.218,365.635,64,335.749,64,303.999c0-7.844,0.729-15.635,2.177-23.156
	c3.604-18.813,3.313-39.542-0.896-63.385C64.437,212.624,64,207.645,64,202.666c0-26,11.427-49.667,30.573-63.313
	c16.552-11.802,30.896-28.146,41.49-47.281c12.198-22,36.344-33.219,59.281-25.844c11.198,3.573,23.198,2.458,33.917-3.615
	c7.844-4.458,24.406-17.896,37.406-28.802V490.135z"/>
<g>
	<path style="opacity:0.2;fill:#FFFFFF;enable-background:new    ;" d="M250.593,62.614c3.777-2.147,9.624-6.431,16.073-11.457
		V33.812c-13,10.906-29.563,24.344-37.406,28.802c-3.352,1.898-6.846,3.141-10.384,4.078
		C229.44,69.468,240.567,68.295,250.593,62.614z"/>
	<path style="opacity:0.2;fill:#FFFFFF;enable-background:new    ;" d="M235.989,476.343c-12.198-5.052-25.719-7.604-40.302-7.604
		c-3.521,0-7.104,0.156-10.74,0.448c-1.188,0.094-2.396,0.146-3.615,0.146c-29.406,0-53.333-28.708-53.333-64.052
		c0.031-9.094-3.896-17.583-10.781-23.302c-19.667-16.344-31.885-46.229-31.885-77.979c0-7.844,0.729-15.635,2.177-23.156
		c3.604-18.813,3.313-39.542-0.896-63.385c-0.844-4.833-1.281-9.813-1.281-14.792c0-26,11.427-49.667,30.573-63.313
		c16.552-11.802,30.896-28.146,41.49-47.281c7.664-13.823,20.047-23.37,33.882-26.742c-21.68-4.906-43.736,6.038-55.215,26.742
		c-10.594,19.135-24.938,35.479-41.49,47.281C75.427,152.999,64,176.666,64,202.666c0,4.979,0.437,9.958,1.281,14.792
		c4.208,23.844,4.5,44.573,0.896,63.385C64.729,288.364,64,296.156,64,303.999c0,31.75,12.219,61.635,31.885,77.979
		c6.885,5.719,10.813,14.208,10.781,23.302c0,35.344,23.927,64.052,53.333,64.052c1.219,0,2.427-0.052,3.615-0.146
		c3.635-0.292,7.219-0.448,10.74-0.448c14.583,0,28.104,2.552,40.302,7.604c18.083,7.5,36.156,12.26,52.01,13.792v-3.948
		C256.675,483.778,246.409,480.665,235.989,476.343z"/>
</g>
<path style="fill:#BA7118;" d="M426.666,319.999c0,28.004-18.883,53.008-45.948,61.016c-5.332,0.849-37.904,4.56-51.115-32.589
	c-1.979-5.563-8.115-8.458-13.625-6.479c-5.552,1.979-8.448,8.073-6.479,13.625c12.553,35.298,40.07,45.854,60.673,47.057
	c-7.98,26.556-32.28,45.37-60.84,45.37H288V83.968c15.203,13.227,35.224,21.435,57.875,22.865
	c14.698,1.094,29.5,9.385,41.688,23.344c19.958,22.875,19.448,39.969,15.938,55.042c-0.096,0.414-0.02,0.82-0.066,1.234
	c-0.043,0.141-0.137,0.262-0.174,0.405c-7.189,27.477-32.227,47.809-61.926,47.809c-5.896,0-10.667,4.771-10.667,10.667
	c0,5.896,4.771,10.667,10.667,10.667c35.464,0,65.777-21.839,78.639-52.695C437.244,215.088,448,234.652,448,255.999
	c0,17.271-6.823,33.479-19.219,45.635c-2.438,2.385-3.469,6.552-2.969,9.927C426.218,314.343,426.666,317.104,426.666,319.999z"/>
<path style="opacity:0.1;enable-background:new    ;" d="M448,255.999c0-18.37-8.29-35.095-21.518-47.003
	c3.961,8.331,6.408,17.439,6.408,27.034c0,17.271-6.823,33.479-19.219,45.635c-2.438,2.385-3.469,6.552-2.969,9.927
	c0.406,2.781,0.854,5.542,0.854,8.438c0,28.004-18.883,53.008-45.948,61.016c-3.628,0.578-19.81,2.168-33.979-8.375
	c14.171,32.173,43.992,29.155,49.09,28.344c27.065-8.008,45.948-33.012,45.948-61.016c0-2.896-0.448-5.656-0.854-8.438
	c-0.5-3.375,0.531-7.542,2.969-9.927C441.177,289.479,448,273.27,448,255.999z"/>
<path style="opacity:0.1;enable-background:new    ;" d="M309.333,428.031H288v19.969h21.333c28.56,0,52.859-18.814,60.84-45.37
	c-2.953-0.172-6.068-0.607-9.241-1.21C349.36,417.631,330.537,428.031,309.333,428.031z"/>
<path style="opacity:0.2;fill:#FFFFFF;enable-background:new    ;" d="M334.319,120.166c14.698,1.094,29.5,9.385,41.688,23.344
	c19.958,22.875,19.448,39.969,15.938,55.042c-0.096,0.414-0.02,0.82-0.066,1.234c-0.043,0.141-0.137,0.262-0.174,0.405
	c-1.711,6.54-4.496,12.635-8.052,18.189c9.327-8.283,16.358-19.1,19.608-31.522c0.038-0.143,0.132-0.264,0.174-0.405
	c0.047-0.414-0.03-0.82,0.066-1.234c3.51-15.073,4.021-32.167-15.938-55.042c-12.188-13.958-26.99-22.25-41.688-23.344
	c-22.651-1.43-42.672-9.638-57.875-22.865v21.763C301.265,113.963,317,119.072,334.319,120.166z"/>
<g>
	<path style="fill:#303C42;" d="M128,214.562c0-12.375,4.708-24.021,12-29.667c20.427-15.833,38.01-37.521,50.844-62.719
		c2.667-5.25,0.583-11.677-4.667-14.354c-5.271-2.656-11.688-0.583-14.354,4.667c-11.406,22.427-26.938,41.625-44.885,55.542
		c-12.5,9.677-20.271,27.51-20.271,46.531c0,3.781,0.302,7.531,0.885,11.156c0.854,5.229,5.385,8.948,10.521,8.948
		c0.573,0,1.146-0.042,1.729-0.135c5.813-0.958,9.76-6.438,8.813-12.25C128.198,219.781,128,217.176,128,214.562z"/>
	<path style="fill:#303C42;" d="M202.666,404.739c-5.177,0-10.375,0.219-14.781,0.594c-5.813,0-13.917-8.927-13.917-23.438
		c0.073-23.156-10.354-44.865-28.615-59.542c-4.615-3.677-11.302-2.958-15,1.625c-3.688,4.594-2.958,11.313,1.625,15
		c13.177,10.594,20.708,26.208,20.656,42.885c0,24.688,15.802,44.771,36.063,44.771c0.021,0,0.031,0,0.052,0
		c4.646-0.365,9.292-0.563,13.917-0.563c5.896,0,10.667-4.771,10.667-10.667C213.333,409.51,208.562,404.739,202.666,404.739z"/>
	<path style="fill:#303C42;" d="M234.666,223.999c0-5.896-4.771-10.667-10.667-10.667c-5.896,0-10.667,4.771-10.667,10.667
		c0,6-2.313,8.563-7.542,13.792C199.968,243.614,192,251.583,192,266.666c0,15.083,7.969,23.052,13.792,28.875
		c5.229,5.229,7.542,7.792,7.542,13.792c0,5.896,4.771,10.667,10.667,10.667c5.896,0,10.667-4.771,10.667-10.667
		c0-15.083-7.969-23.052-13.792-28.875c-5.229-5.229-7.542-7.792-7.542-13.792s2.313-8.563,7.542-13.792
		C226.698,247.051,234.666,239.083,234.666,223.999z"/>
</g>
<linearGradient id="SVGID_1_" gradientUnits="userSpaceOnUse" x1="-44.4699" y1="638.5917" x2="-26" y2="629.9788" gradientTransform="matrix(21.3333 0 0 -21.3333 996.3399 13791.6602)">
	<stop  offset="0" style="stop-color:#FFFFFF;stop-opacity:0.2"/>
	<stop  offset="1" style="stop-color:#FFFFFF;stop-opacity:0"/>
</linearGradient>
<path style="fill:url(#SVGID_1_);" d="M469.333,255.999c0-30.958-16.802-59.25-43.448-74.271
	c2.563-17.427,0.448-39.563-22.25-65.573c-15.896-18.219-35.844-29.083-57.125-30.656c-25.88-1.641-47.473-14.885-58.51-35.309
	V10.666c0-4.177-2.448-7.979-6.25-9.708c-3.813-1.729-8.271-1.083-11.427,1.667c-16.052,14-43.042,36.583-52.594,42.01
	c-4.615,2.635-10.24,3.052-15.875,1.281c-32.417-10.417-67.365,4.979-84.458,35.823c-9.063,16.365-21.229,30.281-35.198,40.24
	c-24.75,17.646-39.531,47.813-39.531,80.688c0,6.219,0.542,12.438,1.615,18.5c3.74,21.24,4.052,39.438,0.938,55.656
	c-1.688,8.844-2.552,17.99-2.552,27.177c0,38.5,14.802,73.792,39.594,94.396c1.99,1.656,3.083,4.073,3.073,6.938
	c0,49.083,36.927,88.448,79.979,85.125c15.344-1.281,29.198,0.635,41.177,5.594c24.813,10.281,49.969,15.948,70.844,15.948
	c5.896,0,10.667-4.771,10.667-10.667v-32h21.333c41.448,0,76.219-29.583,83.552-69.885C425.666,386.979,448,355.26,448,319.999
	c0-2.365-0.188-4.667-0.479-7.104C461.625,297.208,469.333,277.208,469.333,255.999z"/>
<g>
</g>
<g>
</g>
<g>
</g>
<g>
</g>
<g>
</g>
<g>
</g>
<g>
</g>
<g>
</g>
<g>
</g>
<g>
</g>
<g>
</g>
<g>
</g>
<g>
</g>
<g>
</g>
<g>
</g>
</svg>
