<?xml version="1.0" encoding="iso-8859-1"?>
<!-- Generator: Adobe Illustrator 19.0.0, SVG Export Plug-In . SVG Version: 6.00 Build 0)  -->
<svg version="1.1" id="Layer_1" xmlns="http://www.w3.org/2000/svg" xmlns:xlink="http://www.w3.org/1999/xlink" x="0px" y="0px"
	 viewBox="0 0 512.001 512.001" style="enable-background:new 0 0 512.001 512.001;" xml:space="preserve">
<g>
	<path style="fill:#A67C52;" d="M125.526,65.594c23.841,0,46.493,8.968,65.085,23.891c5.244,4.209,11.903,6.726,19.15,6.726
		c7.247,0,13.906-2.518,19.15-6.726c18.593-14.922,41.244-23.891,65.085-23.891h5.942c101.709,0,148.298,127.291,70.199,192.446
		c-43.45,36.249-99.366,58.059-160.376,58.059S92.836,294.289,49.386,258.04c-78.099-65.155-31.509-192.446,70.199-192.446H125.526z
		"/>
	<path style="fill:#A67C52;" d="M218.004,195.903c23.841,0,46.493,8.968,65.085,23.891c5.244,4.209,11.903,6.726,19.15,6.726
		s13.906-2.518,19.15-6.726c18.593-14.922,41.244-23.891,65.085-23.891h5.942c101.709,0,148.298,127.291,70.199,192.446
		c-43.45,36.249-99.366,58.059-160.376,58.059s-116.926-21.81-160.376-58.059c-78.099-65.155-31.509-192.446,70.199-192.446
		L218.004,195.903L218.004,195.903z"/>
</g>
<path d="M178.606,134.93c8.795,7.058,19.859,10.946,31.156,10.946c11.297,0,22.361-3.888,31.156-10.946
	c4.393-3.526,5.096-9.943,1.571-14.337c-3.526-4.394-9.944-5.097-14.337-1.571c-5.263,4.224-11.622,6.457-18.39,6.457
	s-13.127-2.232-18.39-6.457c-4.392-3.527-10.811-2.823-14.337,1.571C173.509,124.985,174.212,131.404,178.606,134.93z"/>
<path d="M504.631,264.492c-8.163-22.526-22.391-41.812-41.147-55.774c-13.269-9.878-28.419-16.678-44.683-20.203
	c3.462-32.092-6.464-65.395-27.393-90.697c-22.63-27.358-55.115-42.424-91.47-42.424h-5.942c-25.451,0-50.164,9.038-71.469,26.135
	c-3.653,2.932-8.068,4.482-12.766,4.482c-4.698,0-9.113-1.55-12.766-4.482c-21.304-17.099-46.018-26.135-71.469-26.135h-5.942
	c-26.268,0-50.843,7.958-71.069,23.014C29.76,92.37,15.532,111.657,7.369,134.182c-8.129,22.435-9.564,46.232-4.149,68.822
	c5.843,24.371,19.547,46.11,39.632,62.866c15.333,12.792,32.083,23.777,49.861,32.725c-0.727,11.66,0.258,23.342,2.985,34.718
	c5.843,24.371,19.547,46.11,39.632,62.866c46.708,38.966,105.984,60.427,166.909,60.427s120.202-21.459,166.909-60.427
	c20.085-16.756,33.789-38.495,39.631-62.866C514.195,310.726,512.761,286.927,504.631,264.492z M55.919,250.21
	c-39.007-32.542-40.749-77.682-29.372-109.077c11.446-31.588,41.898-65.34,93.039-65.34h5.942c20.758,0,41.057,7.485,58.702,21.646
	c7.208,5.786,16.276,8.972,25.533,8.972s18.325-3.186,25.533-8.972c17.644-14.162,37.944-21.646,58.702-21.646h5.942
	c30.165,0,57.068,12.44,75.754,35.028c17.351,20.974,25.637,48.509,22.887,75.049c-2.045-0.098-4.096-0.165-6.163-0.165h-5.942
	c-25.451,0-50.164,9.038-71.469,26.135c-3.653,2.932-8.067,4.481-12.766,4.481s-9.113-1.55-12.766-4.481
	c-21.304-17.099-46.018-26.135-71.469-26.135h-5.942c-26.268,0-50.843,7.958-71.069,23.014
	c-18.756,13.962-32.985,33.249-41.147,55.774c-1.529,4.219-2.82,8.486-3.874,12.784C81.781,269.63,68.341,260.573,55.919,250.21z
	 M456.082,380.518c-43.047,35.914-97.683,55.691-153.843,55.691s-110.796-19.779-153.843-55.691
	c-39.007-32.541-40.749-77.682-29.373-109.077c11.447-31.588,41.898-65.34,93.039-65.34h5.942c20.758,0,41.057,7.485,58.702,21.646
	c7.208,5.785,16.276,8.971,25.533,8.971c9.257,0,18.324-3.186,25.533-8.971c17.645-14.162,37.944-21.646,58.702-21.646h5.942
	c51.141,0,81.592,33.753,93.039,65.34C496.831,302.836,495.088,347.977,456.082,380.518z"/>
<path d="M331.771,263.857c4.392-3.526,5.096-9.944,1.571-14.337c-3.526-4.393-9.944-5.096-14.337-1.571
	c-5.263,4.224-11.622,6.457-18.39,6.457s-13.126-2.232-18.39-6.457c-4.392-3.526-10.811-2.823-14.337,1.571
	c-3.526,4.392-2.823,10.811,1.571,14.337c8.795,7.058,19.86,10.946,31.156,10.946S322.976,270.916,331.771,263.857z"/>
<path d="M398.345,380.513c-29.909,15.341-62.244,23.12-96.106,23.12c-5.633,0-10.198,4.566-10.198,10.198
	s4.566,10.198,10.198,10.198c37.131,0,72.598-8.535,105.415-25.369c5.012-2.571,6.99-8.718,4.42-13.729
	C409.504,379.92,403.356,377.941,398.345,380.513z"/>
<path d="M437.244,354.761c-2.362,1.97-4.797,3.912-7.237,5.774c-4.479,3.416-5.34,9.816-1.924,14.294
	c2.007,2.632,5.044,4.014,8.116,4.014c2.157,0,4.33-0.681,6.177-2.09c2.675-2.04,5.344-4.169,7.932-6.329
	c4.325-3.608,4.908-10.039,1.299-14.363C448,351.734,441.57,351.152,437.244,354.761z"/>
<g>
</g>
<g>
</g>
<g>
</g>
<g>
</g>
<g>
</g>
<g>
</g>
<g>
</g>
<g>
</g>
<g>
</g>
<g>
</g>
<g>
</g>
<g>
</g>
<g>
</g>
<g>
</g>
<g>
</g>
</svg>
