<svg height="511pt" viewBox="1 0 511 511.99141" width="511pt" xmlns="http://www.w3.org/2000/svg"><g fill="#00695c"><path d="m246.242188 417.1875c1.253906.902344 2.0625 2.300781 2.21875 3.839844-1.136719-1.007813-1.917969-2.355469-2.21875-3.839844zm0 0"/><path d="m61.410156 125.515625c-.859375 1.191406-2.089844 2.0625-3.5 2.476563.773438-1.277344 2.039063-2.171876 3.5-2.476563zm0 0"/><path d="m135.992188 210.253906c-.363282.355469-.859376.539063-1.367188.511719-3.5-.171875-6.910156-.257813-10.324219-.34375 3.839844-.082031 7.679688-.167969 11.691407-.167969zm0 0"/></g><path d="m414.945312 443.554688c-.410156-1.570313.339844-3.207032 1.792969-3.925782.433594 1.570313-.320312 3.226563-1.792969 3.925782zm0 0" fill="#009688"/><path d="m449.933594 398.070312c-12.238282-4.519531-24.226563-9.675781-35.925782-15.445312-1.195312-1.789062-2.304687-3.496094-3.5-5.203125-1.179687-1.664063-1.066406-3.917969.269532-5.457031 1.335937-1.539063 3.550781-1.964844 5.363281-1.03125 12.03125 6.230468 27.21875 13.742187 41.042969 19.714844.773437 2.078124.273437 4.417968-1.277344 6.003906-1.550781 1.589844-3.875 2.140625-5.972656 1.417968zm0 0" fill="#009688"/><path d="m186.421875 322.976562c-1.707031 1.792969-3.328125 3.5-5.035156 5.207032-2.414063 2.304687-5.957031 2.972656-9.042969 1.707031 2.898438-1.792969 5.546875-3.5 7.847656-5.035156 1.839844-1.246094 4.011719-1.898438 6.230469-1.878907zm0 0" fill="#009688"/><path d="m475.191406 374.691406c-1.011718-1.628906-1.285156-3.613281-.746094-5.453125.535157-1.839843 1.832032-3.363281 3.5625-4.191406.597657-.253906 1.277344-.683594 1.960938-1.023437 1.980469-1.148438 3.351562-3.113282 3.746094-5.367188.394531-2.257812-.226563-4.570312-1.699219-6.324219-7.035156-8.582031-15.421875-15.960937-24.832031-21.84375-1.417969-.8125-2.171875-2.425781-1.882813-4.035156.285157-1.609375 1.554688-2.863281 3.164063-3.132813 4.3125-.550781 8.546875-1.578124 12.628906-3.074218 1.9375-.839844 3.351562-2.558594 3.804688-4.617188.457031-2.058594-.101563-4.214844-1.5-5.792968-14.675782-16.640626-60.332032-62.378907-123.050782-62.378907h-4.777344c-2.914062-.019531-5.824218.179688-8.703124.597657-18.886719 2.277343-35.992188 12.25-47.277344 27.5625-24.40625 33.28125-50.429688 88.234374-43.519532 140.800781.015626.261719.074219.523437.171876.769531 1.253906.902344 2.0625 2.300781 2.21875 3.839844 2.382812 2.253906 5.980468 2.636718 8.789062.9375 2.386719-1.449219 5.035156-3.070313 7.59375-4.863282 1.714844-1.246093 3.96875-1.472656 5.898438-.585937 1.925781.882813 3.226562 2.738281 3.402343 4.851563.9375 12.21875 3.226563 24.296874 6.828125 36.011718 1.128906 3.886719 2.554688 7.679688 4.265625 11.347656 1.148438 2.332032 3.417969 3.902344 6.003907 4.164063 2.582031.261719 5.121093-.828125 6.710937-2.882813l1.535156-2.046874c6.574219-8.40625 11.601563-17.914063 14.847657-28.078126.242187-.996093 1.144531-1.691406 2.167968-1.671874 1.027344.019531 1.898438.753906 2.101563 1.757812 2.265625 12.363281 5.34375 24.566406 9.214843 36.523438.914063 2.554687 3.066407 4.464843 5.710938 5.070312 2.640625.605469 5.414062-.179688 7.34375-2.082031l2.902344-2.988281c1.167968-1.195313 2.84375-1.742188 4.492187-1.472657 1.648438.273438 3.0625 1.332031 3.785157 2.839844 4.695312 8.144531 11.246093 15.074219 19.113281 20.222656 1.023437.769531 2.050781 1.449219 3.160156 2.21875 5.144531 3.640625 11.871094 4.167969 17.519531 1.371094 5.648438-2.796875 9.308594-8.46875 9.53125-14.769531 0-.253906.082032-.511719.082032-.851563.035156-1.628906.875-3.136719 2.242187-4.027343 1.367187-.886719 3.082031-1.039063 4.585937-.410157 3.09375 1.351563 6.257813 2.550781 9.472657 3.582031 2.167969.679688 4.535156.199219 6.265625-1.273437 1.730468-1.472656 2.585937-3.726563 2.265625-5.976563-1.785157-11.714843-5.503907-23.046874-11.007813-33.539062-.148437-.265625-.261718-.554688-.339844-.851562-.410156-1.570313.339844-3.207032 1.792969-3.925782.835938-.371094 1.785157-.402344 2.644531-.085937 6.203126 2.230469 12.648438 3.71875 19.199219 4.4375 1.222657.128906 2.425781-.386719 3.171875-1.363281.75-.972657.9375-2.265626.496094-3.414063-7.789062-19.628906-17.238281-38.554687-28.242188-56.578125-1.195312-1.789062-2.304687-3.496094-3.5-5.203125-1.179687-1.664063-1.066406-3.917969.269532-5.457031 1.335937-1.539063 3.550781-1.964844 5.363281-1.03125 12.03125 6.230468 27.21875 13.742187 41.042969 19.714844 6.574218 2.898437 12.800781 5.460937 18.347656 7.421874 2.128906.738282 4.492188.160157 6.039062-1.480468 1.546876-1.636719 1.988282-4.03125 1.128907-6.113282-2.082031-5.453124-4.59375-10.730468-7.507813-15.785156zm0 0" fill="#00695c"/><path d="m299.148438 213.324219c-19.820313-29.199219-42.957032-56-68.949219-79.871094-24.351563-20.914063-52.4375-37.042969-82.773438-47.53125-4.808593-1.835937-10.214843.367187-12.375 5.035156-.867187 1.855469-.929687 3.984375-.167969 5.886719 3.277344 8.109375 7.765626 15.675781 13.308594 22.445312 1.964844 2.558594-1.363281 5.628907-4.351562 4.179688-8.183594-4.070312-16.722656-7.386719-25.511719-9.898438-8.496094-2.617187-17.207031-4.472656-26.027344-5.546874-2.742187-.382813-5.417969 1.023437-6.65625 3.5-.613281 1.222656-.675781 2.652343-.171875 3.925781l2.132813 5.460937c.570312 2.058594-.046875 4.269532-1.601563 5.734375-1.558594 1.46875-3.796875 1.953125-5.820312 1.261719-5.386719-1.296875-10.863282-2.183594-16.386719-2.644531-.804687-.09375-1.621094-.007813-2.386719.253906-.859375 1.191406-2.089844 2.0625-3.5 2.476563-1.148437 1.515624-1.25 3.582031-.253906 5.203124l2.8125 5.035157c.464844.878906.4375 1.929687-.066406 2.785156-.503906.851563-1.414063 1.382813-2.40625 1.398437-6.1875.34375-12.261719 1.816407-17.921875 4.351563-1.703125.632813-2.851563 2.234375-2.910157 4.050781-.054687 1.816406.996094 3.488282 2.65625 4.226563 11.445313 4.890625 23.292969 8.773437 35.414063 11.605469 1.421875.199218 2.597656 1.214843 3 2.59375.40625 1.378906-.035156 2.867187-1.125 3.804687l-6.144531 5.546875c-1.742188 1.484375-2.457032 3.847656-1.832032 6.050781.621094 2.203125 2.472657 3.839844 4.734376 4.191407 23.894531 6.140624 63.148437 14.335937 86.957031 19.113281 1.875.425781 1.363281 2.902343-.597657 2.816406-8.535156-.34375-16.554687-.511719-24.234374-.511719-.363282.355469-.859376.539063-1.367188.511719-3.5-.171875-6.910156-.257813-10.324219-.34375-29.757812.261719-59.3125 4.890625-87.722656 13.738281-3.589844.925782-6.539063 3.476563-7.980469 6.890625-1.4375 3.414063-1.203125 7.304688.640625 10.519531 3.007813 4.976563 6.648438 9.535157 10.835938 13.566407 2.371093 2.199219 3.53125 5.410156 3.105469 8.617187-.421876 3.207032-2.375 6.003906-5.238282 7.511719-10.472656 6.988281-19.628906 15.769531-27.050781 25.941406-1.988281 2.828125-2.324219 6.503907-.882813 9.644531 1.4375 3.144532 4.441407 5.289063 7.882813 5.628907 1.277344.257812 2.558594.511719 3.839844.683593 13.308593 1.59375 26.796875.667969 39.765625-2.730468 6.144531-1.453125 12.1875-3.304688 18.089844-5.546875 1.867187-.902344 4.085937-.632813 5.683593.691406 1.597657 1.320313 2.277344 3.449219 1.738281 5.453125-1.15625 3.148438-2.09375 6.367188-2.816406 9.644531-.136718.585938-.191406 1.1875-.167968 1.789063.433593 2.734375 2.144531 5.097656 4.605468 6.363281 2.460938 1.261719 5.378906 1.277344 7.851563.039063 5.121093-2.304688 10.410156-4.949219 15.703125-7.765626 10.066406-5.375 20.050781-11.433593 28.328125-16.726562 2.988281-1.875 6.570312 1.195312 4.609375 4.011719-4.769532 6.703125-8.480469 14.101562-11.007813 21.929687-.65625 1.921875-.472656 4.027344.511719 5.804688 2.320312 4.109375 7.140625 6.113281 11.691406 4.863281 9.136719-2.5 17.894532-6.234375 26.027344-11.09375 2.898438-1.792969 5.546875-3.5 7.847656-5.035156 1.839844-1.246094 4.011719-1.898438 6.230469-1.878907 3.242187.007813 6.285156 1.558594 8.191406 4.183594.011719.0625.039063.125.085938.167969 1.4375 1.863281 3.605469 3.023437 5.953125 3.1875 2.347656.160156 4.652344-.6875 6.335937-2.332031 37.289063-37.207032 73.558594-106.582032 92.160157-114.859375zm0 0" fill="#00695c"/><path d="m281.910156 145.398438c11.53125 22.492187 33.261719 37.984374 58.28125 41.558593h.171875c4.859375.695313 9.773438.925781 14.679688.683594 14.464843-.640625 28.867187-2.324219 43.089843-5.035156 3.339844-.65625 5.742188-3.59375 5.71875-7-.003906-1.921875-.769531-3.761719-2.132812-5.117188-1.382812-1.355469-1.835938-3.402343-1.152344-5.214843s2.375-3.046876 4.308594-3.148438c11.777344-.597656 19.457031-2.816406 24.320312-10.242188 2.371094-3.703124 2.761719-8.339843 1.035157-12.386718-1.722657-4.046875-5.339844-6.980469-9.652344-7.835938-6.570313-1.28125-13.652344-2.046875-20.226563-2.644531-1.425781-.125-2.582031-1.207031-2.804687-2.621094-.222656-1.414062.546875-2.796875 1.867187-3.351562 18.945313-7.9375 33.453126-23.46875 46.847657-30.039063 3.839843-1.875.769531-8.105468-3.414063-8.105468l-23.550781-8.617188c25.769531 0 31.148437-7.765625 36.777344-14.167969 1.828125-2.078125 2.269531-5.03125 1.128906-7.550781-1.140625-2.523438-3.652344-4.140625-6.417969-4.140625h-5.71875c8.527344-9.023437 14.121094-20.417969 16.042969-32.679687.5-2.59375-.359375-5.265626-2.277344-7.078126-1.917969-1.816406-4.632812-2.527343-7.195312-1.882812-5.589844 1.425781-10.976563 3.546875-16.039063 6.3125-6.617187 3.53125-12.851562 7.734375-18.605468 12.546875-.695313.578125-1.683594.636719-2.445313.148437-.757813-.484374-1.117187-1.410156-.882813-2.28125.46875-1.847656.753907-3.734374.855469-5.632812.125-2.214844-.792969-4.359375-2.476562-5.804688-2.644531-2.664062-6.902344-2.8125-9.726563-.339843-4.898437 4.238281-9.332031 8.988281-13.226562 14.164062-2.898438 3.792969-5.519532 7.785157-7.851563 11.949219-.597656 1.089844-1.839843 1.660156-3.054687 1.40625-1.21875-.257812-2.125-1.277344-2.234375-2.515625-.355469-6.597656-1.355469-13.144531-2.988281-19.542969-.171876-.511718-.339844-1.023437-.511719-1.449218-1.125-2.304688-3.347657-3.867188-5.894531-4.144532-2.546876-.277344-5.058594.773438-6.648438 2.777344-3.785156 4.902344-7.183594 10.097656-10.15625 15.53125-10.792969 20.53125-18.441406 42.5625-22.699219 65.363281-.269531 1.273438-1.390625 2.179688-2.6875 2.179688s-2.417969-.90625-2.6875-2.179688c-3.328125-14.25-6.65625-26.792969-9.8125-37.800781-5.207031-18.003906-9.984375-31.828125-13.652343-41.644531-1.8125-4.824219-6.160157-8.234375-11.277344-8.847657-5.117188-.609374-10.148438 1.683594-13.042969 5.949219-.546875.785157-1.03125 1.613281-1.453125 2.472657-2.492188 3.992187-4.441406 8.296874-5.800781 12.800781-.660157 2.238281-2.398438 3.996093-4.632813 4.683593-2.230468.6875-4.65625.210938-6.460937-1.269531-1.367188-1.109375-2.644531-2.046875-3.839844-2.902343-2.429687-1.601563-5.605469-1.492188-7.917969.277343-2.308594 1.773438-3.242187 4.8125-2.324218 7.574219 2.222656 6.355469 4.964843 12.523438 8.195312 18.429688.929688 1.695312.722656 3.789062-.527344 5.265624-1.25 1.480469-3.28125 2.03125-5.105468 1.390626l-10.582032-3.496094c-.667968-.222656-1.402344-.0625-1.917968.417968-.515626.480469-.730469 1.203126-.558594 1.886719 9.21875 40.105469 34.050781 49.148438 50.773437 82.6875zm0 0" fill="#00695c"/><path d="m410.507812 377.421875c1.195313 1.707031 2.304688 3.414063 3.5 5.203125-8.277343-4.007812-16.386718-8.019531-23.46875-11.691406-1.8125-.933594-4.027343-.507813-5.363281 1.03125-1.335937 1.539062-1.445312 3.792968-.269531 5.457031 12.636719 19.46875 23.273438 40.167969 31.746094 61.78125.070312.128906.097656.277344.085937.425781-1.453125.71875-2.203125 2.355469-1.792969 3.925782-.589843.351562-1.28125.5-1.960937.425781-6.554687-.71875-13-2.207031-19.203125-4.4375-1.328125-.453125-2.800781-.042969-3.707031 1.035156-.90625 1.074219-1.058594 2.59375-.386719 3.828125 5.5 10.492188 9.222656 21.824219 11.007812 33.539062.320313 2.25-.535156 4.503907-2.269531 5.976563-1.730469 1.472656-4.09375 1.953125-6.265625 1.273437-3.214844-1.03125-6.375-2.230468-9.472656-3.582031-1.5-.628906-3.21875-.476562-4.585938.410157-1.367187.890624-2.203124 2.398437-2.238281 4.027343 0 .339844-.085937.597657-.085937.851563-.125 4.164062-1.761719 8.136718-4.609375 11.179687-7.867188-5.148437-14.417969-12.078125-19.113281-20.222656-.722657-1.507813-2.136719-2.566406-3.785157-2.839844-1.648437-.269531-3.324219.277344-4.492187 1.472657l-2.902344 2.988281c-1.929688 1.902343-4.703125 2.6875-7.34375 2.082031-2.644531-.605469-4.796875-2.515625-5.710938-5.070312-3.871093-11.957032-6.949218-24.160157-9.214843-36.523438-.203125-1.003906-1.074219-1.738281-2.101563-1.757812-1.023437-.019532-1.925781.675781-2.167968 1.671874-3.246094 10.164063-8.273438 19.671876-14.847657 28.078126l-1.535156 2.046874c-1.589844 2.054688-4.128906 3.144532-6.710937 2.882813-2.585938-.261719-4.855469-1.832031-6.003907-4.164063-1.710937-3.667968-3.136719-7.460937-4.265625-11.347656-3.601562-11.714844-5.890625-23.792968-6.828125-36.011718-.175781-2.113282-1.476562-3.96875-3.402343-4.851563-1.929688-.886719-4.183594-.660156-5.898438.585937-2.558594 1.792969-5.207031 3.414063-7.59375 4.863282-2.808594 1.699218-6.40625 1.316406-8.789062-.9375-.15625-1.539063-.964844-2.9375-2.21875-3.839844-.097657-.246094-.15625-.507812-.171876-.769531-6.910156-52.566407 19.113282-107.519531 43.519532-140.800781 11.285156-15.3125 28.390625-25.285157 47.277344-27.5625 56.402343 5.292968 97.191406 46.25 110.929687 61.78125 1.402344 1.578124 1.960937 3.734374 1.503906 5.792968s-1.871093 3.777344-3.804687 4.617188c-4.082032 1.496094-8.320313 2.523437-12.628906 3.074218-1.613282.269532-2.882813 1.523438-3.167969 3.132813-.289063 1.609375.46875 3.222656 1.886719 4.035156 9.410156 5.882813 17.796874 13.261719 24.832031 21.84375 1.46875 1.753907 2.089843 4.066407 1.695312 6.324219-.394531 2.253906-1.765625 4.21875-3.742187 5.367188-.683594.339843-1.367188.769531-1.964844 1.023437-1.730469.828125-3.023438 2.351563-3.5625 4.191406-.539062 1.839844-.265625 3.824219.746094 5.453125 2.914062 5.054688 5.425781 10.332032 7.511718 15.785156 0 .085938.082032.085938.082032.171876-13.824219-5.972657-29.011719-13.484376-41.042969-19.714844-1.8125-.933594-4.027344-.507813-5.363281 1.03125-1.335938 1.539062-1.449219 3.792968-.269532 5.457031zm0 0" fill="#009688"/><path d="m273.546875 213.324219c-17.75 7.9375-51.625 71.59375-87.125 109.652343-2.21875-.019531-4.390625.632813-6.230469 1.878907-2.300781 1.535156-4.949218 3.242187-7.847656 5.035156-8.132812 4.859375-16.890625 8.59375-26.027344 11.09375-4.550781 1.25-9.371094-.753906-11.691406-4.863281-.984375-1.777344-1.167969-3.882813-.511719-5.804688 2.527344-7.828125 6.238281-15.226562 11.007813-21.929687 1.960937-2.816407-1.621094-5.886719-4.609375-4.011719-8.277344 5.292969-18.261719 11.351562-28.328125 16.726562-5.292969 2.816407-10.582032 5.460938-15.703125 7.765626-2.472657 1.238281-5.390625 1.222656-7.851563-.039063-2.460937-1.265625-4.171875-3.628906-4.605468-6.363281-.023438-.601563.03125-1.203125.167968-1.789063.722656-3.277343 1.660156-6.496093 2.816406-9.644531.539063-2.003906-.140624-4.132812-1.738281-5.453125-1.597656-1.324219-3.816406-1.59375-5.683593-.691406-5.902344 2.242187-11.945313 4.09375-18.089844 5.546875-12.96875 3.398437-26.457032 4.324218-39.765625 2.730468-1.28125-.171874-2.5625-.425781-3.839844-.683593-3.441406-.339844-6.445313-2.484375-7.882813-5.628907-1.441406-3.140624-1.105468-6.816406.882813-9.644531 7.421875-10.171875 16.578125-18.953125 27.050781-25.941406 2.863282-1.507813 4.816406-4.304687 5.238282-7.511719.425781-3.207031-.734376-6.417968-3.105469-8.617187-4.1875-4.03125-7.828125-8.589844-10.835938-13.566407-1.84375-3.214843-2.078125-7.105468-.640625-10.519531 1.441406-3.414062 4.390625-5.964843 7.980469-6.890625 28.410156-8.847656 57.964844-13.476562 87.722656-13.738281 3.414063.085937 6.824219.171875 10.324219.34375.507812.027344 1.003906-.15625 1.367188-.511719 7.679687 0 15.699218.167969 24.234374.511719 1.960938.085937 2.472657-2.390625.597657-2.816406-23.808594-4.777344-63.0625-12.972657-86.957031-19.113281-2.261719-.351563-4.113282-1.988282-4.734376-4.191407-.625-2.203125.089844-4.566406 1.832032-6.050781l6.144531-5.546875c1.089844-.9375 1.53125-2.425781 1.125-3.804687-.402344-1.378907-1.578125-2.394532-3-2.59375-12.121094-2.832032-23.96875-6.714844-35.414063-11.605469-1.660156-.738281-2.710937-2.410157-2.65625-4.226563.058594-1.816406 1.207032-3.417968 2.910157-4.050781 5.660156-2.535156 11.734375-4.007813 17.921875-4.351563.992187-.015624 1.902344-.546874 2.40625-1.398437.503906-.855469.53125-1.90625.066406-2.785156l-2.8125-5.035157c-.996094-1.621093-.894531-3.6875.253906-5.203124 1.410156-.414063 2.640625-1.285157 3.5-2.476563.765625-.261719 1.582032-.347656 2.386719-.253906 5.523437.460937 11 1.347656 16.386719 2.644531 2.023437.691406 4.261718.207031 5.820312-1.261719 1.554688-1.464843 2.171875-3.675781 1.601563-5.734375l-2.132813-5.460937c-.503906-1.273438-.441406-2.703125.171875-3.925781 1.238281-2.476563 3.914063-3.882813 6.65625-3.5 8.820313 1.074218 17.53125 2.929687 26.027344 5.546874 8.789063 2.511719 17.328125 5.828126 25.511719 9.898438 2.988281 1.449219 6.316406-1.621094 4.351562-4.179688-5.542968-6.769531-10.03125-14.335937-13.308594-22.445312-.761718-1.902344-.699218-4.03125.167969-5.886719 25.355469 10.261719 48.847657 24.617188 69.546875 42.496094 25.992188 23.871094 49.132813 50.671875 68.949219 79.871094zm0 0" fill="#009688"/><path d="m435.511719 17.742188c-1.925781 12.261718-7.515625 23.65625-16.042969 32.679687h5.714844c2.769531 0 5.28125 1.617187 6.421875 4.140625 1.140625 2.519531.699219 5.472656-1.128907 7.550781-5.632812 6.402344-11.007812 14.167969-36.78125 14.167969l23.554688 8.617188c4.179688 0 7.253906 6.230468 3.414062 8.105468-13.398437 6.570313-27.90625 22.101563-46.847656 30.039063-1.320312.554687-2.09375 1.9375-1.871094 3.351562.222657 1.414063 1.382813 2.496094 2.808594 2.621094 6.570313.597656 13.652344 1.363281 20.222656 2.644531 4.316407.855469 7.929688 3.789063 9.65625 7.835938 1.722657 4.046875 1.335938 8.683594-1.035156 12.386718-4.867187 7.425782-12.546875 9.644532-24.320312 10.242188-1.9375.101562-3.625 1.335938-4.3125 3.148438-.683594 1.8125-.230469 3.859374 1.152344 5.214843 1.363281 1.355469 2.132812 3.195313 2.132812 5.117188.023438 3.40625-2.375 6.34375-5.714844 7-10.632812 2.066406-21.371094 3.519531-32.171875 4.351562h-.171875c-25.019531-3.574219-46.75-19.066406-58.28125-41.558593l-.171875-.253907c-16.722656-33.539062-41.554687-42.582031-50.773437-82.6875-.171875-.683593.042968-1.40625.558594-1.886719.515624-.480468 1.25-.640624 1.917968-.417968l10.582032 3.496094c1.824218.640624 3.855468.089843 5.105468-1.390626 1.25-1.476562 1.457032-3.570312.527344-5.265624-3.230469-5.90625-5.972656-12.074219-8.195312-18.429688-.917969-2.761719.015624-5.800781 2.324218-7.574219 2.3125-1.769531 5.488282-1.878906 7.917969-.277343 1.195313.855468 2.472656 1.792968 3.839844 2.902343 1.804687 1.480469 4.230469 1.957031 6.460937 1.269531 2.234375-.6875 3.972656-2.445312 4.632813-4.683593 1.359375-4.503907 3.308593-8.808594 5.800781-12.800781.421875-.859376.90625-1.6875 1.453125-2.472657 2.894531-4.265625 7.925781-6.558593 13.042969-5.949219 5.117187.613282 9.464844 4.023438 11.277344 8.847657 3.667968 9.816406 8.445312 23.640625 13.652343 41.644531 3.15625 11.007812 6.484375 23.550781 9.8125 37.800781.269531 1.273438 1.390625 2.179688 2.6875 2.179688s2.417969-.90625 2.6875-2.179688c4.257813-22.800781 11.90625-44.832031 22.699219-65.363281 2.972656-5.433594 6.371094-10.628906 10.15625-15.53125 1.589844-2.003906 4.101562-3.054688 6.648438-2.777344 2.546874.277344 4.769531 1.839844 5.894531 4.144532.171875.425781.339843.9375.511719 1.449218 1.632812 6.398438 2.632812 12.945313 2.988281 19.542969.109375 1.238281 1.015625 2.257813 2.234375 2.515625 1.214844.253906 2.457031-.316406 3.054687-1.40625 2.332031-4.164062 4.953125-8.15625 7.851563-11.949219 3.894531-5.175781 8.328125-9.925781 13.226562-14.164062 2.824219-2.472657 7.082032-2.324219 9.726563.339843 1.683593 1.445313 2.601562 3.589844 2.476562 5.804688-.101562 1.898438-.386719 3.785156-.855469 5.632812-.234374.871094.125 1.796876.882813 2.28125.761719.488282 1.75.429688 2.445313-.148437 5.753906-4.8125 11.988281-9.015625 18.605468-12.546875.097656.882812.066406 1.773438-.085937 2.648438zm0 0" fill="#009688"/><path d="m33.410156 264.054688c-11.351562 7.539062-21.28125 17.027343-29.328125 28.023437-3.671875 4.824219-4.59375 11.203125-2.441406 16.871094 2.480469 6.21875 7.996094 10.714843 14.585937 11.894531 20.371094 3.238281 41.234376 1.179688 60.585938-5.972656-.351562 1.296875-.667969 2.558594-.957031 3.890625-1.238281 5.777343.898437 11.757812 5.511719 15.445312 5.242187 4.21875 12.402343 5.148438 18.542968 2.40625 9.613282-4.386719 18.980469-9.289062 28.066406-14.675781-.753906 1.910156-1.433593 3.828125-2.039062 5.75-1.777344 5.726562-.28125 11.964844 3.902344 16.257812 3.585937 3.789063 8.578125 5.925782 13.796875 5.914063 1.613281 0 3.222656-.195313 4.785156-.589844 13.097656-3.683593 25.46875-9.570312 36.585937-17.410156.503907-.320313 1.117188-.429687 1.703126-.304687l.941406.597656c2.722656 3.925781 7.058594 6.425781 11.816406 6.824218 5.007812.503907 9.976562-1.246093 13.5625-4.777343 19.320312-20.90625 36.863281-43.386719 52.453125-67.207031 13.292969-19.097657 28.210937-40.433594 35.992187-45.160157h29.296876c-7.640626 7.296875-14.144532 15.699219-19.292969 24.925781-11.410157 5.460938-21.308594 13.636719-28.828125 23.808594-12.800782 17.460938-53.9375 79.625-45.074219 146.976563.703125 5.382812 4.070313 10.050781 8.953125 12.417969 4.816406 2.335937 10.488281 2.082031 15.078125-.675782 1.417969-.851562 2.894531-1.765625 4.402344-2.738281 1.390625 15.726563 5.238281 31.136719 11.410156 45.671875 2.292969 5.039062 7.074219 8.503906 12.578125 9.113281 5.609375.65625 11.15625-1.652343 14.644531-6.09375 3.589844-4.558593 6.855469-9.371093 9.761719-14.394531 1.484375 6.265625 3.285156 12.449219 5.390625 18.535156 1.878906 5.261719 6.304687 9.207032 11.746094 10.472656 5.441406 1.261719 11.15625-.324218 15.160156-4.21875 6.113281 8.605469 13.816406 15.957032 22.699219 21.65625 4.367187 3.046876 9.558594 4.6875 14.882812 4.703126 4.003906 0 7.957032-.929688 11.535156-2.722657 7.117188-3.492187 12.175782-10.132812 13.65625-17.921875 1.832032.71875 3.769532 1.417969 5.683594 2.03125 4.992188 1.59375 10.453125.492188 14.4375-2.910156 3.988282-3.402344 5.933594-8.625 5.144532-13.804688-1.355469-8.871093-3.742188-17.554687-7.109376-25.875 3.328126.78125 6.703126 1.351563 10.105469 1.707032 4.203125.441406 8.328125-1.355469 10.871094-4.726563 2.558594-3.355469 3.160156-7.8125 1.578125-11.726562-6.945312-17.472657-15.121094-34.433594-24.464844-50.753907 15.261719 7.78125 30.929688 14.746094 46.933594 20.855469 5.292969 1.921875 11.222656.5 15.070312-3.609375 3.921876-4.09375 5.066407-10.113281 2.925782-15.359375-2.089844-5.261719-4.5-10.390625-7.210938-15.363281l.777344-.433594c4.152344-2.363281 7.039062-6.449218 7.875-11.152344.867188-4.75-.417969-9.640624-3.503906-13.355468-5.335938-6.453125-11.34375-12.316406-17.921875-17.492188 1.21875-.359375 2.390625-.761718 3.488281-1.1875 4.484375-1.746094 7.835938-5.566406 8.988281-10.238281 1.183594-4.84375-.058593-9.960937-3.328125-13.722656-17.1875-19.609375-64.15625-65.304688-129.46875-65.304688h-4.804687c-2.6875.019531-5.375.179688-8.046875.476563 6.296875-7.445313 14.132812-13.429688 22.972656-17.542969h66.679688c72.328124 0 83.824218-28.222656 84.890624-31.4375.960938-2.898437.308594-6.085937-1.71875-8.371094-2.027343-2.28125-5.117187-3.308593-8.109374-2.695312-2.988282.613281-5.421876 2.777343-6.386719 5.671875-.035157.195312-10.207031 19.765625-68.675781 19.765625h-68.148438c-6.632812-.707031-12.722656-4.003907-16.9375-9.175781 3.03125.378906 6.082031.59375 9.140625.640624 1.441406 0 2.890625 0 4.339844-.109374 14.859375-.648438 29.652343-2.359376 44.265625-5.121094 5.648437-1.132813 10.214844-5.28125 11.886718-10.792969.996094-3.300781.890626-6.832031-.308593-10.0625 10.023437-.351563 19.289062-5.414063 25.003906-13.652344 3.917969-6.089843 4.558594-13.722656 1.71875-20.378906-2.84375-6.65625-8.804687-11.472656-15.910156-12.851563-1.246094-.238281-2.5625-.46875-3.890625-.699218 5.460937-3.507813 10.484375-7.269532 15.179687-10.785156 5.214844-4.1875 10.769531-7.929688 16.613281-11.179688 4.960938-2.449219 7.523438-8.042969 6.136719-13.398438-.84375-3.546874-3.007812-6.640624-6.050781-8.652343 4.382812-2.578125 8.269531-5.910157 11.484375-9.847657l.855469-.9375c2.882812-3.277343 4.265625-7.609374 3.8125-11.949218s-2.703125-8.296875-6.203125-10.902344c4.65625-7.929688 7.859375-16.628906 9.457031-25.6875.996094-5.445312-.839844-11.027344-4.875-14.820312-4.035156-3.792969-9.71875-5.28125-15.09375-3.953126-9.925781 2.664063-19.316406 7.03125-27.75 12.902344-1.507812-3.648437-4.304688-6.613281-7.859375-8.335937-5.640625-2.808594-12.421875-1.933594-17.160156 2.21875-5.285157 4.542969-10.085938 9.617187-14.328125 15.148437-.375-1.921875-.800782-3.738281-1.273438-5.472656-1.585937-5.949219-6.433594-10.46875-12.484375-11.628906-5.910156-1.199219-11.988281 1.074218-15.65625 5.863281-13.261719 18.558594-23.035156 39.378906-28.84375 61.4375-6.980469-26.375-13.449219-45.5-18.03125-57.753906-2.933593-7.804688-9.976562-13.324219-18.257812-14.3125-8.28125-.984375-16.421875 2.730469-21.105469 9.628906-3.257812 4.769531-5.855469 9.957031-7.722656 15.417969-.851563-.65625-1.707032-1.261719-2.492188-1.832032-5.335937-3.863281-12.574218-3.777343-17.816406.210938-5.375 3.941406-7.59375 10.898438-5.496094 17.222656 1.3125 3.890625 2.84375 7.703125 4.582032 11.425782l-1.707032-.582032c-3.609375-1.195312-7.578125-.351562-10.390625 2.203125-2.8125 2.558594-4.03125 6.429688-3.183593 10.136719 4.941406 20.253906 15.210937 38.816406 29.746093 53.761719 8.609375 9.414062 15.972657 19.898437 21.914063 31.1875 9.585937 18.523437 25.535156 32.960937 44.917968 40.660156 1.984376 5.328125 4.746094 10.332031 8.191407 14.851563h-23.746094c-19.625-28.347657-42.371094-54.394532-67.816406-77.65625-25.191407-21.660157-54.238281-38.386719-85.621094-49.296876-6.855469-2.441406-14.5-.707031-19.628906 4.457032-4.570313 4.597656-6.019531 11.453125-3.703125 17.507812 1.148437 3.015625 2.492187 5.957032 4.019531 8.796875-12.125-4.457031-24.722656-7.503906-37.546875-9.078125-5.238281-.65625-10.445312 1.441406-13.765625 5.546875-2.992187 3.765625-3.785156 8.828125-2.082031 13.328125l.050781.144532c-4.3125-.832032-8.667969-1.429688-13.046875-1.789063-5.503906-.585937-10.871094 1.964844-13.890625 6.605469-2.238281 3.425781-2.796875 7.6875-1.519531 11.578125-4.351563.855469-8.585938 2.214843-12.621094 4.054687-4.707031 2.078125-7.773438 6.707032-7.859375 11.851563-.035156 5.074219 2.898437 9.707031 7.5 11.84375 9.242187 4.105469 18.800781 7.445312 28.589844 9.984375-3.625 3.503906-5.132813 8.65625-3.96875 13.558594 1.371093 5.375 5.609375 9.550781 11.007812 10.839843 7.679688 1.960938 16.953125 4.136719 26.691407 6.328125-21.949219 1.695313-43.625 5.929688-64.597657 12.621094-6.289062 2.007812-11.316406 6.777344-13.652343 12.953125-2.078126 5.652344-1.449219 11.941406 1.707031 17.070313 3.394531 5.605468 7.515625 10.742187 12.253906 15.273437.605469.578125.570313.945313.5625 1.074219-.191406.703125-.671875 1.292968-1.324219 1.621094zm316.9375-8.0625c57.105469 0 100.128906 41.316406 114.636719 57.308593-2.546875.703125-5.132813 1.238281-7.746094 1.605469-5.175781.714844-9.320312 4.648438-10.300781 9.777344-1.074219 5.171875 1.261719 10.453125 5.808594 13.132812 8.347656 5.203125 15.8125 11.710938 22.101562 19.269532l-.5.238281c-3.824218 1.800781-6.71875 5.121093-7.980468 9.15625-1.289063 4.195312-.757813 8.742187 1.46875 12.527343 1.636718 2.855469 3.128906 5.792969 4.46875 8.796876-16.210938-6.382813-36.929688-16.585938-52.289063-24.480469-5.28125-2.769531-11.777344-1.527344-15.660156 2.996093-3.945313 4.503907-4.296875 11.125-.851563 16.023438 10.726563 16.316406 19.867188 33.617188 27.304688 51.671875-2.941406-.699219-5.84375-1.554687-8.695313-2.5625-4.652343-1.613281-9.820312-.210937-13.011719 3.539063-3.195312 3.75-3.761718 9.074218-1.425781 13.410156 4.5625 8.664062 7.796875 17.96875 9.597657 27.59375-2.003907-.722656-3.941407-1.515625-5.65625-2.242188-4.074219-1.742187-8.746094-1.359375-12.484376 1.023438-3.980468 2.617187-6.359374 7.078125-6.316406 11.84375-.054687 3.136718-1.867187 5.976562-4.683594 7.355468-2.910156 1.453126-6.382812 1.1875-9.035156-.699218-7.9375-4.691406-14.59375-11.273438-19.371094-19.15625-1.921874-3.957032-5.632812-6.746094-9.96875-7.492188-4.417968-.753906-8.925781.691406-12.082031 3.875l-2.175781 2.191406c-3.566406-11.28125-6.441406-22.773437-8.601562-34.40625-.949219-4.851562-5.105469-8.417968-10.042969-8.617187-4.96875-.152344-9.410157 3.078125-10.796875 7.847656-3.136719 9.453125-7.765625 18.34375-13.710938 26.335938-5.449218-13.828125-8.746094-28.40625-9.78125-43.230469-.386718-5.113281-3.503906-9.621094-8.15625-11.785156-4.710937-2.203125-10.238281-1.734375-14.507812 1.238281-1.902344 1.324219-3.832032 2.558594-5.65625 3.695313-5.675782-48.085938 17.917968-100.15625 42.113281-133.121094 3.972656-5.386719 8.824219-10.0625 14.351563-13.839844-.8125 57.710938 24.105468 128.527344 49.296874 172.644531 1.472657 2.726563 4.304688 4.4375 7.402344 4.476563 3.097656.039062 5.96875-1.605469 7.507813-4.292969 1.539062-2.6875 1.503906-5.996094-.097657-8.648437-24.445312-42.792969-47.078124-109.753907-46.933593-161.832032 22.292969 31.230469 52.519531 55.945313 87.554687 71.59375 1.011719.394532 2.089844.585938 3.171875.570313 4.09375.003906 7.617188-2.902344 8.390625-6.921875.773438-4.019532-1.417968-8.023438-5.222656-9.539063-33.023438-14.925781-61.3125-38.640625-81.777344-68.546875 1.835938-.164062 3.679688-.324218 5.539063-.324218zm-60.953125-114.671876c-6.496093-12.417968-14.578125-23.9375-24.039062-34.277343-9.695313-10.101563-17.386719-21.945313-22.671875-34.910157 5.050781 1.121094 10.296875-.808593 13.417968-4.9375 3.117188-4.128906 3.546876-9.699218 1.089844-14.253906-2.070312-3.789062-3.941406-7.683594-5.609375-11.664062 4.105469 2.628906 9.207031 3.171875 13.773438 1.472656 4.566406-1.699219 8.070312-5.445312 9.457031-10.117188 1.398438-4.59375 3.480469-8.949218 6.175781-12.921874 1.074219-1.664063 3.023438-2.550782 4.984375-2.261719 1.945313.210937 3.601563 1.507812 4.265625 3.347656 9.320313 25.664063 17.039063 51.882813 23.117188 78.503906 1.1875 5.121094 5.761719 8.738281 11.015625 8.714844h.214844c5.300781-.042969 9.828124-3.828125 10.8125-9.039063 4.765624-26.933593 14.925781-52.628906 29.867187-75.542968 1.140625 5.203125 1.859375 10.492187 2.148437 15.8125.328126 5.023437 3.933594 9.230468 8.851563 10.320312 4.914063 1.09375 9.960937-1.1875 12.386719-5.601562 4.472656-8.101563 10.195312-15.445313 16.964844-21.753906-.074219.375-.160157.761718-.261719 1.152343-1.148438 4.449219.691406 9.128907 4.5625 11.597657 3.871093 2.472656 8.890625 2.175781 12.441406-.734376 8.832031-7.582031 19.082031-13.335937 30.15625-16.921874-1.78125 10.144531-6.46875 19.554687-13.488281 27.09375-2.449219 2.441406-3.179688 6.117187-1.859375 9.308593 1.324219 3.195313 4.445312 5.273438 7.898437 5.265625h2.417969c-4.269531 4.675782-9.550781 8.757813-28.160156 8.757813-4.140625 0-7.679688 2.96875-8.402344 7.042969-.726563 4.074218 1.578125 8.078124 5.464844 9.5l17.28125 6.316406c-3.414063 2.320312-6.828125 4.898437-10.417969 7.558594-8.304688 6.769531-17.40625 12.492187-27.105469 17.042968-4.949219 2.066406-7.847656 7.246094-7.015625 12.542969.828125 5.300781 5.171875 9.34375 10.515625 9.796875 6.46875.519531 12.90625 1.375 19.285157 2.558594 1.566406.304687 2.871093 1.378906 3.472656 2.851562.617187 1.390625.484375 2.996094-.347656 4.265625-2.332032 3.585938-5.972657 5.777344-17.578126 6.382813-4.878906.257812-9.234374 3.132812-11.386718 7.519531-2.148438 4.382813-1.757813 9.589844 1.027344 13.601563-13.046876 2.328124-26.230469 3.796874-39.46875 4.386718-3.316407.171875-6.644532.101563-9.949219-.214844 6.230469-20.164062 21.683593-63.394531 45.816406-87.523437 3.234375-3.351563 3.1875-8.671875-.105469-11.964844-3.292968-3.289062-8.613281-3.335937-11.960937-.101562-17.054688 18.796875-30.398438 40.652343-39.332031 64.410156-3.472657-9.347656-9.835938-17.335937-18.167969-22.8125-3.917969-2.613281-9.21875-1.554687-11.835938 2.363281-2.613281 3.921875-1.554687 9.222656 2.367188 11.835938 14.503906 9.652344 15.238281 26.777344 14.359375 39.253906-15.742188-6.234375-28.691406-17.96875-36.445313-33.023438zm-243.414062 107.664063c-3.652344-3.496094-6.832031-7.449219-9.464844-11.765625-.453125-.683594-.554687-1.542969-.269531-2.3125.585937-1.292969 1.71875-2.257812 3.085937-2.628906 17.863281-6.023438 57.261719-15.769532 120.5-12.996094 5.3125.378906 9.984375-3.476562 10.617188-8.765625.628906-5.15625-2.855469-9.917969-7.960938-10.878906-20.601562-4.1875-57.585937-11.859375-82.175781-17.917969l2.480469-2.203125c3.398437-2.960937 4.871093-7.5625 3.824219-11.945313-1.148438-4.535156-4.722657-8.050781-9.277344-9.125-8.941406-2.242187-17.066406-4.625-23.578125-6.910156 1.503906-.257812 3.117187-.46875 4.855469-.597656 3.980468-.265625 7.542968-2.5625 9.429687-6.074219 1.769531-3.261719 1.789063-7.191406.050781-10.472656 3.34375.410156 6.652344 1.027344 9.917969 1.84375 5.371094 1.4375 11.097656-.246094 14.839844-4.359375 3.4375-3.761719 4.480469-9.132812 2.703125-13.910156l-.324219-.851563c15.5625 2.386719 30.667969 7.128907 44.800781 14.0625 5.058594 2.542969 11.210938 1.21875 14.769532-3.183593 3.296874-4.054688 3.320312-9.859376.054687-13.9375-4.878906-6.011719-8.941406-12.640626-12.09375-19.710938.488281-.476562 1.222656-.597656 1.835937-.296875 29.285157 10.132813 56.40625 25.691406 79.9375 45.855469 19.203126 17.460937 36.75 36.652344 52.421876 57.335937-35.035157-11-68.984376-25.203125-101.417969-42.425781-4.03125-2.324219-9.179688-.992188-11.578125 2.996094-2.394532 3.988281-1.15625 9.160156 2.789062 11.628906 32.066406 17.246094 65.664063 31.480469 100.359375 42.523438-29.234375 7.378906-72.847656 20.214843-100.359375 36.691406-2.671875 1.542968-4.304687 4.40625-4.269531 7.492187.035156 3.082031 1.730469 5.910157 4.441406 7.390625 2.707031 1.476563 6 1.378906 8.617188-.257812 25.789062-15.46875 68.445312-27.875 96.726562-34.984375-5.976562 7.765625-12.707031 17.390625-20.773437 28.953125-14.949219 22.863281-31.746094 44.464844-50.21875 64.589844-2.730469-3.707032-6.78125-6.226563-11.3125-7.042969-5.070313-.976563-10.320313.09375-14.601563 2.980469-9.453125 6.703124-19.972656 11.75-31.113281 14.933593-.589844.097657-1.191406.078125-1.773438-.050781-.101562 0-.171874 0-.207031.09375 2.257813-6.96875 5.582031-13.542969 9.859375-19.492188 3.167969-4.398437 2.726563-10.4375-1.050781-14.328124-3.96875-4.117188-10.292969-4.867188-15.113281-1.789063-13.710938 8.9375-28.085938 16.816406-43 23.558594.574218-2.3125 1.261718-4.609375 2.066406-6.828125 1.742188-4.871094.449219-10.316406-3.292969-13.890625-4.039062-3.886719-9.964843-5.078125-15.191406-3.054688-18.027344 7.398438-37.691406 9.894531-56.992187 7.226563-1.1875-.246094-1.808594-.851563-1.828126-1.78125 6.78125-9.339844 15.160157-17.402344 24.746094-23.824219 5.140625-3.117187 8.550782-8.433594 9.234375-14.40625.546875-5.667969-1.570312-11.265625-5.726562-15.15625zm0 0"/></svg>